<svg width="39" height="52" viewBox="0 0 39 52" fill="none" xmlns="http://www.w3.org/2000/svg">
<path d="M36.0844 0H2.40563C1.07702 0 0 1.07702 0 2.40562V4.00938C0 5.33798 1.07702 6.415 2.40563 6.415C2.40563 15.5328 7.51918 23.2277 14.5181 25.66C7.51918 28.0923 2.40563 35.7872 2.40563 44.905C1.07702 44.905 0 45.982 0 47.3106V48.9144C0 50.243 1.07702 51.32 2.40563 51.32H36.0844C37.413 51.32 38.49 50.243 38.49 48.9144V47.3106C38.49 45.982 37.413 44.905 36.0844 44.905C36.0844 35.7872 30.9708 28.0923 23.9719 25.66C30.9708 23.2277 36.0844 15.5328 36.0844 6.415C37.413 6.415 38.49 5.33798 38.49 4.00938V2.40562C38.49 1.07702 37.413 0 36.0844 0ZM28.559 38.49H9.93122C11.6411 33.7993 15.153 30.4713 19.245 30.4713C23.3367 30.4713 26.849 33.7986 28.559 38.49ZM28.5609 12.83H9.93102C9.22036 10.8802 8.82063 8.69513 8.82063 6.415H29.6694C29.6694 8.70084 29.2697 10.8841 28.5609 12.83Z" fill="#016FB9"/>
</svg>
