<svg width="52" height="52" viewBox="0 0 52 52" fill="none" xmlns="http://www.w3.org/2000/svg">
<path d="M25.66 0C11.4894 0 0 11.4935 0 25.66C0 39.8348 11.4894 51.32 25.66 51.32C39.8306 51.32 51.32 39.8348 51.32 25.66C51.32 11.4935 39.8306 0 25.66 0ZM25.66 11.3815C28.06 11.3815 30.0056 13.3271 30.0056 15.7271C30.0056 18.1271 28.06 20.0727 25.66 20.0727C23.26 20.0727 21.3144 18.1271 21.3144 15.7271C21.3144 13.3271 23.26 11.3815 25.66 11.3815ZM31.4542 37.6623C31.4542 38.3479 30.8983 38.9039 30.2126 38.9039H21.1074C20.4217 38.9039 19.8658 38.3479 19.8658 37.6623V35.179C19.8658 34.4934 20.4217 33.9374 21.1074 33.9374H22.349V27.3155H21.1074C20.4217 27.3155 19.8658 26.7596 19.8658 26.0739V23.5906C19.8658 22.905 20.4217 22.349 21.1074 22.349H27.7294C28.415 22.349 28.971 22.905 28.971 23.5906V33.9374H30.2126C30.8983 33.9374 31.4542 34.4934 31.4542 35.179V37.6623Z" fill="#016FB9"/>
</svg>
