<svg width="52" height="52" viewBox="0 0 52 52" fill="none" xmlns="http://www.w3.org/2000/svg">
<path d="M50.6207 44.3683L40.6267 34.3763C40.1756 33.9252 39.5642 33.6747 38.9228 33.6747H37.289C40.0554 30.1365 41.6992 25.6872 41.6992 20.8461C41.6992 9.33052 32.3666 0 20.8501 0C9.33352 0 0 9.33052 0 20.8461C0 32.3616 9.33252 41.6921 20.8501 41.6921C25.6912 41.6921 30.1425 40.0484 33.6807 37.282V38.9157C33.6807 39.5572 33.9312 40.1686 34.3823 40.6197L44.3763 50.6117C45.3185 51.5539 46.842 51.5539 47.7742 50.6117L50.6107 47.7752C51.5529 46.833 51.5529 45.3105 50.6207 44.3683ZM20.8501 35.2773C12.8777 35.2773 6.4168 28.8285 6.4168 20.8461C6.4168 12.8747 12.8667 6.41479 20.8501 6.41479C28.8225 6.41479 35.2834 12.8637 35.2834 20.8461C35.2834 28.8175 28.8335 35.2773 20.8501 35.2773ZM20.8521 11.2259C16.7647 11.2259 13.451 14.5385 13.451 18.626C13.451 21.9296 18.2882 27.9525 20.1414 30.1385C20.2284 30.2425 20.3371 30.3262 20.4599 30.3836C20.5826 30.441 20.7165 30.4707 20.8521 30.4707C20.9876 30.4707 21.1215 30.441 21.2443 30.3836C21.3671 30.3262 21.4758 30.2425 21.5627 30.1385C23.416 27.9525 28.2532 21.9306 28.2532 18.626C28.2532 14.5385 24.9395 11.2259 20.8521 11.2259ZM20.8521 20.8481C19.523 20.8481 18.4465 19.7706 18.4465 18.4425C18.4465 17.1135 19.524 16.037 20.8521 16.037C22.1801 16.037 23.2576 17.1135 23.2576 18.4425C23.2576 19.7706 22.1801 20.8481 20.8521 20.8481Z" fill="#016FB9"/>
</svg>
