<svg width="52" height="52" viewBox="0 0 52 52" fill="none" xmlns="http://www.w3.org/2000/svg">
<path d="M25.66 0C11.488 0 0 11.488 0 25.66C0 39.832 11.488 51.32 25.66 51.32C39.832 51.32 51.32 39.832 51.32 25.66C51.32 11.488 39.832 0 25.66 0ZM24.4867 24.8561C24.1877 25.3548 23.6486 25.66 23.0671 25.66H23.035C22.5963 25.66 22.1752 25.8349 21.8648 26.1453L21.2792 26.7309C20.9564 27.0537 20.9564 27.5783 21.2792 27.9011L21.8648 28.4867C22.1752 28.7971 22.3501 29.2183 22.3501 29.657V30.6265C22.3501 31.5411 21.6092 32.2819 20.6946 32.2819H20.0624C19.4354 32.2819 18.8622 31.9281 18.5818 31.3662L16.2413 26.6864C15.9889 26.1815 15.3153 26.0718 14.9159 26.4712L12.9014 28.4847C12.591 28.7951 12.1699 28.9699 11.7312 28.9699H5.2572C5.08234 27.8897 4.96645 26.7899 4.96645 25.66C4.96645 14.2496 14.2496 4.96645 25.66 4.96645C27.8856 4.96645 30.0263 5.32962 32.0367 5.9825L26.8468 9.96912C26.3181 10.3219 26.3677 11.1135 26.9358 11.398L28.0563 11.9578C28.6171 12.2382 28.971 12.8114 28.971 13.4384V21.5213C28.971 21.9786 28.6006 22.349 28.1432 22.349H27.8266C27.5131 22.349 27.2265 22.1721 27.0868 21.8917C26.9254 21.5689 26.4702 21.5513 26.2839 21.8607L24.4867 24.8561ZM42.2148 36.2582C42.2148 36.6969 42.04 37.118 41.7296 37.4284L40.7394 38.4186C40.429 38.729 40.0079 38.9039 39.5692 38.9039H38.0006C37.5619 38.9039 37.1408 38.729 36.8304 38.4186L35.4843 37.0725C35.1461 36.7343 34.7261 36.4895 34.2651 36.3618C33.8042 36.2342 33.3181 36.2281 32.8541 36.3441L30.6534 36.8945C30.5219 36.9276 30.3874 36.9442 30.2519 36.9442H29.182C28.7433 36.9442 28.3222 36.7693 28.0118 36.4589L26.7795 35.2266C26.6244 35.0712 26.5373 34.8606 26.5374 34.641V33.5856C26.5374 33.2473 26.7433 32.9431 27.0578 32.8169L31.1283 31.1883C31.3331 31.1065 31.5277 31 31.7067 30.8727L34.1599 29.1251C34.3 29.0253 34.4679 28.9718 34.64 28.972H35.8909C36.2251 28.972 36.5272 29.1727 36.6555 29.4821L37.2091 30.8117C37.2405 30.887 37.2935 30.9514 37.3615 30.9967C37.4294 31.042 37.5092 31.0662 37.5909 31.0662H37.984C38.1682 31.0662 38.3307 30.9441 38.3814 30.7682L38.8159 29.271C38.8677 29.0941 39.0291 28.973 39.2132 28.973H39.8403C40.0689 28.973 40.2541 29.1582 40.2541 29.3869V30.7247C40.2541 30.9441 40.341 31.1552 40.4962 31.3104L41.7285 32.5427C42.0389 32.8531 42.2138 33.2742 42.2138 33.7129V36.2582H42.2148Z" fill="#016FB9"/>
</svg>
