<svg width="545" height="545" viewBox="0 0 545 545" fill="none" xmlns="http://www.w3.org/2000/svg">
<path d="M500.942 424.086C510.518 406.919 517.084 388.239 520.355 368.856C540.64 254.253 500.43 118.505 385.424 70.1524C345.781 53.4863 300.273 50.9793 259.18 63.8304C212.55 78.48 182.488 114.821 144.97 143.76C118.494 164.165 85.02 174.127 60.6694 197.377C34.9563 221.913 18.53 257.24 18.4101 292.916C18.3556 317.986 28.4926 342.434 48.9301 357.771C68.9316 372.791 94.3831 376.715 116.074 388.465C140.218 401.545 154.747 424.435 174.073 443.031C218.665 486.02 285.449 499.329 345.443 497.312C404.314 495.329 469.79 478.674 500.942 424.086Z" fill="#016FB9"/>
<path opacity="0.7" d="M500.942 424.086C510.518 406.919 517.084 388.239 520.355 368.856C540.64 254.253 500.43 118.505 385.424 70.1524C345.781 53.4863 300.273 50.9793 259.18 63.8304C212.55 78.48 182.488 114.821 144.97 143.76C118.494 164.165 85.02 174.127 60.6694 197.377C34.9563 221.913 18.53 257.24 18.4101 292.916C18.3556 317.986 28.4926 342.434 48.9301 357.771C68.9316 372.791 94.3831 376.715 116.074 388.465C140.218 401.545 154.747 424.435 174.073 443.031C218.665 486.02 285.449 499.329 345.443 497.312C404.314 495.329 469.79 478.674 500.942 424.086Z" fill="white"/>
<path d="M423.16 409.84C426.125 411.137 433.373 410.93 433.384 410.93C433.395 410.93 431.825 406.178 431.684 405.894C430.092 402.57 425.067 397.065 420.969 397.621C420.292 397.733 419.646 397.985 419.073 398.362C418.5 398.739 418.013 399.233 417.643 399.81C417.273 400.388 417.029 401.037 416.926 401.715C416.823 402.393 416.863 403.085 417.045 403.747C417.721 406.668 420.631 408.75 423.16 409.84Z" fill="#016FB9"/>
<path d="M425.667 430.877C428.741 431.335 435.215 429.449 435.728 429.307C436.794 433.023 438.105 436.664 439.652 440.207C440.545 442.268 441.505 444.317 442.497 446.355L441.287 444.622C438.867 441.832 432.567 437.864 428.763 439.477C428.137 439.761 427.578 440.173 427.123 440.688C426.668 441.202 426.326 441.806 426.121 442.462C425.915 443.117 425.85 443.808 425.929 444.49C426.009 445.172 426.231 445.83 426.583 446.42C427.989 448.982 431.346 450.246 434.082 450.639C436.818 451.031 442.398 449.549 443.892 449.145C444.284 449.919 444.655 450.704 445.047 451.478C446.922 455.217 448.808 458.934 450.552 462.629C451.162 463.937 451.718 465.245 452.274 466.553C451.751 465.779 451.304 465.136 451.184 465.049C448.764 462.258 442.464 458.28 438.66 459.904C438.035 460.189 437.478 460.602 437.024 461.116C436.57 461.631 436.229 462.235 436.023 462.89C435.817 463.545 435.752 464.235 435.831 464.917C435.909 465.599 436.13 466.256 436.48 466.847C437.886 469.398 441.254 470.662 443.979 471.065C446.704 471.469 451.751 470.117 453.495 469.637C454.029 470.989 454.585 472.352 455.021 473.681C455.315 474.608 455.664 475.469 455.904 476.406C456.143 477.344 456.416 478.248 456.667 479.153C457.092 480.919 457.539 482.739 457.909 484.472C458.171 485.671 458.411 486.827 458.639 487.982C458.051 486.685 456.83 484.156 456.699 483.949C454.737 480.832 449.069 475.949 445.102 476.962C444.442 477.151 443.829 477.476 443.303 477.917C442.776 478.357 442.349 478.904 442.048 479.521C441.746 480.137 441.578 480.811 441.554 481.497C441.53 482.183 441.651 482.866 441.908 483.502C442.911 486.249 446.05 488.004 448.677 488.811C451.587 489.693 458.007 488.887 458.814 488.811C459.195 490.729 459.555 492.604 459.904 494.37C460.591 498.283 461.114 501.782 461.506 504.746H464.209C463.741 501.683 463.119 498.021 462.313 493.923C461.92 491.972 461.473 489.901 460.994 487.764C462.932 486.993 464.821 486.105 466.651 485.105C468.766 487.404 474.183 490.086 474.88 490.424C474.139 492.233 473.409 493.988 472.7 495.634C471.196 499.089 469.779 502.174 468.526 504.746H471.447C472.537 502.348 473.714 499.612 474.957 496.593C475.709 494.751 476.483 492.767 477.257 490.729C478.031 490.892 484.396 492.19 487.361 491.514C490.042 490.914 493.301 489.388 494.5 486.729C494.804 486.114 494.975 485.442 495.003 484.756C495.03 484.071 494.913 483.387 494.659 482.75C494.405 482.113 494.02 481.536 493.529 481.057C493.038 480.579 492.452 480.208 491.808 479.971C487.895 478.663 481.911 483.11 479.72 486.075C479.589 486.249 478.401 488.309 477.671 489.617C477.987 488.778 478.292 487.971 478.608 487.11C479.23 485.41 479.807 483.688 480.429 481.845L481.246 479.11C481.54 478.205 481.737 477.202 481.987 476.243C482.51 474.008 482.946 471.719 483.328 469.398C484.821 469.943 490.151 471.796 492.909 471.578C495.667 471.36 499.111 470.379 500.703 467.937C501.097 467.374 501.368 466.735 501.499 466.06C501.63 465.386 501.618 464.691 501.463 464.022C501.307 463.353 501.013 462.723 500.598 462.175C500.184 461.627 499.659 461.173 499.057 460.841C495.383 458.945 488.8 462.443 486.184 465.049C486.031 465.201 484.363 467.229 483.47 468.438C483.688 467.043 483.906 465.659 484.091 464.242C484.592 460.144 484.985 455.98 485.388 451.827C485.508 450.552 485.65 449.287 485.78 448.023C486.315 448.219 492.604 450.562 495.689 450.344C498.446 450.148 501.891 449.145 503.482 446.693C503.876 446.131 504.148 445.493 504.279 444.819C504.409 444.145 504.397 443.451 504.241 442.783C504.086 442.114 503.792 441.486 503.377 440.939C502.963 440.392 502.438 439.938 501.836 439.608C498.163 437.711 491.579 441.21 488.963 443.804C488.767 444.001 486.38 446.998 485.802 447.794C486.097 445.003 486.424 442.224 486.892 439.499C487.446 435.818 488.24 432.177 489.268 428.599C489.519 428.686 496.07 431.16 499.242 430.942C501.989 430.746 505.433 429.733 507.025 427.291C507.419 426.73 507.691 426.092 507.823 425.419C507.955 424.745 507.943 424.052 507.789 423.383C507.634 422.715 507.341 422.087 506.928 421.539C506.514 420.992 505.99 420.537 505.39 420.206C501.716 418.309 495.133 421.797 492.517 424.402C492.31 424.61 489.737 427.825 489.312 428.446C489.312 428.239 489.41 428.021 489.476 427.814C490.618 424.247 492.077 420.788 493.836 417.481C494.773 415.65 495.776 413.938 496.779 412.303C497.956 412.892 503.319 415.508 506.218 415.628C509.117 415.748 512.507 415.105 514.36 412.859C514.813 412.344 515.153 411.739 515.357 411.084C515.561 410.429 515.625 409.738 515.545 409.057C515.465 408.375 515.242 407.718 514.891 407.128C514.541 406.538 514.07 406.029 513.51 405.633C510.066 403.344 503.144 406.09 500.256 408.39C500.092 408.51 498.642 409.96 497.596 411.028C498.065 410.298 498.533 409.535 499.002 408.848C500.724 406.243 502.468 403.965 504.027 401.959C504.921 400.869 505.76 399.779 506.545 398.886C507.995 398.886 513.848 398.678 516.355 397.479C518.862 396.28 521.707 394.122 522.306 391.277C522.47 390.611 522.492 389.917 522.371 389.241C522.249 388.566 521.988 387.923 521.602 387.355C521.217 386.787 520.717 386.306 520.134 385.943C519.551 385.581 518.899 385.344 518.219 385.25C514.11 384.814 509.226 390.438 507.733 393.817C507.602 394.1 506.098 398.896 506.174 398.896H506.262C505.477 399.779 504.659 400.739 503.776 401.807C502.174 403.78 500.376 406.025 498.577 408.597C496.617 411.35 494.819 414.214 493.192 417.176C491.352 420.486 489.813 423.956 488.593 427.542C488.597 427.585 488.597 427.629 488.593 427.672C488.593 426.463 488.593 423.073 488.527 422.811C488.059 419.16 484.996 412.369 480.897 411.617C480.219 411.51 479.525 411.548 478.862 411.727C478.199 411.907 477.581 412.224 477.048 412.657C476.516 413.091 476.08 413.632 475.771 414.246C475.461 414.859 475.284 415.53 475.251 416.217C475.022 419.116 477.126 422.026 479.175 423.847C481.497 425.918 487.895 427.923 488.44 428.076C487.288 431.754 486.381 435.504 485.726 439.303C485.334 441.483 485.007 443.75 484.701 445.995C484.701 444.905 484.701 444.012 484.647 443.881C484.178 440.229 481.104 433.439 477.017 432.686C476.339 432.58 475.646 432.618 474.983 432.797C474.321 432.977 473.703 433.294 473.172 433.728C472.64 434.162 472.206 434.703 471.897 435.316C471.589 435.929 471.413 436.601 471.382 437.286C471.142 440.186 473.256 443.096 475.306 444.916C477.355 446.737 482.848 448.6 484.287 449.058C484.189 449.919 484.069 450.78 483.971 451.652C483.47 455.794 482.99 459.936 482.401 463.98C482.194 465.408 481.944 466.803 481.682 468.199C481.682 467.272 481.682 466.487 481.682 466.367C481.202 462.716 478.14 455.925 474.052 455.173C473.374 455.067 472.681 455.104 472.019 455.284C471.356 455.463 470.739 455.78 470.207 456.214C469.675 456.648 469.241 457.19 468.932 457.803C468.624 458.416 468.448 459.087 468.417 459.773C468.177 462.672 470.281 465.583 472.341 467.403C474.401 469.223 479.349 470.902 481.061 471.458C480.766 472.886 480.461 474.314 480.112 475.676C479.84 476.603 479.655 477.518 479.339 478.434C479.022 479.349 478.75 480.254 478.456 481.148C477.834 482.859 477.213 484.625 476.559 486.271C476.123 487.415 475.676 488.505 475.24 489.606C475.458 488.189 475.84 485.399 475.84 485.17C475.802 481.922 474.927 478.738 473.3 475.927C473.311 475.562 473.29 475.197 473.235 474.837C473.148 474.156 472.918 473.501 472.562 472.915C472.205 472.328 471.73 471.823 471.165 471.433C470.601 471.042 469.961 470.774 469.286 470.647C468.612 470.52 467.918 470.536 467.25 470.695C463.261 471.785 460.71 478.761 460.536 482.445C460.536 482.663 460.667 485.039 460.787 486.532C460.58 485.66 460.394 484.821 460.176 483.927C459.762 482.162 459.293 480.407 458.792 478.477C458.52 477.584 458.247 476.668 457.964 475.752C457.68 474.837 457.321 473.899 457.004 472.962C456.209 470.782 455.304 468.602 454.345 466.498C455.893 466.128 461.364 464.743 463.555 463.054C465.746 461.364 468.057 458.628 468.035 455.718C468.056 455.032 467.931 454.348 467.67 453.713C467.409 453.078 467.016 452.505 466.518 452.032C466.02 451.559 465.428 451.196 464.781 450.967C464.133 450.738 463.444 450.649 462.76 450.704C458.65 451.151 455.13 457.702 454.345 461.31C454.345 461.539 454.051 464.187 453.942 465.67C453.353 464.384 452.775 463.097 452.143 461.822C450.312 458.127 448.339 454.432 446.377 450.748C445.777 449.658 445.2 448.491 444.611 447.358C445.167 447.238 451.696 445.723 454.16 443.826C456.34 442.159 458.661 439.412 458.639 436.491C458.659 435.805 458.533 435.123 458.271 434.489C458.009 433.855 457.616 433.283 457.118 432.811C456.621 432.339 456.029 431.978 455.382 431.749C454.735 431.521 454.048 431.432 453.364 431.487C449.255 431.934 445.734 438.474 444.949 442.093C444.884 442.366 444.546 446.181 444.502 447.151C443.205 444.666 441.941 442.169 440.796 439.662C439.229 436.28 437.881 432.799 436.763 429.242C437.025 429.188 443.848 427.64 446.366 425.7C448.546 424.021 450.879 421.285 450.857 418.364C450.876 417.677 450.75 416.994 450.487 416.359C450.225 415.725 449.831 415.153 449.332 414.68C448.833 414.208 448.24 413.847 447.592 413.619C446.944 413.392 446.255 413.304 445.57 413.361C441.461 413.808 437.94 420.348 437.156 423.956C437.09 424.25 436.73 428.316 436.709 429.1C436.709 428.893 436.556 428.686 436.502 428.479C435.457 424.881 434.735 421.196 434.343 417.47C434.114 415.421 434.005 413.448 433.951 411.53C435.248 411.366 441.189 410.57 443.652 409.088C446.115 407.606 448.611 405.186 448.917 402.286C449.012 401.606 448.963 400.913 448.772 400.253C448.581 399.594 448.254 398.981 447.81 398.457C447.367 397.932 446.818 397.507 446.199 397.209C445.58 396.911 444.905 396.747 444.219 396.727C440.088 396.727 435.826 402.831 434.681 406.341C434.616 406.537 434.202 408.521 433.929 410.014C433.929 409.142 433.929 408.249 433.929 407.409C433.929 404.292 434.136 401.425 434.332 398.896C434.452 397.458 434.594 396.161 434.736 394.951C435.935 394.122 440.709 390.754 442.18 388.334C443.652 385.915 444.72 382.59 443.63 379.909C443.4 379.261 443.036 378.67 442.562 378.172C442.088 377.675 441.515 377.283 440.879 377.022C440.244 376.761 439.561 376.636 438.874 376.657C438.187 376.677 437.513 376.842 436.894 377.14C433.221 379.037 432.261 386.427 432.872 390.067C432.872 390.384 434.311 395.212 434.365 395.169L434.441 395.114C434.278 396.28 434.125 397.534 433.973 398.907C433.722 401.436 433.46 404.303 433.384 407.442C433.271 410.819 433.355 414.2 433.635 417.568C433.926 421.344 434.554 425.087 435.51 428.752C435.505 428.795 435.505 428.839 435.51 428.882C434.856 427.858 432.937 425.067 432.774 424.86C430.354 422.081 424.054 418.102 420.25 419.715C419.625 420.002 419.067 420.416 418.613 420.931C418.159 421.447 417.818 422.052 417.612 422.707C417.407 423.363 417.341 424.055 417.42 424.737C417.499 425.42 417.72 426.078 418.07 426.67C419.574 429.22 422.92 430.485 425.667 430.877Z" fill="#016FB9"/>
<path d="M496.517 411.475C496.582 411.475 497.836 406.646 497.879 406.33C498.392 402.679 497.225 395.321 493.519 393.523C492.893 393.241 492.214 393.094 491.528 393.092C490.841 393.09 490.161 393.232 489.533 393.509C488.905 393.787 488.342 394.194 487.882 394.703C487.421 395.212 487.073 395.813 486.859 396.466C485.868 399.213 487.132 402.57 488.625 404.891C490.369 407.66 496.517 411.464 496.517 411.475Z" fill="#016FB9"/>
<path d="M30.9888 409.84C33.9536 411.137 41.213 410.93 41.213 410.93C41.213 410.93 39.6543 406.178 39.5235 405.894C37.9321 402.57 32.8963 397.065 28.7979 397.621C28.1211 397.733 27.4752 397.985 26.9022 398.362C26.3293 398.739 25.842 399.233 25.472 399.81C25.102 400.388 24.8575 401.037 24.7545 401.715C24.6515 402.393 24.6921 403.085 24.8739 403.747C25.5606 406.668 28.4709 408.75 30.9888 409.84Z" fill="#016FB9"/>
<path d="M33.4959 430.877C36.5697 431.335 43.0443 429.449 43.5566 429.307C44.6234 433.023 45.9342 436.664 47.4806 440.207C48.3744 442.267 49.3336 444.317 50.3255 446.355C49.7369 445.494 49.2355 444.731 49.1156 444.622C46.6958 441.831 40.3956 437.864 36.5915 439.477C35.9672 439.762 35.4098 440.175 34.9556 440.69C34.5013 441.204 34.1603 441.808 33.9547 442.463C33.7491 443.118 33.6836 443.809 33.7623 444.49C33.841 445.172 34.0622 445.83 34.4115 446.42C35.8176 448.982 39.1857 450.246 41.9107 450.639C44.6357 451.031 50.2274 449.549 51.7207 449.145C52.1131 449.919 52.4837 450.704 52.8761 451.478C54.7509 455.217 56.6366 458.934 58.3261 462.629C58.9365 463.937 59.4924 465.245 60.0592 466.553C59.5251 465.779 59.0782 465.136 58.9692 465.048C56.5603 462.258 50.2492 458.28 46.4451 459.904C45.8208 460.189 45.2634 460.602 44.8092 461.116C44.3549 461.631 44.0139 462.235 43.8083 462.89C43.6027 463.544 43.5372 464.235 43.6159 464.917C43.6946 465.599 43.9158 466.256 44.2651 466.847C45.6712 469.398 49.0393 470.662 51.7643 471.065C54.4893 471.469 59.5469 470.117 61.28 469.637C61.8141 470.989 62.37 472.351 62.8169 473.681C63.1003 474.608 63.4491 475.469 63.6889 476.406C63.9287 477.344 64.2012 478.248 64.4519 479.153C64.877 480.919 65.3239 482.739 65.6945 484.472C65.967 485.671 66.1959 486.827 66.4357 487.982C65.8362 486.685 64.6154 484.156 64.4955 483.949C62.5226 480.832 56.8655 475.948 52.8979 476.962C52.2379 477.151 51.6249 477.476 51.0988 477.917C50.5727 478.357 50.1451 478.904 49.8439 479.521C49.5427 480.137 49.3746 480.811 49.3506 481.497C49.3265 482.182 49.447 482.866 49.7042 483.502C50.6961 486.249 53.8353 488.004 56.4731 488.81C59.3725 489.693 65.7926 488.887 66.5992 488.81C66.9807 490.729 67.3404 492.604 67.6892 494.369C68.3759 498.283 68.8991 501.781 69.2915 504.746H72.0056C71.526 501.683 70.9156 498.021 70.0981 493.923C69.7166 491.971 69.2697 489.9 68.7792 487.764C70.7306 486.979 72.6309 486.073 74.469 485.05C76.5836 487.35 82.0009 490.031 82.6985 490.369C81.9682 492.179 81.227 493.933 80.5185 495.579C79.0252 499.035 77.5973 502.119 76.3438 504.692H79.2759C80.3659 502.294 81.5431 499.558 82.7748 496.539C83.5378 494.696 84.3008 492.713 85.0747 490.674C85.8595 490.838 92.2142 492.135 95.179 491.459C97.8604 490.86 101.119 489.334 102.329 486.674C102.633 486.058 102.803 485.386 102.83 484.7C102.857 484.014 102.739 483.33 102.484 482.693C102.229 482.055 101.843 481.479 101.35 481C100.858 480.522 100.271 480.153 99.6262 479.916C95.7131 478.608 89.729 483.055 87.5381 486.02C87.4073 486.194 86.2192 488.255 85.4889 489.563C85.805 488.723 86.1211 487.917 86.4263 487.056C87.0476 485.355 87.6253 483.633 88.2466 481.791L89.0641 479.055C89.3584 478.15 89.5546 477.147 89.8053 476.188C90.3394 473.954 90.7645 471.665 91.146 469.343C92.6393 469.888 97.9694 471.741 100.738 471.523C103.507 471.305 106.929 470.324 108.521 467.882C108.914 467.32 109.185 466.681 109.315 466.007C109.446 465.334 109.434 464.64 109.28 463.971C109.126 463.302 108.833 462.673 108.421 462.125C108.008 461.576 107.485 461.12 106.886 460.787C103.212 458.89 96.6287 462.389 94.0127 464.994C93.8492 465.147 92.1815 467.174 91.2877 468.384C91.5057 466.989 91.7346 465.604 91.909 464.187C92.4213 460.089 92.8028 455.925 93.2061 451.772C93.326 450.497 93.4677 449.233 93.5985 447.968C94.1326 448.164 100.422 450.508 103.517 450.29C106.264 450.094 109.709 449.091 111.3 446.638C111.694 446.077 111.966 445.438 112.097 444.764C112.227 444.091 112.215 443.397 112.06 442.728C111.904 442.06 111.61 441.431 111.195 440.884C110.781 440.337 110.256 439.884 109.654 439.553C105.992 437.657 99.4082 441.156 96.7922 443.75C96.596 443.946 94.198 446.944 93.6312 447.739C93.9255 444.949 94.2416 442.169 94.7212 439.444C95.2789 435.763 96.0762 432.122 97.1083 428.544C97.3481 428.632 103.899 431.106 107.071 430.888C109.818 430.692 113.273 429.678 114.864 427.236C115.259 426.675 115.53 426.036 115.661 425.362C115.792 424.689 115.779 423.995 115.624 423.326C115.469 422.658 115.174 422.029 114.76 421.482C114.345 420.935 113.82 420.482 113.218 420.151C109.545 418.255 102.962 421.743 100.346 424.348C100.138 424.555 97.5661 427.77 97.141 428.392C97.2064 428.185 97.2391 427.967 97.3045 427.76C98.4467 424.192 99.9059 420.734 101.664 417.426C102.602 415.595 103.605 413.884 104.618 412.249C105.785 412.837 111.158 415.453 114.047 415.573C116.935 415.693 120.347 415.05 122.189 412.805C122.644 412.29 122.985 411.685 123.19 411.03C123.395 410.375 123.459 409.683 123.379 409.001C123.299 408.319 123.076 407.662 122.724 407.072C122.373 406.482 121.901 405.973 121.339 405.578C117.895 403.289 110.973 406.036 108.085 408.336C107.932 408.456 106.471 409.905 105.436 410.974C105.894 410.243 106.362 409.48 106.831 408.794C108.553 406.188 110.297 403.91 111.856 401.905C112.761 400.815 113.589 399.725 114.374 398.831C115.834 398.831 121.677 398.624 124.184 397.425C126.691 396.226 129.536 394.068 130.135 391.223C130.303 390.556 130.327 389.861 130.207 389.184C130.088 388.507 129.826 387.863 129.44 387.294C129.054 386.725 128.553 386.244 127.968 385.882C127.384 385.521 126.729 385.286 126.048 385.195C121.938 384.759 117.066 390.383 115.562 393.762C115.431 394.046 113.927 398.842 114.003 398.842H114.09C113.306 399.725 112.488 400.684 111.605 401.752C110.003 403.725 108.204 405.97 106.417 408.543C104.435 411.294 102.615 414.158 100.967 417.121C99.1355 420.436 97.5965 423.905 96.3671 427.487V427.618C96.3671 426.408 96.3671 423.018 96.3017 422.756C95.8221 419.105 92.7592 412.314 88.6717 411.562C87.9936 411.456 87.3007 411.493 86.6382 411.673C85.9756 411.852 85.3583 412.169 84.8266 412.603C84.2948 413.037 83.8606 413.579 83.5521 414.192C83.2437 414.805 83.0679 415.476 83.0364 416.162C82.7966 419.061 84.9003 421.972 86.9604 423.792C89.2712 425.863 95.6804 427.869 96.2254 428.021C95.0643 431.698 94.1539 435.449 93.5004 439.248C93.108 441.428 92.781 443.695 92.4758 445.941C92.4758 444.851 92.4758 443.957 92.4758 443.826C92.0071 440.175 88.9333 433.384 84.8458 432.632C84.1671 432.526 83.4737 432.563 82.8106 432.743C82.1474 432.922 81.5295 433.239 80.9969 433.673C80.4643 434.106 80.029 434.648 79.7194 435.261C79.4097 435.874 79.2326 436.546 79.1996 437.232C78.9598 440.131 81.0744 443.041 83.1236 444.862C85.1728 446.682 90.6664 448.546 92.1161 449.004C92.0071 449.865 91.8872 450.726 91.7891 451.598C91.2877 455.74 90.819 459.882 90.2195 463.926C90.0124 465.354 89.7617 466.749 89.511 468.144C89.511 467.218 89.511 466.433 89.511 466.313C89.0314 462.661 85.9685 455.871 81.881 455.119C81.2029 455.012 80.51 455.05 79.8475 455.229C79.1849 455.409 78.5676 455.726 78.0359 456.16C77.5041 456.594 77.0699 457.135 76.7614 457.748C76.453 458.361 76.2772 459.033 76.2457 459.718C76.0059 462.618 78.1205 465.528 80.1697 467.348C82.2189 469.169 87.1784 470.847 88.8897 471.403C88.5845 472.831 88.2793 474.259 87.9305 475.621C87.6689 476.548 87.4727 477.464 87.1566 478.379C86.8405 479.295 86.568 480.199 86.2846 481.093C85.6633 482.805 85.0311 484.57 84.3771 486.216C83.9411 487.361 83.4942 488.451 83.0582 489.552C83.2762 488.135 83.6577 485.344 83.6686 485.115C83.6212 481.867 82.7431 478.685 81.118 475.872C81.1295 475.508 81.1076 475.143 81.0526 474.782C80.9656 474.101 80.7365 473.446 80.38 472.86C80.0235 472.274 79.5476 471.769 78.9833 471.378C78.419 470.987 77.7788 470.72 77.1044 470.593C76.4299 470.466 75.7363 470.482 75.0685 470.64C71.0791 471.73 68.5285 478.706 68.3541 482.39C68.3541 482.608 68.4849 484.985 68.6048 486.478C68.3977 485.606 68.2124 484.767 67.9944 483.873C67.5802 482.107 67.1115 480.352 66.6101 478.423C66.3376 477.529 66.0651 476.613 65.7817 475.698C65.4983 474.782 65.1386 473.845 64.8225 472.907C64.0268 470.727 63.1221 468.547 62.1629 466.444C63.7107 466.073 69.1825 464.689 71.3734 462.999C73.5643 461.31 75.886 458.574 75.8642 455.664C75.8816 454.977 75.7545 454.294 75.4913 453.66C75.2281 453.025 74.8345 452.453 74.3362 451.981C73.8378 451.508 73.2458 451.145 72.5983 450.916C71.9508 450.687 71.2625 450.596 70.5777 450.65C66.4684 451.096 62.9477 457.647 62.1629 461.255C62.1629 461.484 61.8686 464.133 61.7705 465.615C61.1819 464.329 60.6042 463.043 59.9611 461.768C58.1299 458.072 56.157 454.377 54.2059 450.693C53.6064 449.603 53.0178 448.437 52.4292 447.303C52.9851 447.183 59.5251 445.668 61.9776 443.772C64.1576 442.104 66.4902 439.357 66.4684 436.436C66.4876 435.749 66.3618 435.066 66.099 434.432C65.8363 433.797 65.4426 433.225 64.9437 432.753C64.4447 432.28 63.8518 431.919 63.2036 431.691C62.5554 431.464 61.8665 431.376 61.1819 431.433C57.0726 431.88 53.5519 438.42 52.7671 442.039C52.7671 442.311 52.3638 446.126 52.3202 447.096C51.034 444.611 49.7696 442.115 48.6142 439.608C47.0466 436.225 45.6995 432.744 44.5812 429.187C44.8428 429.133 51.6662 427.585 54.1841 425.645C56.3641 423.966 58.6967 421.23 58.6749 418.309C58.6941 417.623 58.5683 416.94 58.3055 416.305C58.0428 415.67 57.6491 415.098 57.1502 414.626C56.6512 414.154 56.0583 413.792 55.4101 413.565C54.7619 413.337 54.073 413.249 53.3884 413.306C49.2791 413.753 45.7584 420.293 44.9736 423.901C44.9191 424.195 44.5485 428.261 44.5376 429.046C44.4722 428.839 44.385 428.632 44.3196 428.424C43.2822 424.843 42.5636 421.178 42.1723 417.47C41.9434 415.421 41.8344 413.448 41.7799 411.529C43.077 411.366 49.0175 410.57 51.4809 409.088C53.9443 407.605 56.4404 405.186 56.7456 402.286C56.8409 401.606 56.7917 400.913 56.6011 400.253C56.4104 399.593 56.0827 398.981 55.6394 398.457C55.196 397.932 54.6469 397.507 54.028 397.209C53.4091 396.911 52.7343 396.747 52.0477 396.727C47.9166 396.727 43.6547 402.831 42.5102 406.341C42.5102 406.537 42.0415 408.521 41.7581 410.014C41.7581 409.142 41.7581 408.249 41.7581 407.409C41.7581 404.292 41.9652 401.425 42.1614 398.896C42.2813 397.458 42.423 396.16 42.5647 394.951C43.7637 394.122 48.5379 390.754 50.0094 388.334C51.4809 385.914 52.6145 382.59 51.5463 379.876C51.3135 379.226 50.9458 378.632 50.4673 378.134C49.9889 377.637 49.4104 377.246 48.7701 376.987C48.1297 376.729 47.442 376.609 46.7519 376.635C46.0619 376.661 45.3853 376.834 44.7665 377.14C41.1041 379.037 40.134 386.427 40.7444 390.067C40.7444 390.383 42.1832 395.212 42.2486 395.169L42.314 395.114C42.1505 396.28 41.9979 397.534 41.8453 398.907C41.5946 401.436 41.333 404.303 41.2676 407.442C41.1456 410.819 41.2257 414.201 41.5074 417.568C41.7989 421.344 42.4263 425.087 43.3822 428.751V428.882C42.7282 427.858 40.8207 425.067 40.6463 424.86C38.2265 422.081 31.9263 418.102 28.1222 419.715C27.4975 420.002 26.94 420.416 26.4857 420.931C26.0313 421.447 25.6904 422.052 25.4848 422.707C25.2793 423.363 25.2138 424.055 25.2926 424.737C25.3714 425.42 25.5927 426.078 25.9422 426.67C27.4028 429.22 30.7709 430.485 33.4959 430.877Z" fill="#016FB9"/>
<path d="M104.346 411.475C104.411 411.475 105.665 406.646 105.708 406.33C106.221 402.679 105.054 395.321 101.348 393.523C100.722 393.241 100.043 393.094 99.3567 393.092C98.6699 393.09 97.9904 393.232 97.3622 393.509C96.7341 393.787 96.1714 394.194 95.7107 394.703C95.25 395.212 94.9017 395.813 94.6884 396.466C93.6965 399.213 94.9609 402.57 96.4542 404.891C98.2091 407.66 104.346 411.464 104.346 411.475Z" fill="#016FB9"/>
<path d="M500.31 504.67H515.57" stroke="#263238" stroke-linecap="round" stroke-linejoin="round"/>
<path d="M216.91 504.67H485.05" stroke="#263238" stroke-linecap="round" stroke-linejoin="round"/>
<path d="M41.4199 504.67H206.01" stroke="#263238" stroke-linecap="round" stroke-linejoin="round"/>
<path opacity="0.1" d="M138.561 92.0287C138.561 100.607 123.006 118.548 123.006 118.548C123.006 118.548 107.463 100.607 107.463 92.0287C107.57 87.9762 109.256 84.1256 112.16 81.2972C115.064 78.4689 118.958 76.8861 123.012 76.8861C127.066 76.8861 130.96 78.4689 133.864 81.2972C136.768 84.1256 138.453 87.9762 138.561 92.0287ZM287.596 388.28C285.555 388.278 283.533 388.679 281.647 389.46C279.76 390.241 278.046 391.386 276.602 392.829C275.159 394.273 274.014 395.987 273.233 397.873C272.453 399.76 272.052 401.782 272.053 403.823C272.053 412.401 287.596 430.343 287.596 430.343C287.596 430.343 303.14 412.401 303.14 403.823C303.14 399.701 301.502 395.747 298.587 392.832C295.672 389.917 291.719 388.28 287.596 388.28ZM417.47 32.591C413.348 32.591 409.394 34.2286 406.479 37.1436C403.564 40.0585 401.927 44.012 401.927 48.1344C401.894 56.68 417.47 74.6541 417.47 74.6541C417.47 74.6541 432.981 56.68 432.981 48.1344C432.978 44.0186 431.344 40.0717 428.436 37.1583C425.529 34.2449 421.586 32.6025 417.47 32.591ZM71.8091 237.413C69.7676 237.411 67.7457 237.813 65.8593 238.593C63.9728 239.374 62.2587 240.519 60.8151 241.962C59.3715 243.406 58.2266 245.12 57.446 247.006C56.6654 248.893 56.2643 250.915 56.2658 252.956C56.2658 261.535 71.8091 279.465 71.8091 279.465C71.8091 279.465 87.3525 261.535 87.3525 252.956C87.3525 248.834 85.7149 244.88 82.8 241.965C79.885 239.051 75.9315 237.413 71.8091 237.413ZM485.094 231.963C480.985 231.966 477.045 233.594 474.133 236.492C471.221 239.389 469.573 243.322 469.55 247.43C469.55 256.019 485.094 273.95 485.094 273.95C485.094 273.95 500.637 256.052 500.637 247.43C500.633 245.388 500.226 243.367 499.44 241.482C498.654 239.597 497.505 237.885 496.057 236.445C494.61 235.004 492.893 233.863 491.004 233.087C489.115 232.31 487.092 231.914 485.05 231.919L485.094 231.963ZM417.47 54.718H410.93C410.641 54.718 410.364 54.6032 410.159 54.3988C409.955 54.1943 409.84 53.9171 409.84 53.628C409.84 53.3389 409.955 53.0617 410.159 52.8573C410.364 52.6528 410.641 52.538 410.93 52.538H417.47C417.759 52.538 418.036 52.6528 418.241 52.8573C418.445 53.0617 418.56 53.3389 418.56 53.628C418.56 53.9171 418.445 54.1943 418.241 54.3988C418.036 54.6032 417.759 54.718 417.47 54.718ZM350.686 409.306C350.686 409.017 350.571 408.74 350.366 408.535C350.162 408.331 349.885 408.216 349.596 408.216H336.516C336.227 408.216 335.949 408.331 335.745 408.535C335.54 408.74 335.426 409.017 335.426 409.306C335.426 409.595 335.54 409.872 335.745 410.077C335.949 410.281 336.227 410.396 336.516 410.396H349.596C349.885 410.396 350.162 410.281 350.366 410.077C350.571 409.872 350.686 409.595 350.686 409.306ZM324.635 409.306C324.635 409.017 324.52 408.74 324.315 408.535C324.111 408.331 323.834 408.216 323.545 408.216H310.53C310.241 408.216 309.964 408.331 309.759 408.535C309.555 408.74 309.44 409.017 309.44 409.306C309.44 409.595 309.555 409.872 309.759 410.077C309.964 410.281 310.241 410.396 310.53 410.396H323.545C323.834 410.396 324.111 410.281 324.315 410.077C324.52 409.872 324.635 409.595 324.635 409.306ZM362.719 410.298C367.366 409.805 371.652 407.565 374.709 404.03C374.898 403.812 374.993 403.527 374.973 403.239C374.952 402.951 374.818 402.683 374.6 402.493C374.382 402.304 374.097 402.209 373.809 402.23C373.521 402.25 373.253 402.384 373.063 402.602C370.369 405.715 366.594 407.69 362.501 408.129C362.358 408.137 362.218 408.173 362.089 408.235C361.959 408.297 361.844 408.384 361.748 408.49C361.652 408.597 361.579 408.722 361.531 408.857C361.484 408.992 361.463 409.135 361.471 409.279C361.479 409.422 361.515 409.562 361.577 409.691C361.639 409.82 361.726 409.936 361.833 410.032C361.94 410.127 362.064 410.201 362.199 410.249C362.335 410.296 362.478 410.317 362.621 410.309L362.719 410.298ZM298.66 408.532C298.718 408.4 298.749 408.259 298.752 408.115C298.754 407.971 298.729 407.828 298.676 407.695C298.623 407.561 298.545 407.439 298.445 407.336C298.345 407.232 298.225 407.15 298.093 407.093C296.229 406.297 294.561 405.104 293.204 403.598C291.847 402.093 290.833 400.31 290.234 398.373C290.191 398.236 290.121 398.109 290.028 398C289.936 397.89 289.822 397.799 289.695 397.733C289.567 397.668 289.428 397.628 289.285 397.616C289.142 397.604 288.998 397.621 288.861 397.665C288.587 397.752 288.359 397.945 288.226 398.2C288.093 398.455 288.067 398.753 288.152 399.027C288.851 401.256 290.024 403.306 291.592 405.037C293.159 406.769 295.084 408.139 297.232 409.055C297.366 409.115 297.511 409.145 297.657 409.142C297.865 409.147 298.07 409.092 298.248 408.984C298.425 408.876 298.568 408.719 298.66 408.532ZM379.211 391.31V378.306C379.211 378.017 379.096 377.74 378.892 377.536C378.687 377.331 378.41 377.216 378.121 377.216C377.832 377.216 377.555 377.331 377.35 377.536C377.146 377.74 377.031 378.017 377.031 378.306V391.31C377.031 391.599 377.146 391.876 377.35 392.081C377.555 392.285 377.832 392.4 378.121 392.4C378.41 392.4 378.687 392.285 378.892 392.081C379.096 391.876 379.211 391.599 379.211 391.31ZM289.602 385.784V376.835C289.601 375.423 289.495 374.013 289.286 372.616C289.265 372.475 289.216 372.339 289.142 372.216C289.068 372.093 288.97 371.986 288.855 371.901C288.739 371.816 288.608 371.754 288.469 371.72C288.33 371.686 288.185 371.679 288.043 371.701C287.902 371.722 287.765 371.771 287.643 371.845C287.52 371.919 287.413 372.017 287.328 372.132C287.243 372.248 287.181 372.379 287.147 372.518C287.113 372.657 287.106 372.802 287.128 372.943C287.324 374.231 287.423 375.532 287.422 376.835V385.784C287.422 386.073 287.537 386.35 287.741 386.554C287.946 386.759 288.223 386.874 288.512 386.874C288.801 386.874 289.078 386.759 289.283 386.554C289.487 386.35 289.602 386.073 289.602 385.784ZM379.211 365.27V352.255C379.211 351.966 379.096 351.689 378.892 351.485C378.687 351.28 378.41 351.165 378.121 351.165C377.832 351.165 377.555 351.28 377.35 351.485C377.146 351.689 377.031 351.966 377.031 352.255V365.281C377.031 365.57 377.146 365.847 377.35 366.052C377.555 366.256 377.832 366.371 378.121 366.371C378.41 366.371 378.687 366.256 378.892 366.052C379.096 365.847 379.211 365.57 379.211 365.281V365.27ZM283.923 361.749C284.038 361.664 284.136 361.557 284.21 361.434C284.284 361.312 284.333 361.175 284.354 361.034C284.375 360.892 284.368 360.747 284.334 360.608C284.299 360.469 284.237 360.338 284.152 360.223C281.462 356.573 277.933 353.623 273.862 351.623C273.733 351.547 273.59 351.499 273.441 351.481C273.292 351.463 273.141 351.476 272.998 351.519C272.854 351.563 272.721 351.635 272.607 351.732C272.492 351.829 272.399 351.948 272.333 352.082C272.267 352.217 272.229 352.364 272.222 352.513C272.215 352.663 272.239 352.813 272.293 352.953C272.346 353.093 272.428 353.22 272.533 353.327C272.638 353.434 272.764 353.518 272.903 353.574C276.66 355.422 279.917 358.147 282.397 361.52C282.482 361.636 282.589 361.733 282.712 361.807C282.835 361.881 282.971 361.93 283.113 361.951C283.254 361.973 283.399 361.966 283.538 361.931C283.677 361.896 283.808 361.835 283.923 361.749ZM261.872 349.89C261.872 349.601 261.758 349.324 261.553 349.119C261.349 348.915 261.072 348.8 260.782 348.8H247.768C247.479 348.8 247.202 348.915 246.997 349.119C246.793 349.324 246.678 349.601 246.678 349.89C246.678 350.179 246.793 350.456 246.997 350.661C247.202 350.865 247.479 350.98 247.768 350.98H260.782C261.072 350.98 261.349 350.865 261.553 350.661C261.758 350.456 261.872 350.179 261.872 349.89ZM235.832 349.89C235.832 349.601 235.717 349.324 235.513 349.119C235.309 348.915 235.031 348.8 234.742 348.8H221.662C221.373 348.8 221.096 348.915 220.892 349.119C220.687 349.324 220.572 349.601 220.572 349.89C220.572 350.179 220.687 350.456 220.892 350.661C221.096 350.865 221.373 350.98 221.662 350.98H234.742C235.031 350.98 235.309 350.865 235.513 350.661C235.717 350.456 235.832 350.179 235.832 349.89ZM209.792 349.89C209.792 349.601 209.677 349.324 209.473 349.119C209.269 348.915 208.991 348.8 208.702 348.8H195.677C195.388 348.8 195.11 348.915 194.906 349.119C194.702 349.324 194.587 349.601 194.587 349.89C194.587 350.179 194.702 350.456 194.906 350.661C195.11 350.865 195.388 350.98 195.677 350.98H208.702C208.991 350.98 209.269 350.865 209.473 350.661C209.677 350.456 209.792 350.179 209.792 349.89ZM183.752 349.89C183.752 349.601 183.637 349.324 183.433 349.119C183.228 348.915 182.951 348.8 182.662 348.8H169.582C169.293 348.8 169.016 348.915 168.811 349.119C168.607 349.324 168.492 349.601 168.492 349.89C168.492 350.179 168.607 350.456 168.811 350.661C169.016 350.865 169.293 350.98 169.582 350.98H182.662C182.951 350.98 183.228 350.865 183.433 350.661C183.637 350.456 183.752 350.179 183.752 349.89ZM157.701 349.89C157.701 349.601 157.586 349.324 157.382 349.119C157.177 348.915 156.9 348.8 156.611 348.8H143.597C143.307 348.8 143.03 348.915 142.826 349.119C142.621 349.324 142.507 349.601 142.507 349.89C142.507 350.179 142.621 350.456 142.826 350.661C143.03 350.865 143.307 350.98 143.597 350.98H156.611C156.9 350.98 157.177 350.865 157.382 350.661C157.586 350.456 157.701 350.179 157.701 349.89ZM131.661 349.89C131.661 349.601 131.546 349.324 131.342 349.119C131.137 348.915 130.86 348.8 130.571 348.8H117.556C117.267 348.8 116.99 348.915 116.786 349.119C116.581 349.324 116.466 349.601 116.466 349.89C116.466 350.179 116.581 350.456 116.786 350.661C116.99 350.865 117.267 350.98 117.556 350.98H130.571C130.86 350.98 131.137 350.865 131.342 350.661C131.546 350.456 131.661 350.179 131.661 349.89ZM105.621 349.89C105.621 349.601 105.506 349.324 105.302 349.119C105.097 348.915 104.82 348.8 104.531 348.8H91.5599C91.2709 348.8 90.9936 348.915 90.7892 349.119C90.5848 349.324 90.4699 349.601 90.4699 349.89C90.4699 350.179 90.5848 350.456 90.7892 350.661C90.9936 350.865 91.2709 350.98 91.5599 350.98H104.64C104.91 350.953 105.16 350.826 105.341 350.625C105.523 350.423 105.622 350.161 105.621 349.89ZM79.8098 348.146C79.939 347.889 79.9612 347.59 79.8713 347.317C79.7814 347.043 79.5869 346.816 79.3301 346.685C75.6183 344.821 72.5729 341.855 70.6102 338.194C70.4719 337.945 70.2417 337.761 69.969 337.679C69.6962 337.598 69.4024 337.626 69.1504 337.759C68.8984 337.891 68.7082 338.117 68.6205 338.388C68.5327 338.659 68.5544 338.953 68.6809 339.208C70.846 343.267 74.2109 346.56 78.3164 348.637C78.4692 348.711 78.6372 348.748 78.807 348.745C79.0149 348.75 79.2199 348.695 79.3976 348.587C79.5752 348.479 79.7183 348.322 79.8098 348.135V348.146ZM68.3212 326.073V313.048C68.3212 312.759 68.2063 312.482 68.0019 312.277C67.7975 312.073 67.5202 311.958 67.2312 311.958C66.9421 311.958 66.6648 312.073 66.4604 312.277C66.256 312.482 66.1412 312.759 66.1412 313.048V326.073C66.1412 326.363 66.256 326.64 66.4604 326.844C66.6648 327.049 66.9421 327.163 67.2312 327.163C67.5202 327.163 67.7975 327.049 68.0019 326.844C68.2063 326.64 68.3212 326.363 68.3212 326.073ZM68.3212 300.033V287.008C68.3212 286.719 68.2063 286.442 68.0019 286.237C67.7975 286.033 67.5202 285.918 67.2312 285.918C66.9421 285.918 66.6648 286.033 66.4604 286.237C66.256 286.442 66.1412 286.719 66.1412 287.008V300.033C66.1412 300.322 66.256 300.6 66.4604 300.804C66.6648 301.009 66.9421 301.123 67.2312 301.123C67.5202 301.123 67.7975 301.009 68.0019 300.804C68.2063 300.6 68.3212 300.322 68.3212 300.033ZM68.3212 273.982V268.532C68.3093 266.204 68.9966 263.926 70.294 261.992C70.4545 261.751 70.5125 261.456 70.4552 261.172C70.398 260.887 70.2302 260.638 69.9889 260.477C69.7475 260.317 69.4522 260.259 69.1681 260.316C68.884 260.373 68.6342 260.541 68.4738 260.782C66.948 263.063 66.136 265.745 66.1412 268.489V273.939C66.1412 274.228 66.256 274.505 66.4604 274.71C66.6648 274.914 66.9421 275.029 67.2312 275.029C67.5202 275.029 67.7975 274.914 68.0019 274.71C68.2063 274.505 68.3212 274.228 68.3212 273.939V273.982ZM510.425 255.877C510.561 255.832 510.687 255.76 510.795 255.666C510.904 255.571 510.992 255.457 511.056 255.328C511.12 255.199 511.158 255.059 511.167 254.916C511.177 254.773 511.158 254.629 511.112 254.493C511.02 254.221 510.824 253.996 510.567 253.867C510.309 253.738 510.012 253.717 509.738 253.807C508.132 254.338 506.45 254.607 504.757 254.602H497.127C496.838 254.602 496.561 254.717 496.356 254.921C496.152 255.126 496.037 255.403 496.037 255.692C496.037 255.981 496.152 256.259 496.356 256.463C496.561 256.667 496.838 256.782 497.127 256.782H504.757C506.682 256.782 508.596 256.477 510.425 255.877ZM485.213 255.692C485.213 255.403 485.099 255.126 484.894 254.921C484.69 254.717 484.413 254.602 484.123 254.602H471.109C470.82 254.602 470.542 254.717 470.338 254.921C470.134 255.126 470.019 255.403 470.019 255.692C470.019 255.981 470.134 256.259 470.338 256.463C470.542 256.667 470.82 256.782 471.109 256.782H484.123C484.413 256.782 484.69 256.667 484.894 256.463C485.099 256.259 485.213 255.981 485.213 255.692ZM459.173 255.692C459.173 255.403 459.058 255.126 458.854 254.921C458.65 254.717 458.372 254.602 458.083 254.602H445.069C444.78 254.602 444.502 254.717 444.298 254.921C444.094 255.126 443.979 255.403 443.979 255.692C443.979 255.981 444.094 256.259 444.298 256.463C444.502 256.667 444.78 256.782 445.069 256.782H458.083C458.372 256.782 458.65 256.667 458.854 256.463C459.058 256.259 459.173 255.981 459.173 255.692ZM433.133 255.692C433.133 255.403 433.018 255.126 432.814 254.921C432.61 254.717 432.332 254.602 432.043 254.602H419.018C418.729 254.602 418.451 254.717 418.247 254.921C418.043 255.126 417.928 255.403 417.928 255.692C417.928 255.981 418.043 256.259 418.247 256.463C418.451 256.667 418.729 256.782 419.018 256.782H432.043C432.332 256.782 432.61 256.667 432.814 256.463C433.018 256.259 433.133 255.981 433.133 255.692ZM407.093 255.692C407.093 255.403 406.978 255.126 406.774 254.921C406.569 254.717 406.292 254.602 406.003 254.602H392.923C392.634 254.602 392.357 254.717 392.152 254.921C391.948 255.126 391.833 255.403 391.833 255.692C391.833 255.981 391.948 256.259 392.152 256.463C392.357 256.667 392.634 256.782 392.923 256.782H406.003C406.292 256.782 406.569 256.667 406.774 256.463C406.978 256.259 407.093 255.981 407.093 255.692ZM381.053 255.692C381.053 255.403 380.938 255.126 380.734 254.921C380.529 254.717 380.252 254.602 379.963 254.602H366.938C366.648 254.602 366.371 254.717 366.167 254.921C365.962 255.126 365.848 255.403 365.848 255.692C365.848 255.981 365.962 256.259 366.167 256.463C366.371 256.667 366.648 256.782 366.938 256.782H379.963C380.252 256.782 380.529 256.667 380.734 256.463C380.938 256.259 381.053 255.981 381.053 255.692ZM355.002 255.692C355.002 255.403 354.887 255.126 354.683 254.921C354.478 254.717 354.201 254.602 353.912 254.602H340.897C340.608 254.602 340.331 254.717 340.127 254.921C339.922 255.126 339.807 255.403 339.807 255.692C339.807 255.981 339.922 256.259 340.127 256.463C340.331 256.667 340.608 256.782 340.897 256.782H353.912C354.201 256.782 354.478 256.667 354.683 256.463C354.887 256.259 355.002 255.981 355.002 255.692ZM328.962 255.692C328.962 255.403 328.847 255.126 328.643 254.921C328.438 254.717 328.161 254.602 327.872 254.602H314.857C314.568 254.602 314.291 254.717 314.087 254.921C313.882 255.126 313.767 255.403 313.767 255.692C313.767 255.981 313.882 256.259 314.087 256.463C314.291 256.667 314.568 256.782 314.857 256.782H327.872C328.161 256.782 328.438 256.667 328.643 256.463C328.847 256.259 328.962 255.981 328.962 255.692ZM302.922 255.692C302.922 255.403 302.807 255.126 302.603 254.921C302.398 254.717 302.121 254.602 301.832 254.602H288.85C288.561 254.602 288.284 254.717 288.079 254.921C287.875 255.126 287.76 255.403 287.76 255.692C287.76 255.981 287.875 256.259 288.079 256.463C288.284 256.667 288.561 256.782 288.85 256.782H301.93C302.202 256.758 302.454 256.632 302.638 256.43C302.822 256.228 302.923 255.965 302.922 255.692ZM276.882 255.692C276.882 255.403 276.767 255.126 276.562 254.921C276.358 254.717 276.081 254.602 275.792 254.602H262.712C262.423 254.602 262.145 254.717 261.941 254.921C261.737 255.126 261.622 255.403 261.622 255.692C261.622 255.981 261.737 256.259 261.941 256.463C262.145 256.667 262.423 256.782 262.712 256.782H275.792C276.077 256.776 276.349 256.659 276.548 256.455C276.748 256.252 276.86 255.978 276.86 255.692H276.882ZM250.842 255.692C250.842 255.403 250.727 255.126 250.522 254.921C250.318 254.717 250.041 254.602 249.752 254.602H236.726C236.437 254.602 236.16 254.717 235.955 254.921C235.751 255.126 235.636 255.403 235.636 255.692C235.636 255.981 235.751 256.259 235.955 256.463C236.16 256.667 236.437 256.782 236.726 256.782H249.752C250.041 256.782 250.318 256.667 250.522 256.463C250.727 256.259 250.842 255.981 250.842 255.692ZM224.791 255.692C224.791 255.403 224.676 255.126 224.471 254.921C224.267 254.717 223.99 254.602 223.701 254.602H210.686C210.397 254.602 210.12 254.717 209.915 254.921C209.711 255.126 209.596 255.403 209.596 255.692C209.596 255.981 209.711 256.259 209.915 256.463C210.12 256.667 210.397 256.782 210.686 256.782H223.701C223.99 256.782 224.267 256.667 224.471 256.463C224.676 256.259 224.791 255.981 224.791 255.692ZM198.751 255.692C198.751 255.403 198.636 255.126 198.431 254.921C198.227 254.717 197.95 254.602 197.661 254.602H184.646C184.357 254.602 184.08 254.717 183.875 254.921C183.671 255.126 183.556 255.403 183.556 255.692C183.556 255.981 183.671 256.259 183.875 256.463C184.08 256.667 184.357 256.782 184.646 256.782H197.661C197.95 256.782 198.227 256.667 198.431 256.463C198.636 256.259 198.751 255.981 198.751 255.692ZM172.71 255.692C172.71 255.403 172.596 255.126 172.391 254.921C172.187 254.717 171.91 254.602 171.62 254.602H158.595C158.306 254.602 158.029 254.717 157.824 254.921C157.62 255.126 157.505 255.403 157.505 255.692C157.505 255.981 157.62 256.259 157.824 256.463C158.029 256.667 158.306 256.782 158.595 256.782H171.62C171.91 256.782 172.187 256.667 172.391 256.463C172.596 256.259 172.71 255.981 172.71 255.692ZM146.67 255.692C146.67 255.403 146.556 255.126 146.351 254.921C146.147 254.717 145.869 254.602 145.58 254.602H132.5C132.211 254.602 131.934 254.717 131.73 254.921C131.525 255.126 131.41 255.403 131.41 255.692C131.41 255.981 131.525 256.259 131.73 256.463C131.934 256.667 132.211 256.782 132.5 256.782H145.58C145.869 256.782 146.147 256.667 146.351 256.463C146.556 256.259 146.67 255.981 146.67 255.692ZM120.63 255.692C120.63 255.403 120.515 255.126 120.311 254.921C120.107 254.717 119.829 254.602 119.54 254.602H106.46C106.171 254.602 105.894 254.717 105.689 254.921C105.485 255.126 105.37 255.403 105.37 255.692C105.37 255.981 105.485 256.259 105.689 256.463C105.894 256.667 106.171 256.782 106.46 256.782H119.54C119.829 256.782 120.107 256.667 120.311 256.463C120.515 256.259 120.63 255.981 120.63 255.692ZM94.5792 255.692C94.5792 255.403 94.4644 255.126 94.26 254.921C94.0556 254.717 93.7783 254.602 93.4892 254.602H80.4747C80.1856 254.602 79.9083 254.717 79.7039 254.921C79.4995 255.126 79.3847 255.403 79.3847 255.692C79.3847 255.981 79.4995 256.259 79.7039 256.463C79.9083 256.667 80.1856 256.782 80.4747 256.782H93.4892C93.7783 256.782 94.0556 256.667 94.26 256.463C94.4644 256.259 94.5792 255.981 94.5792 255.692ZM520.769 247.114C522.116 244.541 522.819 241.68 522.818 238.775V233.903C522.818 233.614 522.704 233.337 522.499 233.132C522.295 232.928 522.017 232.813 521.728 232.813C521.439 232.813 521.162 232.928 520.958 233.132C520.753 233.337 520.638 233.614 520.638 233.903V238.775C520.639 241.326 520.022 243.84 518.84 246.1C518.769 246.227 518.725 246.367 518.709 246.511C518.693 246.656 518.707 246.802 518.748 246.941C518.79 247.08 518.859 247.21 518.951 247.322C519.043 247.434 519.157 247.527 519.286 247.595C519.414 247.662 519.555 247.703 519.7 247.716C519.845 247.728 519.99 247.711 520.129 247.667C520.267 247.622 520.395 247.55 520.505 247.455C520.615 247.36 520.705 247.244 520.769 247.114ZM522.818 220.878V207.863C522.818 207.574 522.704 207.297 522.499 207.092C522.295 206.888 522.017 206.773 521.728 206.773C521.439 206.773 521.162 206.888 520.958 207.092C520.753 207.297 520.638 207.574 520.638 207.863V220.878C520.638 221.167 520.753 221.444 520.958 221.648C521.162 221.853 521.439 221.968 521.728 221.968C522.017 221.968 522.295 221.853 522.499 221.648C522.704 221.444 522.818 221.167 522.818 220.878ZM522.818 194.837V190.325C522.838 187.281 522.088 184.281 520.638 181.605C520.569 181.48 520.476 181.369 520.364 181.28C520.252 181.191 520.123 181.125 519.985 181.085C519.848 181.046 519.704 181.034 519.561 181.05C519.419 181.066 519.281 181.11 519.156 181.18C518.906 181.32 518.721 181.553 518.641 181.828C518.562 182.104 518.594 182.399 518.731 182.651C520.011 184.991 520.682 187.615 520.682 190.281V194.794C520.682 195.083 520.797 195.36 521.001 195.565C521.206 195.769 521.483 195.884 521.772 195.884C522.061 195.884 522.338 195.769 522.543 195.565C522.747 195.36 522.862 195.083 522.862 194.794L522.818 194.837ZM510.828 174.465C510.914 174.189 510.886 173.891 510.751 173.635C510.616 173.38 510.385 173.188 510.109 173.103C508.392 172.58 506.607 172.315 504.812 172.318H496.844C496.555 172.318 496.277 172.433 496.073 172.637C495.869 172.842 495.754 173.119 495.754 173.408C495.754 173.697 495.869 173.974 496.073 174.179C496.277 174.383 496.555 174.498 496.844 174.498H504.812C506.389 174.494 507.959 174.729 509.466 175.196C509.574 175.212 509.685 175.212 509.793 175.196C510.011 175.186 510.221 175.111 510.395 174.981C510.57 174.851 510.702 174.671 510.774 174.465H510.828ZM484.919 173.375C484.919 173.086 484.804 172.809 484.6 172.605C484.395 172.4 484.118 172.285 483.829 172.285H470.749C470.46 172.285 470.183 172.4 469.978 172.605C469.774 172.809 469.659 173.086 469.659 173.375C469.659 173.664 469.774 173.942 469.978 174.146C470.183 174.351 470.46 174.465 470.749 174.465H483.775C484.058 174.466 484.331 174.355 484.534 174.158C484.738 173.96 484.856 173.691 484.865 173.408L484.919 173.375ZM458.868 173.375C458.868 173.086 458.753 172.809 458.549 172.605C458.344 172.4 458.067 172.285 457.778 172.285H444.72C444.431 172.285 444.154 172.4 443.949 172.605C443.745 172.809 443.63 173.086 443.63 173.375C443.63 173.664 443.745 173.942 443.949 174.146C444.154 174.351 444.431 174.465 444.72 174.465H457.735C458.016 174.463 458.286 174.351 458.487 174.154C458.688 173.957 458.805 173.69 458.814 173.408L458.868 173.375ZM432.828 173.375C432.828 173.086 432.713 172.809 432.509 172.605C432.304 172.4 432.027 172.285 431.738 172.285H418.669C418.38 172.285 418.103 172.4 417.898 172.605C417.694 172.809 417.579 173.086 417.579 173.375C417.579 173.664 417.694 173.942 417.898 174.146C418.103 174.351 418.38 174.465 418.669 174.465H431.64C431.923 174.466 432.196 174.355 432.399 174.158C432.603 173.96 432.721 173.691 432.73 173.408L432.828 173.375ZM406.788 173.375C406.788 173.086 406.673 172.809 406.469 172.605C406.264 172.4 405.987 172.285 405.698 172.285H392.618C392.329 172.285 392.052 172.4 391.847 172.605C391.643 172.809 391.528 173.086 391.528 173.375C391.528 173.664 391.643 173.942 391.847 174.146C392.052 174.351 392.329 174.465 392.618 174.465H405.643C405.927 174.466 406.199 174.355 406.403 174.158C406.606 173.96 406.725 173.691 406.733 173.408L406.788 173.375ZM380.748 173.375C380.748 173.086 380.633 172.809 380.429 172.605C380.224 172.4 379.947 172.285 379.658 172.285H366.578C366.289 172.285 366.012 172.4 365.807 172.605C365.603 172.809 365.488 173.086 365.488 173.375C365.488 173.664 365.603 173.942 365.807 174.146C366.012 174.351 366.289 174.465 366.578 174.465H379.603C379.887 174.466 380.159 174.355 380.363 174.158C380.566 173.96 380.685 173.691 380.693 173.408L380.748 173.375ZM354.708 173.375C354.708 173.086 354.593 172.809 354.388 172.605C354.184 172.4 353.907 172.285 353.618 172.285H340.538C340.249 172.285 339.971 172.4 339.767 172.605C339.563 172.809 339.448 173.086 339.448 173.375C339.448 173.664 339.563 173.942 339.767 174.146C339.971 174.351 340.249 174.465 340.538 174.465H353.563C353.847 174.466 354.119 174.355 354.323 174.158C354.526 173.96 354.645 173.691 354.653 173.408L354.708 173.375ZM328.657 173.375C328.657 173.086 328.542 172.809 328.337 172.605C328.133 172.4 327.856 172.285 327.567 172.285H314.498C314.209 172.285 313.931 172.4 313.727 172.605C313.522 172.809 313.408 173.086 313.408 173.375C313.408 173.664 313.522 173.942 313.727 174.146C313.931 174.351 314.209 174.465 314.498 174.465H327.512C327.796 174.466 328.068 174.355 328.272 174.158C328.475 173.96 328.594 173.691 328.602 173.408L328.657 173.375ZM302.617 173.375C302.617 173.086 302.502 172.809 302.297 172.605C302.093 172.4 301.816 172.285 301.527 172.285H288.458C288.168 172.285 287.891 172.4 287.687 172.605C287.482 172.809 287.368 173.086 287.368 173.375C287.368 173.664 287.482 173.942 287.687 174.146C287.891 174.351 288.168 174.465 288.458 174.465H301.472C301.756 174.466 302.028 174.355 302.232 174.158C302.435 173.96 302.554 173.691 302.562 173.408L302.617 173.375ZM276.577 173.375C276.577 173.086 276.462 172.809 276.257 172.605C276.053 172.4 275.776 172.285 275.487 172.285H262.407C262.117 172.285 261.84 172.4 261.636 172.605C261.431 172.809 261.317 173.086 261.317 173.375C261.317 173.664 261.431 173.942 261.636 174.146C261.84 174.351 262.117 174.465 262.407 174.465H275.432C275.716 174.466 275.988 174.355 276.191 174.158C276.395 173.96 276.514 173.691 276.522 173.408L276.577 173.375ZM250.536 173.375C250.536 173.086 250.422 172.809 250.217 172.605C250.013 172.4 249.736 172.285 249.446 172.285H236.366C236.077 172.285 235.8 172.4 235.596 172.605C235.391 172.809 235.276 173.086 235.276 173.375C235.276 173.664 235.391 173.942 235.596 174.146C235.8 174.351 236.077 174.465 236.366 174.465H249.446C249.72 174.452 249.979 174.335 250.171 174.139C250.363 173.943 250.474 173.682 250.482 173.408L250.536 173.375ZM224.496 173.375C224.496 173.086 224.382 172.809 224.177 172.605C223.973 172.4 223.695 172.285 223.406 172.285H210.37C210.081 172.285 209.804 172.4 209.599 172.605C209.395 172.809 209.28 173.086 209.28 173.375C209.28 173.664 209.395 173.942 209.599 174.146C209.804 174.351 210.081 174.465 210.37 174.465H223.395C223.671 174.454 223.933 174.339 224.127 174.143C224.321 173.947 224.434 173.684 224.442 173.408L224.496 173.375ZM198.445 173.375C198.445 173.086 198.331 172.809 198.126 172.605C197.922 172.4 197.644 172.285 197.355 172.285H184.286C183.997 172.285 183.72 172.4 183.516 172.605C183.311 172.809 183.196 173.086 183.196 173.375C183.196 173.664 183.311 173.942 183.516 174.146C183.72 174.351 183.997 174.465 184.286 174.465H197.29C197.573 174.466 197.846 174.355 198.049 174.158C198.253 173.96 198.371 173.691 198.38 173.408L198.445 173.375ZM172.405 173.375C172.405 173.086 172.29 172.809 172.086 172.605C171.882 172.4 171.604 172.285 171.315 172.285H158.246C157.957 172.285 157.68 172.4 157.475 172.605C157.271 172.809 157.156 173.086 157.156 173.375C157.156 173.664 157.271 173.942 157.475 174.146C157.68 174.351 157.957 174.465 158.246 174.465H171.261C171.544 174.466 171.817 174.355 172.02 174.158C172.224 173.96 172.342 173.691 172.351 173.408L172.405 173.375ZM146.365 173.375C146.365 173.086 146.25 172.809 146.046 172.605C145.841 172.4 145.564 172.285 145.275 172.285H132.195C131.906 172.285 131.629 172.4 131.424 172.605C131.22 172.809 131.105 173.086 131.105 173.375C131.105 173.664 131.22 173.942 131.424 174.146C131.629 174.351 131.906 174.465 132.195 174.465H145.221C145.504 174.466 145.777 174.355 145.98 174.158C146.184 173.96 146.302 173.691 146.311 173.408L146.365 173.375ZM121.077 170.105C121.179 170.004 121.26 169.883 121.316 169.751C121.371 169.618 121.4 169.475 121.4 169.331C121.4 169.188 121.371 169.045 121.316 168.912C121.26 168.779 121.179 168.659 121.077 168.558C119.744 167.296 118.684 165.775 117.962 164.088C117.24 162.4 116.872 160.583 116.881 158.748V157.57C116.881 157.281 116.766 157.004 116.561 156.8C116.357 156.595 116.08 156.48 115.791 156.48C115.502 156.48 115.224 156.595 115.02 156.8C114.815 157.004 114.701 157.281 114.701 157.57V158.748C114.693 160.877 115.121 162.985 115.959 164.942C116.797 166.899 118.027 168.664 119.573 170.127C119.775 170.322 120.044 170.431 120.325 170.432C120.577 170.407 120.812 170.296 120.99 170.116L121.077 170.105ZM116.837 144.567V131.552C116.837 131.263 116.722 130.986 116.518 130.781C116.313 130.577 116.036 130.462 115.747 130.462C115.458 130.462 115.181 130.577 114.976 130.781C114.772 130.986 114.657 131.263 114.657 131.552V144.578C114.657 144.867 114.772 145.144 114.976 145.348C115.181 145.553 115.458 145.668 115.747 145.668C116.036 145.668 116.313 145.553 116.518 145.348C116.722 145.144 116.837 144.867 116.837 144.578V144.567ZM116.837 118.516V115.791C116.832 112.552 117.796 109.386 119.606 106.7C119.685 106.576 119.739 106.438 119.765 106.293C119.791 106.148 119.789 106 119.757 105.856C119.726 105.712 119.666 105.576 119.583 105.456C119.499 105.335 119.392 105.232 119.268 105.152C119.144 105.073 119.006 105.019 118.861 104.993C118.716 104.967 118.568 104.969 118.424 105.001C118.28 105.032 118.144 105.091 118.023 105.175C117.902 105.259 117.799 105.366 117.72 105.49C115.661 108.534 114.564 112.127 114.57 115.802V118.527C114.57 118.816 114.685 119.093 114.889 119.297C115.094 119.502 115.371 119.617 115.66 119.617C115.949 119.617 116.226 119.502 116.431 119.297C116.635 119.093 116.75 118.816 116.75 118.527L116.837 118.516ZM129.416 99.9857C130.631 99.7021 131.874 99.5595 133.122 99.5606H142.158C142.447 99.5606 142.724 99.4458 142.928 99.2413C143.133 99.0369 143.248 98.7597 143.248 98.4706C143.248 98.1815 143.133 97.9043 142.928 97.6999C142.724 97.4954 142.447 97.3806 142.158 97.3806H133.122C131.709 97.3815 130.301 97.5424 128.925 97.8602C128.786 97.8923 128.654 97.9517 128.537 98.0348C128.42 98.1179 128.321 98.2233 128.245 98.3447C128.169 98.4662 128.118 98.6015 128.094 98.7428C128.071 98.8841 128.075 99.0286 128.108 99.1682C128.165 99.4121 128.305 99.6287 128.504 99.7815C128.702 99.9344 128.947 100.014 129.198 100.007C129.254 99.9909 129.309 99.969 129.361 99.9421L129.416 99.9857ZM155.347 99.299C157.631 98.8952 159.814 98.0442 161.768 96.7947C163.723 95.5451 165.412 93.9218 166.737 92.0178C166.902 91.7806 166.965 91.4879 166.914 91.2039C166.863 90.9199 166.701 90.6677 166.465 90.5027C166.228 90.3383 165.935 90.2747 165.651 90.3258C165.367 90.3768 165.115 90.5385 164.95 90.7752C162.602 94.1391 159.015 96.4328 154.976 97.1517C154.687 97.1763 154.42 97.3147 154.233 97.5365C154.045 97.7582 153.954 98.0453 153.979 98.3343C154.003 98.6234 154.142 98.8909 154.364 99.078C154.585 99.265 154.872 99.3563 155.161 99.3317L155.347 99.299ZM169.822 78.9378V70.087C169.822 68.7859 169.983 67.4899 170.302 66.2284C170.352 66.0855 170.373 65.9335 170.362 65.7821C170.351 65.6308 170.308 65.4835 170.237 65.3496C170.165 65.2157 170.067 65.0982 169.947 65.0046C169.828 64.911 169.69 64.8434 169.543 64.806C169.396 64.7687 169.243 64.7625 169.093 64.7878C168.943 64.8131 168.801 64.8693 168.674 64.9529C168.548 65.0366 168.44 65.1457 168.358 65.2733C168.276 65.401 168.221 65.5444 168.198 65.6943C167.829 67.1184 167.643 68.5833 167.642 70.0543V78.9051C167.642 79.1942 167.757 79.4714 167.961 79.6758C168.166 79.8803 168.443 79.9951 168.732 79.9951C169.021 79.9951 169.298 79.8803 169.503 79.6758C169.707 79.4714 169.822 79.1942 169.822 78.9051V78.9378ZM177.452 56.7999C179.798 55.4337 182.465 54.7152 185.18 54.718H189.54C189.829 54.718 190.106 54.6032 190.311 54.3988C190.515 54.1943 190.63 53.9171 190.63 53.628C190.63 53.3389 190.515 53.0617 190.311 52.8573C190.106 52.6528 189.829 52.538 189.54 52.538H185.18C182.079 52.5345 179.032 53.3545 176.351 54.9142C176.227 54.9863 176.119 55.0822 176.032 55.1964C175.945 55.3105 175.881 55.4407 175.845 55.5794C175.808 55.7181 175.8 55.8627 175.819 56.0048C175.839 56.1469 175.886 56.2837 175.959 56.4075C176.031 56.5315 176.127 56.64 176.241 56.7269C176.355 56.8138 176.485 56.8772 176.624 56.9137C176.763 56.9501 176.907 56.9589 177.049 56.9393C177.191 56.9198 177.328 56.8724 177.452 56.7999ZM398.94 53.628C398.94 53.3389 398.825 53.0617 398.621 52.8573C398.416 52.6528 398.139 52.538 397.85 52.538H384.846C384.557 52.538 384.28 52.6528 384.075 52.8573C383.871 53.0617 383.756 53.3389 383.756 53.628C383.756 53.9171 383.871 54.1943 384.075 54.3988C384.28 54.6032 384.557 54.718 384.846 54.718H397.85C398.139 54.718 398.416 54.6032 398.621 54.3988C398.825 54.1943 398.94 53.9171 398.94 53.628ZM372.9 53.628C372.9 53.3389 372.785 53.0617 372.581 52.8573C372.376 52.6528 372.099 52.538 371.81 52.538H358.806C358.517 52.538 358.24 52.6528 358.035 52.8573C357.831 53.0617 357.716 53.3389 357.716 53.628C357.716 53.9171 357.831 54.1943 358.035 54.3988C358.24 54.6032 358.517 54.718 358.806 54.718H371.832C372.121 54.718 372.398 54.6032 372.602 54.3988C372.807 54.1943 372.922 53.9171 372.922 53.628H372.9ZM346.86 53.628C346.86 53.3389 346.745 53.0617 346.54 52.8573C346.336 52.6528 346.059 52.538 345.77 52.538H332.766C332.477 52.538 332.2 52.6528 331.995 52.8573C331.791 53.0617 331.676 53.3389 331.676 53.628C331.676 53.9171 331.791 54.1943 331.995 54.3988C332.2 54.6032 332.477 54.718 332.766 54.718H345.792C346.081 54.718 346.358 54.6032 346.562 54.3988C346.767 54.1943 346.882 53.9171 346.882 53.628H346.86ZM320.809 53.628C320.809 53.3389 320.694 53.0617 320.489 52.8573C320.285 52.6528 320.008 52.538 319.719 52.538H306.726C306.437 52.538 306.16 52.6528 305.955 52.8573C305.751 53.0617 305.636 53.3389 305.636 53.628C305.636 53.9171 305.751 54.1943 305.955 54.3988C306.16 54.6032 306.437 54.718 306.726 54.718H319.741C320.03 54.718 320.307 54.6032 320.511 54.3988C320.716 54.1943 320.831 53.9171 320.831 53.628H320.809ZM294.769 53.628C294.769 53.3389 294.654 53.0617 294.449 52.8573C294.245 52.6528 293.968 52.538 293.679 52.538H280.686C280.397 52.538 280.119 52.6528 279.915 52.8573C279.711 53.0617 279.596 53.3389 279.596 53.628C279.596 53.9171 279.711 54.1943 279.915 54.3988C280.119 54.6032 280.397 54.718 280.686 54.718H293.7C293.99 54.718 294.267 54.6032 294.471 54.3988C294.676 54.1943 294.79 53.9171 294.79 53.628H294.769ZM268.729 53.628C268.729 53.3389 268.614 53.0617 268.409 52.8573C268.205 52.6528 267.928 52.538 267.639 52.538H254.635C254.346 52.538 254.069 52.6528 253.864 52.8573C253.66 53.0617 253.545 53.3389 253.545 53.628C253.545 53.9171 253.66 54.1943 253.864 54.3988C254.069 54.6032 254.346 54.718 254.635 54.718H267.66C267.949 54.718 268.227 54.6032 268.431 54.3988C268.635 54.1943 268.75 53.9171 268.75 53.628H268.729ZM242.688 53.628C242.688 53.3389 242.574 53.0617 242.369 52.8573C242.165 52.6528 241.888 52.538 241.598 52.538H228.595C228.306 52.538 228.028 52.6528 227.824 52.8573C227.62 53.0617 227.505 53.3389 227.505 53.628C227.505 53.9171 227.62 54.1943 227.824 54.3988C228.028 54.6032 228.306 54.718 228.595 54.718H241.62C241.909 54.718 242.187 54.6032 242.391 54.3988C242.595 54.1943 242.71 53.9171 242.71 53.628H242.688ZM216.648 53.628C216.648 53.3389 216.533 53.0617 216.329 52.8573C216.125 52.6528 215.847 52.538 215.558 52.538H202.555C202.266 52.538 201.988 52.6528 201.784 52.8573C201.579 53.0617 201.465 53.3389 201.465 53.628C201.465 53.9171 201.579 54.1943 201.784 54.3988C201.988 54.6032 202.266 54.718 202.555 54.718H215.58C215.869 54.718 216.146 54.6032 216.351 54.3988C216.555 54.1943 216.67 53.9171 216.67 53.628H216.648ZM379.211 339.044V332.504C379.211 332.215 379.096 331.938 378.892 331.734C378.687 331.529 378.41 331.414 378.121 331.414C377.832 331.414 377.555 331.529 377.35 331.734C377.146 331.938 377.031 332.215 377.031 332.504V339.044C377.031 339.334 377.146 339.611 377.35 339.815C377.555 340.02 377.832 340.134 378.121 340.134C378.41 340.134 378.687 340.02 378.892 339.815C379.096 339.611 379.211 339.334 379.211 339.044Z" fill="black"/>
<path opacity="0.1" d="M95.2442 170.803V165.222H91.6472V170.803H82.6438V165.222H79.0468V170.803H70.0434V165.222H66.49V170.803H62.5551V204.593H99.1246V170.803H95.2442ZM74.12 196.919H68.3539V191.153H74.12V196.919ZM74.12 187.796H68.3539V182.03H74.12V187.796ZM83.7229 196.919H77.9568V191.153H83.7229V196.919ZM83.7229 187.796H77.9568V182.03H83.7229V187.796ZM93.3258 196.919H87.5597V191.153H93.3258V196.919ZM93.3258 187.796H87.5597V182.03H93.3258V187.796Z" fill="black"/>
<path opacity="0.1" d="M306.704 446.573V440.992H303.107V446.573H294.104V440.992H290.507V446.573H281.503V440.992H277.95V446.573H274.07V480.363H310.639V446.573H306.704ZM285.58 472.733H279.814V466.967H285.58V472.733ZM285.58 463.61H279.814V457.8H285.58V463.61ZM295.183 472.733H289.417V466.967H295.183V472.733ZM295.183 463.61H289.417V457.8H295.183V463.61ZM304.786 472.733H299.02V466.967H304.786V472.733ZM304.786 463.61H299.02V457.8H304.786V463.61Z" fill="black"/>
<path opacity="0.1" d="M476.951 40.7769V35.207H473.354V40.7769H464.34V35.207H460.743V40.7769H451.751V35.207H448.143V40.7769H444.262V74.5669H480.832V40.7769H476.951ZM455.827 66.9369H450.061V61.1272H455.827V66.9369ZM455.827 57.8136H450.061V52.0039H455.827V57.8136ZM465.43 66.8933H459.664V61.1272H465.43V66.8933ZM465.43 57.77H459.664V52.0039H465.43V57.77ZM475.033 66.8933H469.267V61.1272H475.033V66.8933ZM475.033 57.77H469.267V52.0039H475.033V57.77Z" fill="black"/>
<path d="M197.181 85.02H480.581C481.167 85.0186 481.748 85.1329 482.29 85.3563C482.833 85.5796 483.325 85.9078 483.74 86.3219C484.156 86.736 484.485 87.228 484.71 87.7696C484.934 88.3112 485.05 88.8918 485.05 89.4781V371.287H192.723V89.4781C192.723 88.8927 192.838 88.313 193.062 87.7721C193.286 87.2312 193.615 86.7398 194.029 86.3258C194.443 85.9118 194.934 85.5834 195.475 85.3594C196.016 85.1353 196.596 85.02 197.181 85.02Z" fill="#E5E5E5"/>
<path d="M242.808 180.7C242.81 182.199 242.368 183.666 241.536 184.913C240.705 186.161 239.522 187.133 238.137 187.708C236.752 188.283 235.228 188.434 233.758 188.142C232.287 187.85 230.936 187.128 229.876 186.068C228.816 185.008 228.094 183.657 227.802 182.186C227.51 180.716 227.661 179.192 228.236 177.807C228.811 176.422 229.783 175.239 231.031 174.408C232.278 173.576 233.745 173.133 235.244 173.136C237.249 173.139 239.172 173.936 240.59 175.354C242.008 176.772 242.805 178.695 242.808 180.7Z" fill="#CCCCCC"/>
<path d="M485.05 116.979L447.216 153.308C441.674 152.84 436.1 152.913 430.572 153.526C430.318 153.541 430.065 153.502 429.826 153.414C429.588 153.326 429.371 153.19 429.187 153.014C422.102 147.455 415.497 106.962 412.63 85.02H410.559C412.837 102.46 419.497 148.033 427.912 154.638C428.31 154.984 428.775 155.245 429.277 155.406C429.779 155.567 430.308 155.625 430.833 155.576C435.615 155.012 440.439 154.888 445.243 155.205L414.625 184.635L371.548 152.72C369.4 151.128 366.745 150.376 364.081 150.605C361.417 150.834 358.929 152.028 357.084 153.962C352.451 158.813 348.942 162.737 346.631 165.625C343.579 169.43 338.761 175.435 333.387 181.975L317.375 169.081C326.88 156.546 335.099 145.711 339.949 140.13C349.814 128.783 372.649 100.16 384.639 85.0636H382.001C369.804 100.433 347.972 127.77 338.401 138.779C333.507 144.403 325.321 155.249 315.773 167.805L293.973 150.246C294.095 150.038 294.139 149.793 294.095 149.556C294.052 149.319 293.925 149.105 293.737 148.954C293.549 148.804 293.313 148.725 293.072 148.734C292.831 148.743 292.601 148.839 292.425 149.003L271.018 131.77C270.915 131.669 270.792 131.59 270.656 131.54C270.521 131.489 270.377 131.467 270.233 131.475C270.089 131.483 269.948 131.522 269.82 131.587C269.691 131.653 269.578 131.745 269.487 131.857C269.396 131.97 269.33 132.1 269.292 132.239C269.255 132.378 269.247 132.524 269.269 132.667C269.291 132.809 269.342 132.946 269.42 133.067C269.498 133.189 269.6 133.293 269.72 133.372L291.128 150.605C288.065 154.54 279.465 165.636 273.328 173.92L215.951 129.688C215.733 129.541 215.467 129.482 215.207 129.523C214.947 129.565 214.712 129.704 214.551 129.912C214.39 130.121 214.314 130.382 214.34 130.644C214.365 130.907 214.489 131.149 214.686 131.323L272.108 175.588C270.843 177.31 269.72 178.858 268.838 180.155C262.036 189.965 252.934 199.328 236.966 194.216C220.616 188.984 218.436 176.961 218.436 176.46C218.395 176.216 218.272 175.993 218.087 175.828L203.176 163.02C204.266 155.063 205.541 143.891 206.936 128.14C208.419 111.474 209.585 94.83 210.206 85.0091H208.19C206.544 110.079 203.983 141.46 201.334 161.429L193.519 154.78V157.505L200.996 163.936C199.633 173.746 198.249 180.286 196.974 181.191C195.77 181.748 194.614 182.405 193.519 183.153V185.66C194.863 184.661 196.301 183.796 197.813 183.076C198.696 182.684 200.386 181.986 202.827 165.506L216.409 177.179C216.899 179.479 220.158 191.022 236.301 196.189C239.265 197.177 242.365 197.696 245.49 197.726C257.382 197.726 265.001 189.289 270.494 181.376C271.366 180.112 272.478 178.586 273.764 176.896L295.848 193.922C283.999 209.182 272.336 223.352 264.183 230.982C254.46 240.029 242.198 250.602 232.214 259.082C218.229 249.904 205.116 239.985 204.964 239.854H204.898L204.833 239.8L193.584 233.696V236.039L201.552 240.399C199.644 240.879 196.81 241.566 193.584 242.231V244.16C198.587 243.135 202.707 242.056 204.124 241.675C206.424 243.408 218.087 252.117 230.589 260.336C221.161 268.303 214.152 274.037 214.011 274.157C213.808 274.337 213.68 274.587 213.651 274.858C213.623 275.128 213.697 275.399 213.858 275.617C214.04 275.819 214.291 275.945 214.561 275.971C214.831 275.997 215.101 275.922 215.319 275.759C215.46 275.639 222.709 269.699 232.388 261.524C235.266 263.388 238.154 265.208 240.966 266.897L247.506 270.745C253.131 274.07 259.976 278.124 266.745 282.386L246.994 303.848C246.865 303.995 246.778 304.173 246.741 304.365C246.705 304.557 246.721 304.755 246.787 304.938C246.863 305.116 246.985 305.27 247.14 305.385C247.295 305.5 247.478 305.571 247.67 305.592C247.855 305.592 265.938 307.173 280.631 327.872C293.417 345.879 305.549 361.019 326.967 371.276H331.981C308.361 361.215 295.706 345.541 282.31 326.673C269.808 309.048 255.136 304.808 249.839 303.783L268.521 283.498C282.027 292.12 294.78 301.472 296.295 307.533C298.475 316.372 309.222 327.272 314.378 332.504C315.697 333.845 316.83 335.001 317.081 335.382C318.52 337.562 327.981 342.914 329.823 343.971L330.052 344.058C331.905 344.582 343.285 347.677 352.31 347.677C357.019 347.677 361.084 346.838 362.828 344.342C365.619 340.374 373.728 333.987 380.268 328.864C384.89 325.223 388.89 322.084 390.351 320.329C390.754 319.839 392.607 318.149 395.572 315.446L403.267 323.141L344.516 371.243H347.786L404.739 324.602L414.898 334.761L373.859 371.243H376.966L417.088 335.578C417.192 335.482 417.275 335.366 417.331 335.237C417.388 335.107 417.417 334.967 417.417 334.826C417.417 334.685 417.388 334.545 417.331 334.416C417.275 334.286 417.192 334.17 417.088 334.074L406.308 323.294L455.653 282.877L472.417 296.371L410.429 351.47C409.364 352.419 408.612 353.669 408.272 355.054C407.932 356.439 408.02 357.894 408.524 359.228C409.028 360.562 409.925 361.712 411.096 362.526C412.267 363.34 413.657 363.78 415.083 363.787C416.707 363.783 418.281 363.221 419.541 362.196L484.243 305.887L485.159 306.628V302.355L484.189 303.194L475.611 296.295L485.159 287.804V285.046L473.986 294.976L457.288 281.536L485.05 258.766V256.15L455.511 280.261L445.025 271.813C458.901 259.703 473.202 247.277 485.028 237.01V234.274C476.701 241.5 460.329 255.725 443.39 270.505L422.68 253.839C440.916 235.876 465.441 211.558 469.321 206.817C475.861 198.816 478.445 175.512 472.177 164.372C468.395 157.647 459.097 154.693 449.876 153.581L485.017 119.791L485.05 116.979ZM473.921 297.723L482.478 304.611L418.08 360.659C417.069 361.511 415.76 361.925 414.443 361.812C413.125 361.698 411.907 361.066 411.055 360.054C410.204 359.042 409.789 357.734 409.903 356.416C410.016 355.099 410.648 353.881 411.66 353.029L473.921 297.723ZM348.222 166.923C350.402 164.121 354.032 160.143 358.555 155.39C360.056 153.824 362.075 152.858 364.236 152.674C366.397 152.489 368.551 153.098 370.295 154.388L413.11 186.063L379.091 218.763L334.979 183.229C342.336 174.247 348.07 167.086 348.222 166.89V166.923ZM316.1 170.694L332.047 183.534C326.008 190.892 319.414 198.794 313.909 205.192L298.649 193.464C304.622 185.834 310.563 178.008 316.1 170.694ZM274.92 175.141C281.024 166.89 289.613 155.815 292.687 151.859L314.487 169.397C308.939 176.733 302.987 184.559 297.047 192.2L274.92 175.141ZM265.524 232.377C273.775 224.747 285.515 210.381 297.417 195.088L312.557 206.762C307.456 212.626 303.5 216.888 302.159 217.662C298.529 219.744 269.96 233.881 256.673 240.454C259.769 237.685 262.755 234.971 265.535 232.377H265.524ZM268.042 280.86C261.295 276.598 254.373 272.511 248.422 268.99C246.078 267.606 243.898 266.32 241.958 265.153C239.331 263.573 236.639 261.883 233.958 260.15C239.2 255.703 245.043 250.689 250.809 245.632C252.749 244.672 298.377 222.186 303.129 219.471C304.666 218.589 308.928 214.021 314.258 207.896H314.312C314.471 207.897 314.627 207.861 314.769 207.791C314.911 207.721 315.035 207.619 315.13 207.492C315.219 207.376 315.282 207.242 315.314 207.099C315.347 206.956 315.347 206.807 315.315 206.664C321.005 200.124 327.719 192.003 333.605 184.864L377.576 220.18L354.958 241.904H354.904L319.762 285.155L288.185 260.401C287.975 260.251 287.718 260.181 287.46 260.203C287.202 260.225 286.961 260.337 286.779 260.521L268.042 280.86ZM361.008 343.208C357.422 348.331 337.954 344.211 330.597 342.118C326.411 339.753 319.566 335.578 318.672 334.248C317.759 333.124 316.772 332.061 315.718 331.066C310.694 325.964 300.24 315.337 298.169 307.086C296.502 300.404 283.716 290.888 269.829 282.016L287.662 262.657L319.272 287.52C319.489 287.675 319.755 287.745 320.02 287.717C320.285 287.689 320.531 287.565 320.711 287.368L354.926 245.25L365.63 338.26C363.934 339.754 362.389 341.411 361.019 343.208H361.008ZM394.656 313.386C391.245 316.46 389.065 318.487 388.585 319.054C387.266 320.634 383.135 323.872 378.775 327.283C374.96 330.292 370.872 333.518 367.461 336.505L356.757 243.07L379.189 221.521L419.585 253.97C409.23 264.172 401.273 271.944 401.055 272.151C400.898 272.312 400.795 272.518 400.76 272.74L394.656 313.386ZM443.434 273.198L453.865 281.602L404.695 321.866L396.934 314.105C406.374 305.625 424.402 289.82 443.445 273.198H443.434ZM441.799 271.879C424.631 286.866 407.126 302.213 397.109 311.217L402.777 273.416C404.401 271.824 411.856 264.532 421.241 255.3L441.799 271.879ZM421.089 252.531L380.759 220.038L414.843 187.338L456.045 217.858C446.235 227.679 432.414 241.37 421.067 252.531H421.089ZM470.411 165.331C476.221 175.686 473.79 198.086 467.752 205.465C466.444 207.067 462.64 211.046 457.462 216.3L416.304 185.78L447.99 155.423C457.56 156.393 466.945 159.26 470.389 165.375L470.411 165.331Z" fill="white"/>
<path d="M474.978 338.227H310.813V366.534H474.978V338.227Z" fill="white"/>
<path d="M332.679 351.743H321.877V364.093H332.679V351.743Z" fill="#016FB9"/>
<path d="M347.601 351.481H336.799V364.093H347.601V351.481Z" fill="#016FB9"/>
<path d="M362.523 348.658H351.721V364.093H362.523V348.658Z" fill="#016FB9"/>
<path d="M377.445 355.863H366.643V364.093H377.445V355.863Z" fill="#016FB9"/>
<path d="M392.367 347.623H381.565V364.093H392.367V347.623Z" fill="#016FB9"/>
<path d="M407.3 352.517H396.498V364.093H407.3V352.517Z" fill="#016FB9"/>
<path d="M422.222 357.912H411.421V364.093H422.222V357.912Z" fill="#016FB9"/>
<path d="M437.155 354.828H426.343V364.093H437.155V354.828Z" fill="#016FB9"/>
<path d="M452.067 357.4H441.265V364.093H452.067V357.4Z" fill="#016FB9"/>
<path d="M467 347.623H456.198V364.093H467V347.623Z" fill="#016FB9"/>
<path d="M193.519 371.287H266.549C261.545 368.889 254.024 365.117 253.109 363.755C251.735 361.695 244.171 348.615 240.029 347.928C235.887 347.241 234.524 352.059 234.524 352.059L243.462 366.512L240.029 364.441C240.029 364.441 231.767 355.493 229.707 354.119C227.646 352.746 229.707 347.241 230.393 343.11C231.08 338.979 235.843 336.232 237.271 332.788C238.699 329.343 237.271 319.021 237.271 315.588C237.271 312.154 231.08 301.821 226.949 293.559C222.818 285.297 209.062 269.481 201.486 266.036C198.929 264.984 196.235 264.298 193.486 263.998L193.519 371.287Z" fill="#CCCCCC"/>
<path d="M365.303 166.933L354.294 180.7L368.06 198.598L393.523 185.518L365.303 166.933Z" fill="#CCCCCC"/>
<path d="M379.069 228.878L363.242 244.018L369.434 277.732L386.634 282.55L392.149 268.096L408.663 252.27L379.069 228.878Z" fill="#CCCCCC"/>
<path d="M197.181 85.02H480.581C481.167 85.0186 481.748 85.1329 482.29 85.3563C482.833 85.5796 483.325 85.9078 483.74 86.3219C484.156 86.736 484.485 87.228 484.71 87.7696C484.934 88.3112 485.05 88.8918 485.05 89.4781V371.287H192.723V89.4781C192.723 88.8927 192.838 88.313 193.062 87.7721C193.286 87.2312 193.615 86.7398 194.029 86.3258C194.443 85.9118 194.934 85.5834 195.475 85.3594C196.016 85.1353 196.596 85.02 197.181 85.02Z" stroke="#263238" stroke-linecap="round" stroke-linejoin="round"/>
<path d="M197.181 85.02H480.581C481.167 85.0186 481.748 85.1329 482.29 85.3563C482.833 85.5796 483.325 85.9078 483.74 86.3219C484.156 86.736 484.485 87.228 484.71 87.7696C484.934 88.3112 485.05 88.8918 485.05 89.4781V140.065H192.723V89.4781C192.723 88.8927 192.838 88.313 193.062 87.7721C193.286 87.2312 193.615 86.7398 194.029 86.3258C194.443 85.9118 194.934 85.5834 195.475 85.3594C196.016 85.1353 196.596 85.02 197.181 85.02Z" fill="#016FB9" stroke="#263238" stroke-linecap="round" stroke-linejoin="round"/>
<path d="M442.377 119.453H211.842V129.089H442.377V119.453Z" fill="white" stroke="#263238" stroke-linecap="round" stroke-linejoin="round"/>
<path d="M480.799 85.02H211.656V109.807H485.05V89.2383C485.049 88.682 484.938 88.1314 484.723 87.6182C484.508 87.1049 484.195 86.639 483.8 86.2471C483.405 85.8553 482.937 85.5452 482.422 85.3346C481.907 85.1241 481.355 85.0171 480.799 85.02Z" fill="#808080" stroke="#263238" stroke-linecap="round" stroke-linejoin="round"/>
<path d="M197.181 85.02H480.581C481.167 85.0186 481.748 85.1329 482.29 85.3563C482.833 85.5796 483.325 85.9078 483.74 86.3219C484.156 86.736 484.485 87.228 484.71 87.7696C484.934 88.3112 485.05 88.8918 485.05 89.4781V101.141H192.723V89.4781C192.723 88.8927 192.838 88.313 193.062 87.7721C193.286 87.2312 193.615 86.7398 194.029 86.3258C194.443 85.9118 194.934 85.5834 195.475 85.3594C196.016 85.1353 196.596 85.02 197.181 85.02Z" fill="#263238" stroke="#263238" stroke-linecap="round" stroke-linejoin="round"/>
<path d="M473.016 95.5603C474.232 95.5603 475.218 94.5745 475.218 93.3585C475.218 92.1425 474.232 91.1567 473.016 91.1567C471.8 91.1567 470.815 92.1425 470.815 93.3585C470.815 94.5745 471.8 95.5603 473.016 95.5603Z" fill="white"/>
<path d="M463.926 95.5603C465.142 95.5603 466.128 94.5745 466.128 93.3585C466.128 92.1425 465.142 91.1567 463.926 91.1567C462.71 91.1567 461.724 92.1425 461.724 93.3585C461.724 94.5745 462.71 95.5603 463.926 95.5603Z" fill="white"/>
<path d="M454.835 95.5603C456.051 95.5603 457.037 94.5745 457.037 93.3585C457.037 92.1425 456.051 91.1567 454.835 91.1567C453.619 91.1567 452.633 92.1425 452.633 93.3585C452.633 94.5745 453.619 95.5603 454.835 95.5603Z" fill="white"/>
<path d="M408.641 183.12H372.344C371.668 183.119 370.997 183.251 370.372 183.508C369.746 183.766 369.178 184.145 368.699 184.623C368.22 185.101 367.84 185.669 367.581 186.293C367.322 186.918 367.188 187.588 367.188 188.265V222.36C367.188 223.037 367.322 223.706 367.581 224.331C367.84 224.956 368.22 225.524 368.699 226.002C369.178 226.48 369.746 226.858 370.372 227.116C370.997 227.374 371.668 227.506 372.344 227.505H383.081L390.972 243.07L398.221 227.538H408.641C410.006 227.538 411.314 226.995 412.279 226.031C413.244 225.066 413.786 223.757 413.786 222.393V188.265C413.786 186.9 413.244 185.592 412.279 184.627C411.314 183.662 410.006 183.12 408.641 183.12Z" fill="#016FB9" stroke="#263238" stroke-linecap="round" stroke-linejoin="round"/>
<path d="M390.493 254.559C392.714 254.559 394.515 252.758 394.515 250.537C394.515 248.315 392.714 246.514 390.493 246.514C388.271 246.514 386.47 248.315 386.47 250.537C386.47 252.758 388.271 254.559 390.493 254.559Z" fill="#016FB9" stroke="#263238" stroke-linecap="round" stroke-linejoin="round"/>
<path d="M266.363 153.908C268.585 153.908 270.385 152.107 270.385 149.886C270.385 147.665 268.585 145.864 266.363 145.864C264.142 145.864 262.341 147.665 262.341 149.886C262.341 152.107 264.142 153.908 266.363 153.908Z" fill="#016FB9" stroke="#263238" stroke-linecap="round" stroke-linejoin="round"/>
<path d="M323.392 249.196C323.39 249.991 323.152 250.767 322.709 251.427C322.266 252.087 321.637 252.601 320.902 252.904C320.167 253.207 319.358 253.285 318.579 253.128C317.799 252.972 317.084 252.588 316.522 252.025C315.961 251.462 315.579 250.746 315.424 249.966C315.27 249.186 315.35 248.378 315.655 247.643C315.96 246.909 316.475 246.281 317.137 245.84C317.798 245.398 318.575 245.163 319.37 245.163C319.899 245.163 320.423 245.267 320.912 245.47C321.4 245.673 321.844 245.97 322.218 246.345C322.592 246.719 322.888 247.164 323.089 247.653C323.291 248.143 323.394 248.667 323.392 249.196Z" fill="#016FB9" stroke="#263238" stroke-linecap="round" stroke-linejoin="round"/>
<path d="M233.925 222.905C236.146 222.905 237.947 221.104 237.947 218.883C237.947 216.662 236.146 214.861 233.925 214.861C231.704 214.861 229.903 216.662 229.903 218.883C229.903 221.104 231.704 222.905 233.925 222.905Z" fill="#016FB9" stroke="#263238" stroke-linecap="round" stroke-linejoin="round"/>
<path d="M250.613 320.122C250.613 320.92 250.376 321.7 249.933 322.363C249.49 323.026 248.86 323.543 248.123 323.848C247.386 324.153 246.575 324.233 245.793 324.078C245.011 323.922 244.292 323.538 243.728 322.974C243.164 322.41 242.78 321.691 242.624 320.909C242.469 320.127 242.549 319.316 242.854 318.579C243.159 317.842 243.676 317.212 244.339 316.769C245.002 316.326 245.782 316.089 246.58 316.089C247.649 316.089 248.675 316.514 249.432 317.27C250.188 318.027 250.613 319.053 250.613 320.122Z" fill="#016FB9" stroke="#263238" stroke-linecap="round" stroke-linejoin="round"/>
<path d="M437.079 317.484C439.3 317.484 441.101 315.684 441.101 313.462C441.101 311.241 439.3 309.44 437.079 309.44C434.858 309.44 433.057 311.241 433.057 313.462C433.057 315.684 434.858 317.484 437.079 317.484Z" fill="#016FB9" stroke="#263238" stroke-linecap="round" stroke-linejoin="round"/>
<path d="M457.691 193.595C459.912 193.595 461.713 191.794 461.713 189.573C461.713 187.351 459.912 185.551 457.691 185.551C455.47 185.551 453.669 187.351 453.669 189.573C453.669 191.794 455.47 193.595 457.691 193.595Z" fill="#016FB9" stroke="#263238" stroke-linecap="round" stroke-linejoin="round"/>
<path d="M436.12 154.584C438.341 154.584 440.142 152.783 440.142 150.562C440.142 148.34 438.341 146.54 436.12 146.54C433.899 146.54 432.098 148.34 432.098 150.562C432.098 152.783 433.899 154.584 436.12 154.584Z" fill="#016FB9" stroke="#263238" stroke-linecap="round" stroke-linejoin="round"/>
<path d="M447.096 254.82C447.096 255.618 446.859 256.399 446.416 257.062C445.972 257.725 445.342 258.242 444.604 258.547C443.867 258.852 443.055 258.931 442.272 258.775C441.49 258.618 440.771 258.233 440.208 257.668C439.644 257.103 439.261 256.383 439.106 255.6C438.952 254.817 439.033 254.006 439.34 253.269C439.647 252.533 440.166 251.903 440.831 251.462C441.495 251.02 442.276 250.785 443.074 250.787C443.603 250.787 444.127 250.892 444.616 251.094C445.105 251.297 445.548 251.594 445.922 251.969C446.296 252.344 446.592 252.788 446.793 253.278C446.995 253.767 447.098 254.291 447.096 254.82Z" fill="#016FB9" stroke="#263238" stroke-linecap="round" stroke-linejoin="round"/>
<path d="M336.145 216.986C338.366 216.986 340.167 215.186 340.167 212.964C340.167 210.743 338.366 208.942 336.145 208.942C333.924 208.942 332.123 210.743 332.123 212.964C332.123 215.186 333.924 216.986 336.145 216.986Z" fill="#016FB9" stroke="#263238" stroke-linecap="round" stroke-linejoin="round"/>
<path d="M104.095 389.13C104.095 389.13 106.547 416.38 107.365 422.103C108.182 427.825 104.64 431.368 101.097 435.183C97.555 438.998 96.1925 446.9 96.1925 452.895C96.1925 458.89 95.375 488.865 95.375 490.773C95.375 492.68 94.83 497.313 94.83 497.313C94.83 497.313 103.55 497.04 104.64 497.04C105.73 497.04 109.817 481.508 110.907 477.148C111.997 472.788 120.445 445.265 123.715 437.635C126.985 430.005 126.985 424.283 128.347 421.285C129.71 418.288 131.345 393.763 131.345 393.763C131.345 393.763 146.06 419.65 146.605 423.193C147.15 426.735 147.422 427.553 146.06 430.55C144.697 433.548 141.7 438.998 141.972 450.715C142.245 462.433 148.676 483.164 148.676 483.164L149.493 495.972C149.493 495.972 154.398 497.879 156.851 498.969C159.303 500.059 163.118 494.337 163.118 494.337C163.118 494.337 162.955 484.778 162.682 477.693C162.41 470.608 164.317 444.993 165.407 440.633C166.497 436.273 168.132 426.735 167.042 420.74C165.952 414.745 162.41 387.223 162.41 387.223C162.41 387.223 120.99 389.675 115.812 388.858C110.635 388.04 103.822 387.768 103.822 387.768L104.095 389.13Z" fill="#263238" stroke="#263238" stroke-linecap="round" stroke-linejoin="round"/>
<path d="M109.545 488.047L111.18 496.495C111.18 496.495 117.993 502.217 120.718 504.397C123.443 506.577 125.078 506.032 125.078 507.94C125.078 509.847 123.17 512.845 118.538 513.662C113.905 514.48 107.638 513.39 102.46 511.755C99.5149 510.898 96.8876 509.192 94.9063 506.85C94.9063 506.85 92.0505 507.515 92.0505 504.245C92.0505 500.975 94.4049 493.563 94.4049 493.563C94.4049 493.563 93.3149 489.508 94.4049 488.963C95.4949 488.418 99.19 492.407 99.19 492.407C99.19 492.407 99.735 482.87 109.545 488.047Z" fill="white" stroke="#263238" stroke-linecap="round" stroke-linejoin="round"/>
<path d="M124.936 508.877C124.376 508.708 123.775 508.739 123.235 508.965C120.252 510.647 116.899 511.564 113.475 511.632C110.051 511.701 106.663 510.919 103.615 509.357C97.1952 506.283 93.9143 503.198 92.3774 501.389C92.1805 502.34 92.0674 503.307 92.0396 504.278C92.0396 507.548 94.8953 506.883 94.8953 506.883C96.8839 509.214 99.5148 510.909 102.46 511.755C107.637 513.39 113.905 514.48 118.537 513.662C122.461 512.965 124.423 510.709 124.936 508.877Z" fill="#D2F4DC" stroke="#263238" stroke-linecap="round" stroke-linejoin="round"/>
<path d="M165.506 487.797C164.717 487.649 163.902 487.764 163.185 488.124C162.468 488.485 161.89 489.07 161.538 489.791C160.317 492.353 159.096 495.776 159.096 495.776C157.038 495.586 155 495.221 153.003 494.686C152.079 494.169 151.253 493.493 150.562 492.691C150.562 492.691 148.12 487.851 146.594 489.563C145.068 491.274 148.12 496.964 148.12 496.964C148.12 496.964 145.678 501.52 145.678 504.376C145.748 506.329 146.161 508.255 146.899 510.065C149.803 510.729 152.763 511.112 155.739 511.21C159.707 511.21 160.012 510.065 164.285 510.065C168.558 510.065 179.545 512.627 183.196 511.777C186.848 510.927 190.216 508.354 189.911 506.654C189.605 504.953 177.092 500.67 173.125 498.108C169.157 495.547 168.558 495.83 167.947 494.686C167.337 493.541 165.506 487.797 165.506 487.797Z" fill="white" stroke="#263238" stroke-linecap="round" stroke-linejoin="round"/>
<path d="M189.922 506.85C185.714 511.101 180.112 510.447 175.359 509.488C169.514 508.157 163.514 507.636 157.527 507.94C153.719 508.159 149.899 508.031 146.115 507.558C146.315 508.391 146.577 509.207 146.899 510C149.803 510.663 152.763 511.047 155.739 511.145C159.707 511.145 160.012 510 164.285 510C168.558 510 179.545 512.562 183.196 511.711C186.673 510.905 189.867 508.561 189.922 506.85Z" fill="#016FB9" stroke="#263238" stroke-linecap="round" stroke-linejoin="round"/>
<path d="M97.8275 379.32L97.01 391.484C97.01 391.484 117.448 396.117 134.343 395.637C151.238 395.158 169.223 388.073 169.223 388.073L165.68 375.385C165.68 375.385 128.348 375.145 120.99 374.655C113.633 374.164 109 369.041 106.275 369.772C103.55 370.502 100.28 379.047 100.28 379.047L97.8275 379.32Z" fill="white" stroke="#263238" stroke-linecap="round" stroke-linejoin="round"/>
<path d="M165.68 366.512L168.133 379.047C168.133 379.047 162.955 382.045 147.15 383.407C131.345 384.77 111.18 382.862 111.18 382.862L107.365 374.687L106.003 384.225H98.1C97.3373 384.245 96.5837 384.056 95.92 383.68L98.3725 373.597C98.3725 373.597 99.4625 363.515 104.64 361.062C109.818 358.61 114.178 361.335 117.72 364.605C121.263 367.875 125.35 367.33 131.073 367.33C136.795 367.33 161.048 364.877 161.048 364.877C161.048 364.877 165.135 363.515 165.68 366.512Z" fill="#969696" stroke="#263238" stroke-linecap="round" stroke-linejoin="round"/>
<path d="M157.505 273.862C157.505 273.862 167.315 298.932 171.402 307.925C175.49 316.917 179.305 327.272 178.76 332.995C178.215 338.717 171.402 353.705 171.402 353.705C171.402 353.705 164.862 310.65 163.5 306.29C162.137 301.93 155.87 277.677 155.87 277.677C155.87 277.677 153.145 272.5 157.505 273.862Z" fill="#016FB9" stroke="#263238" stroke-linecap="round" stroke-linejoin="round"/>
<path d="M103.997 264.358C103.997 264.358 98.2744 270.298 96.5086 277.558C94.7428 284.817 93.4348 375.45 93.4348 376.987C93.4348 378.524 99.9748 375.004 101.348 374.35C102.722 373.696 108.172 363.351 108.172 363.351L110.809 373.903C110.809 373.903 122.908 372.584 133.035 372.584C143.161 372.584 169.768 370.164 169.768 370.164C169.768 370.164 172.187 355.427 171.948 347.503C171.708 339.579 170.04 327.054 170.04 325.071C170.04 323.087 161.68 281.296 158.606 275.138C155.532 268.979 151.565 263.475 150.9 263.039C150.235 262.603 142.321 257.97 134.844 257.589C127.367 257.207 122.309 255.169 115.704 258.254C109.098 261.338 103.997 264.358 103.997 264.358Z" fill="#016FB9" stroke="#263238" stroke-linecap="round" stroke-linejoin="round"/>
<path d="M146.888 291.411C146.888 291.411 150.627 312.972 151.728 320.231C152.829 327.491 155.249 355.863 155.249 360.049V369.946" stroke="#263238" stroke-linecap="round" stroke-linejoin="round"/>
<path d="M140.294 300.655C140.294 300.655 144.469 322.215 146.67 335.186C148.872 348.157 148.24 366.643 148.24 366.643" stroke="#263238" stroke-linecap="round" stroke-linejoin="round"/>
<path d="M116.532 302.41L135.454 300.655L136.108 304.829L117.851 306.366" stroke="#263238" stroke-linecap="round" stroke-linejoin="round"/>
<path d="M163.827 298.006L152.829 298.889L153.712 302.628L163.391 301.756" stroke="#263238" stroke-linecap="round" stroke-linejoin="round"/>
<path d="M132.152 244.552C132.152 244.552 122.025 242.579 118.952 243.898C115.878 245.217 113.011 250.493 112.128 252.259C111.245 254.024 102.013 257.709 101.348 260.39C100.683 263.071 101.13 267.431 102.231 268.532C103.332 269.633 109.708 269.197 111.256 269.622C112.804 270.047 133.47 283.705 136.991 285.907C140.512 288.109 146.67 291.183 147.553 290.267C148.436 289.351 153.93 275.77 154.78 269.415C155.63 263.061 154.551 261.491 151.695 256.215C148.839 250.94 137.427 245.25 132.152 244.552Z" fill="#263238" stroke="#263238" stroke-linecap="round" stroke-linejoin="round"/>
<path d="M129.067 227.178C129.067 227.178 130.615 236.857 130.615 239.495C130.615 242.133 126.44 254.679 126.44 254.679C126.44 254.679 134.8 272.718 139.422 277.776C144.043 282.833 146.245 283.934 146.245 283.934C146.245 283.934 146.899 273.59 147.564 268.75C148.229 263.911 155.194 249.763 155.194 249.763C155.194 249.763 144.719 251.376 143.4 244.552C142.081 237.729 142.517 231.799 141.22 228.279C139.923 224.758 131.716 225.63 129.067 227.178Z" fill="white" stroke="#263238" stroke-linecap="round" stroke-linejoin="round"/>
<path d="M143.934 246.525L138.91 245.588L139.324 249.948C139.324 249.948 142.419 258.003 148.207 262.134C148.509 262.35 148.822 262.55 149.145 262.734C150.344 259.267 155.161 249.784 155.161 249.784C155.161 249.784 146.06 252.291 143.934 246.525Z" fill="#263238" stroke="#263238" stroke-linecap="round" stroke-linejoin="round"/>
<path d="M161.636 224.475L161.287 230.513C161.287 230.513 166.737 234.459 167.282 236.367C167.827 238.274 164.644 240.727 164.644 240.727C164.644 240.727 164.154 251.147 163.249 252.782C162.345 254.417 157.799 254.548 155.292 254.57C152.785 254.591 140.348 251.016 138.201 249.12C136.054 247.223 133.46 240.4 133.46 240.4C133.46 240.4 130.713 230.666 130.288 229.183C129.863 227.701 131.378 225.674 137.918 223.613C144.458 221.553 161.985 221.641 161.636 224.475Z" fill="white" stroke="#263238" stroke-linecap="round" stroke-linejoin="round"/>
<path d="M132.239 231.57C132.239 231.57 133.743 234.928 136.599 232.813C138.392 231.247 139.589 229.11 139.989 226.764L123.334 231.276C123.334 231.276 122.036 238.056 124.652 241.282C127.268 244.509 131.083 242.678 130.865 239.909C130.647 237.14 132.239 231.57 132.239 231.57Z" fill="#263238" stroke="#263238" stroke-linecap="round" stroke-linejoin="round"/>
<path d="M160.099 244.16C160.099 244.16 156.47 244.269 154.333 242.351" stroke="#263238" stroke-linecap="round" stroke-linejoin="round"/>
<path d="M156.153 230.938C156.437 231.93 156.284 232.846 155.815 232.977C155.347 233.107 154.725 232.41 154.453 231.418C154.18 230.426 154.333 229.51 154.802 229.38C155.27 229.249 155.87 229.99 156.153 230.938Z" fill="#263238"/>
<path d="M123.061 231.941C123.061 231.941 132.871 230.306 144.741 226.96C156.611 223.613 161.767 221.695 161.767 221.695L156.47 204.974C155.832 203.511 154.663 202.342 153.2 201.704C149.81 200.178 142.768 200.527 137.7 201.312C130.473 202.402 124.881 204.484 121.993 209.64C119.763 213.849 119.187 218.74 120.38 223.352C121.175 226.066 123.061 231.941 123.061 231.941Z" fill="#263238" stroke="#263238" stroke-linecap="round" stroke-linejoin="round"/>
<path d="M140.719 228.093C140.719 228.093 158.737 227.123 165.625 225.641C172.514 224.158 178.193 215.918 178.193 215.918L161.691 218.098C153.828 219.159 146.495 222.654 140.719 228.093Z" fill="#263238" stroke="#263238" stroke-linecap="round" stroke-linejoin="round"/>
<path d="M133.874 232.998C133.874 232.998 132.348 228.399 128.424 229.957C124.5 231.516 126.669 239.146 129.59 242.198C132.511 245.25 136.13 241.043 136.13 241.043" fill="white"/>
<path d="M133.874 232.998C133.874 232.998 132.348 228.399 128.424 229.957C124.5 231.516 126.669 239.146 129.59 242.198C132.511 245.25 136.13 241.043 136.13 241.043" stroke="#263238" stroke-linecap="round" stroke-linejoin="round"/>
<path d="M153.047 325.91L172.22 311.577C172.349 311.483 172.508 311.441 172.667 311.457L186.107 312.743C186.27 312.76 186.423 312.828 186.546 312.937C186.668 313.046 186.753 313.191 186.789 313.351C186.825 313.51 186.81 313.678 186.747 313.829C186.683 313.98 186.573 314.107 186.434 314.193L169.342 324.406L153.047 325.91Z" fill="#263238" stroke="#263238" stroke-linecap="round" stroke-linejoin="round"/>
<path d="M141.166 326.826C143.043 326.652 144.817 325.889 146.234 324.646C148.207 322.662 151.684 316.721 153.265 316.285C156.893 315.48 160.565 314.891 164.263 314.519C165.811 314.519 166.683 315.609 165.353 316.939C164.023 318.269 157.876 321.125 157.876 321.125L157.222 323.305C157.222 323.305 173.931 321.332 175.261 321.332C175.827 321.37 176.359 321.612 176.76 322.013C177.161 322.414 177.403 322.946 177.441 323.512C177.441 324.384 173.92 327.033 172.83 328.123C170.102 330.427 167.233 332.56 164.241 334.51C162.704 335.382 146.867 334.063 146.213 334.063C145.559 334.063 140.926 335.153 140.926 335.153L141.166 326.826Z" fill="white" stroke="#263238" stroke-linecap="round" stroke-linejoin="round"/>
<path d="M175.49 325.507C175.49 325.507 168.449 327.055 166.912 327.927C165.375 328.799 160.088 327.927 160.088 327.927" stroke="#263238" stroke-linecap="round" stroke-linejoin="round"/>
<path d="M170.421 329.91L165.582 331.447L160.524 331.665" stroke="#263238" stroke-linecap="round" stroke-linejoin="round"/>
<path d="M116.096 285.035C116.314 288.992 111.474 312.972 111.474 312.972L112.564 316.492V317.375L143.139 325.725C143.139 325.725 143.139 334.085 141.82 337.824C140.787 341.215 139.979 344.67 139.4 348.168C139.4 348.168 125.982 344.898 114.984 341.126C103.986 337.355 86.8185 331.894 83.5267 328.144C80.2349 324.395 82.2078 314.955 82.6438 313.408C83.0798 311.86 95.3968 279.53 97.8166 275.138C100.236 270.745 103.757 266.559 108.379 267.878C113 269.197 116.521 275.138 116.957 277.776" fill="#016FB9"/>
<path d="M116.096 285.035C116.314 288.992 111.474 312.972 111.474 312.972L112.564 316.492V317.375L143.139 325.725C143.139 325.725 143.139 334.085 141.82 337.824C140.787 341.215 139.979 344.67 139.4 348.168C139.4 348.168 125.982 344.898 114.984 341.126C103.986 337.355 86.8185 331.894 83.5267 328.144C80.2349 324.395 82.2078 314.955 82.6438 313.408C83.0798 311.86 95.3968 279.53 97.8166 275.138C100.236 270.745 103.757 266.559 108.379 267.878C113 269.197 116.521 275.138 116.957 277.776" stroke="#263238" stroke-linecap="round" stroke-linejoin="round"/>
<path d="M96.1052 318.127C97.7823 317.134 99.5441 316.292 101.37 315.609C103.354 315.173 111.049 316.928 111.049 316.928" stroke="#263238" stroke-linecap="round" stroke-linejoin="round"/>
<path d="M89.696 321.768C89.696 321.768 91.549 320.678 93.8053 319.403" stroke="#263238" stroke-linecap="round" stroke-linejoin="round"/>
<path d="M103.43 310.77C102.35 310.257 101.206 309.89 100.029 309.68C98.4923 309.68 91.6689 312.95 91.6689 312.95" stroke="#263238" stroke-linecap="round" stroke-linejoin="round"/>
<path d="M109.272 313.408C109.272 313.408 108.008 312.797 106.395 312.067" stroke="#263238" stroke-linecap="round" stroke-linejoin="round"/>
</svg>
