<svg width="1035" height="559" viewBox="0 0 1035 559" fill="none" xmlns="http://www.w3.org/2000/svg">
<g clip-path="url(#clip0_697_10530)">
<path d="M65.5576 466.859L62.3292 483.066C62.086 484.305 61.8317 485.567 61.5553 486.817C58.857 486.257 56.0593 486.414 53.4401 487.27C55.5181 490.242 57.3803 493.358 59.0124 496.596C56.978 502.869 53.9929 508.666 48.9955 512.859C45.6578 515.597 41.6714 517.428 37.4206 518.176C33.1699 518.924 28.7982 518.563 24.7273 517.129L24.871 516.487C19.4977 506.055 22.4165 492.901 29.0945 483.266C32.5004 478.512 36.536 474.243 41.0904 470.577C45.6012 466.815 50.477 463.441 55.3086 460.111C56.3937 459.364 57.6767 458.958 58.9936 458.945C60.3105 458.931 61.6016 459.311 62.7017 460.036C63.8019 460.76 64.6612 461.796 65.1699 463.012C65.6786 464.227 65.8136 465.567 65.5576 466.859Z" fill="#94A3B8"/>
<path d="M25.8769 556.125C24.5181 546.221 23.1206 536.19 24.0736 526.179C24.9205 517.289 27.6304 508.606 33.1496 501.486C36.079 497.714 39.6435 494.482 43.6828 491.935C44.7365 491.272 45.705 492.941 44.6569 493.603C37.668 498.022 32.2623 504.548 29.2192 512.24C25.8581 520.794 25.3186 530.119 25.9023 539.205C26.2528 544.7 26.9947 550.157 27.7432 555.611C27.8035 555.857 27.7672 556.118 27.6418 556.339C27.5164 556.56 27.3114 556.724 27.0688 556.799C26.8219 556.866 26.5587 556.832 26.3364 556.706C26.1141 556.579 25.9505 556.37 25.8813 556.124L25.8769 556.125Z" fill="#475569"/>
<path d="M37.5383 59.3343C84.8998 58.5102 132.266 58.3919 179.638 58.9792C227.003 59.5699 274.352 60.8695 321.685 62.8779C348.245 64.005 374.795 65.3552 401.334 66.9285C403.466 67.0548 403.459 63.7355 401.334 63.6097C354.048 60.8099 306.728 58.7149 259.373 57.3248C212.025 55.9384 164.663 55.2609 117.287 55.2922C90.7028 55.3099 64.1198 55.551 37.5383 56.0155C35.4063 56.0526 35.3996 59.3715 37.5383 59.3343Z" fill="#475569"/>
<path d="M367.603 38.5243L388.313 36.982C390.429 36.8244 390.446 33.5043 388.313 33.6631L367.603 35.2054C365.488 35.363 365.47 38.6831 367.603 38.5243Z" fill="#475569"/>
<path d="M367.603 58.4373L388.313 56.895C390.429 56.7375 390.446 53.4174 388.313 53.5762L367.603 55.1185C365.488 55.276 365.47 58.5962 367.603 58.4373Z" fill="#475569"/>
<path d="M366.045 49.3434L395.49 52.0201C397.615 52.2132 397.602 48.8932 395.49 48.7012L366.045 46.0246C363.92 45.8314 363.933 49.1515 366.045 49.3434Z" fill="#475569"/>
<path d="M49.7944 34.0609C48.3543 34.052 46.9433 34.4674 45.7375 35.2554C44.5317 36.0434 43.5843 37.1691 43.0135 38.4921C42.375 39.787 42.1779 41.2556 42.4523 42.6732C42.7268 44.0908 43.4577 45.3795 44.5334 46.3421C45.5445 47.2029 46.7573 47.7931 48.0583 48.0576C49.3593 48.3221 50.7061 48.2521 51.9728 47.8544C53.2682 47.4017 54.3915 46.5583 55.1882 45.4404C55.9848 44.3225 56.4155 42.985 56.4211 41.612C56.4789 40.0888 56.0665 38.5846 55.2399 37.3042C54.4133 36.0237 53.2127 35.0291 51.8012 34.4555C51.3771 34.3402 50.9247 34.3973 50.5426 34.6145C50.1604 34.8316 49.8795 35.191 49.7611 35.6145C49.6566 36.0384 49.7183 36.4863 49.9338 36.866C50.1493 37.2458 50.502 37.5284 50.9195 37.6558C51.2085 37.7675 50.6554 37.5136 50.9253 37.6607C51.0363 37.7212 51.1493 37.7759 51.2583 37.8404C51.3509 37.8953 51.4396 37.9554 51.5297 38.0143C51.8393 38.2165 51.3786 37.8659 51.5764 38.0476C51.7481 38.2052 51.9181 38.359 52.074 38.5329C52.133 38.5987 52.3641 38.7815 52.1845 38.6537C52.0471 38.556 52.1315 38.5789 52.1845 38.6575C52.2246 38.717 52.2671 38.775 52.3068 38.835C52.4361 39.0307 52.5536 39.234 52.6588 39.4438C52.6832 39.4923 52.7055 39.542 52.7302 39.5903C52.7767 39.6808 52.844 39.7045 52.7348 39.5912C52.6305 39.4828 52.6969 39.4903 52.7342 39.5945C52.7588 39.663 52.7856 39.7306 52.8094 39.7994C52.8872 40.0232 52.9525 40.2512 53.005 40.4823C53.0293 40.5891 53.0488 40.6966 53.0697 40.804C53.1438 41.1851 53.0589 40.5671 53.0768 40.8502C53.0918 41.0865 53.1092 41.3204 53.1051 41.5576C53.1032 41.6662 53.0985 41.7747 53.0909 41.883C53.0871 41.937 53.0811 41.9909 53.0775 42.045C53.0603 42.3054 53.0598 41.9498 53.0962 41.9255C53.0204 42.1465 52.9701 42.3755 52.9463 42.608C52.9166 42.7112 52.8813 42.8121 52.8483 42.9142C52.7329 43.2702 52.9566 42.7201 52.8337 42.9634C52.7324 43.1725 52.6193 43.3755 52.4948 43.5716C52.4408 43.6537 52.237 43.8391 52.4037 43.7101C52.5845 43.57 52.3089 43.8112 52.2501 43.8733C52.1745 43.953 52.0961 44.0299 52.0149 44.1041C51.9628 44.1549 51.9079 44.2027 51.8504 44.2472C51.8398 44.2419 52.1275 44.055 51.9724 44.1539C51.7754 44.2796 51.5888 44.4142 51.3811 44.5237C51.3569 44.5364 51.0914 44.6595 51.0926 44.6638C51.0811 44.619 51.4339 44.5395 51.1917 44.6178C51.1409 44.6343 51.091 44.6541 51.0403 44.6712C50.8198 44.7455 50.5948 44.8055 50.3666 44.8508C50.3144 44.8612 50.2591 44.8665 50.2077 44.8798C50.0362 44.9242 50.3715 44.8538 50.3816 44.8596C50.2548 44.8541 50.128 44.8654 50.0042 44.893C49.7689 44.9065 49.533 44.9065 49.2977 44.893C49.2432 44.8898 49.1889 44.8844 49.1345 44.8812C49.0081 44.8739 48.9154 44.7828 49.0835 44.8817C49.2133 44.958 49.2025 44.9023 49.0875 44.8811C49.0338 44.8711 48.9798 44.8628 48.926 44.8527C48.6931 44.8091 48.4628 44.7526 48.2361 44.6836C48.1142 44.6464 47.9946 44.6031 47.8743 44.5611C47.8219 44.5458 47.7708 44.5262 47.7217 44.5023C47.721 44.4886 48.0319 44.6509 47.8677 44.5624C47.6606 44.4507 47.4464 44.357 47.2441 44.235C47.1361 44.1698 47.0324 44.099 46.9275 44.0292C46.8813 44.0014 46.8374 43.9699 46.7962 43.9352C46.7997 43.9211 47.0533 44.1563 46.9202 44.0293C46.7518 43.8688 46.5717 43.725 46.4122 43.554C46.3757 43.5149 46.3412 43.474 46.3049 43.4348L46.2697 43.3946C46.1798 43.2846 46.1781 43.2851 46.2647 43.3961C46.3526 43.422 46.3486 43.5186 46.2652 43.3932C46.2355 43.3485 46.2039 43.3051 46.1742 43.2604C46.0395 43.0684 45.9247 42.8632 45.8314 42.6479C45.8395 42.6417 45.9751 43.0472 45.8714 42.7412C45.8518 42.6833 45.8298 42.6264 45.8106 42.5685C45.7725 42.4535 45.7389 42.3373 45.71 42.2197C45.6813 42.1033 45.6666 41.9832 45.6377 41.8673C45.5889 41.6718 45.6662 42.0215 45.6574 42.0127C45.6297 41.9854 45.6415 41.8159 45.6394 41.7754C45.6261 41.515 45.6558 41.2623 45.6604 41.0034C45.664 40.8029 45.6438 41.1597 45.6397 41.1492C45.6407 41.0892 45.6513 41.0297 45.6711 40.973C45.7012 40.8365 45.7291 40.7001 45.7658 40.5651C45.8079 40.4106 45.8564 40.2579 45.9112 40.1071C45.9317 40.0507 45.9566 39.9951 45.9757 39.9382C46.0455 39.7299 45.8375 40.1899 45.9522 40.002C46.1099 39.7435 46.2275 39.4637 46.395 39.2084C46.4347 39.1479 46.676 38.8107 46.5479 38.981C46.4204 39.1505 46.679 38.8292 46.728 38.7746C46.9314 38.5479 47.1707 38.3619 47.3813 38.1448C47.506 38.0164 47.2943 38.2081 47.2818 38.217C47.347 38.1704 47.4109 38.122 47.4769 38.0765C47.5921 37.9971 47.71 37.922 47.8308 37.8512C47.9669 37.7714 48.1207 37.712 48.2526 37.6276C48.4083 37.5278 48.1334 37.6714 48.1285 37.6744C48.1997 37.639 48.2741 37.6106 48.3507 37.5896C48.4791 37.544 49.0376 37.3029 49.1548 37.3783C49.1495 37.3749 48.7307 37.412 49.0692 37.3903C49.1492 37.3851 49.2289 37.3773 49.309 37.374C49.4711 37.3673 49.6326 37.3714 49.7945 37.3798C50.2334 37.3769 50.6536 37.2011 50.964 36.8906C51.2744 36.58 51.45 36.1596 51.4529 35.7203C51.4435 35.2832 51.2658 34.8665 50.9568 34.5573C50.6478 34.2482 50.2313 34.0703 49.7944 34.0609Z" fill="#475569"/>
<path d="M73.0124 34.0609C71.5723 34.052 70.1613 34.4674 68.9555 35.2554C67.7497 36.0434 66.8024 37.1691 66.2316 38.4921C65.593 39.787 65.3959 41.2556 65.6704 42.6732C65.9448 44.0908 66.6757 45.3795 67.7514 46.3421C68.7625 47.2029 69.9753 47.7931 71.2763 48.0576C72.5773 48.3221 73.9241 48.2521 75.1908 47.8544C76.4862 47.4017 77.6096 46.5583 78.4062 45.4404C79.2028 44.3225 79.6335 42.985 79.6391 41.612C79.6969 40.0888 79.2845 38.5846 78.4579 37.3042C77.6313 36.0237 76.4307 35.0291 75.0192 34.4555C74.5951 34.3402 74.1427 34.3973 73.7606 34.6145C73.3784 34.8316 73.0975 35.191 72.9792 35.6145C72.8746 36.0384 72.9364 36.4863 73.1518 36.866C73.3673 37.2458 73.7201 37.5284 74.1375 37.6558C74.4265 37.7675 73.8734 37.5136 74.1433 37.6607C74.2543 37.7212 74.3673 37.7759 74.4763 37.8404C74.5689 37.8953 74.6576 37.9554 74.7477 38.0143C75.0573 38.2165 74.5966 37.8659 74.7945 38.0476C74.9661 38.2052 75.1361 38.359 75.2921 38.5329C75.351 38.5987 75.5821 38.7815 75.4025 38.6537C75.2652 38.556 75.3496 38.5789 75.4025 38.6575C75.4427 38.717 75.4851 38.775 75.5248 38.835C75.6541 39.0307 75.7717 39.234 75.8768 39.4438C75.9012 39.4923 75.9235 39.542 75.9483 39.5903C75.9947 39.6808 76.062 39.7045 75.9528 39.5912C75.8485 39.4828 75.9149 39.4903 75.9523 39.5945C75.9768 39.663 76.0036 39.7306 76.0274 39.7994C76.1052 40.0232 76.1705 40.2512 76.223 40.4823C76.2473 40.5891 76.2668 40.6966 76.2877 40.804C76.3618 41.1851 76.277 40.5671 76.2948 40.8502C76.3098 41.0865 76.3272 41.3204 76.3231 41.5576C76.3212 41.6662 76.3165 41.7747 76.3089 41.883C76.3051 41.937 76.2991 41.9909 76.2956 42.045C76.2784 42.3054 76.2778 41.9498 76.3142 41.9255C76.2384 42.1465 76.1881 42.3755 76.1643 42.608C76.1346 42.7112 76.0994 42.8121 76.0663 42.9142C75.9509 43.2702 76.1747 42.7201 76.0517 42.9634C75.9505 43.1725 75.8373 43.3755 75.7128 43.5716C75.6588 43.6537 75.4551 43.8391 75.6217 43.7101C75.8025 43.57 75.5269 43.8112 75.4681 43.8733C75.3925 43.953 75.3142 44.0299 75.2329 44.1041C75.1809 44.1549 75.1259 44.2027 75.0684 44.2472C75.0579 44.2419 75.3455 44.055 75.1905 44.1539C74.9934 44.2796 74.8068 44.4142 74.5991 44.5237C74.575 44.5364 74.3095 44.6595 74.3106 44.6638C74.2991 44.619 74.6519 44.5395 74.4097 44.6178C74.3589 44.6343 74.309 44.6541 74.2583 44.6712C74.0378 44.7455 73.8128 44.8055 73.5846 44.8508C73.5324 44.8612 73.4772 44.8665 73.4257 44.8798C73.2543 44.9242 73.5895 44.8538 73.5996 44.8596C73.4729 44.8541 73.346 44.8654 73.2222 44.893C72.9869 44.9065 72.751 44.9065 72.5157 44.893C72.4612 44.8898 72.4069 44.8844 72.3525 44.8812C72.2261 44.8739 72.1334 44.7828 72.3015 44.8817C72.4313 44.958 72.4205 44.9023 72.3056 44.8811C72.2518 44.8711 72.1978 44.8628 72.144 44.8527C71.9111 44.8091 71.6808 44.7526 71.4542 44.6836C71.3322 44.6464 71.2127 44.6031 71.0923 44.5611C71.0399 44.5458 70.9888 44.5262 70.9397 44.5023C70.939 44.4886 71.2499 44.6509 71.0858 44.5624C70.8786 44.4507 70.6644 44.357 70.4621 44.235C70.3542 44.1698 70.2505 44.099 70.1455 44.0292C70.0993 44.0014 70.0555 43.9699 70.0143 43.9352C70.0177 43.9211 70.2714 44.1563 70.1382 44.0293C69.9698 43.8688 69.7897 43.725 69.6302 43.554C69.5937 43.5149 69.5592 43.474 69.5229 43.4348L69.4877 43.3946C69.3978 43.2846 69.3961 43.2851 69.4827 43.3961C69.5706 43.422 69.5666 43.5186 69.4832 43.3932C69.4535 43.3485 69.4219 43.3051 69.3922 43.2604C69.2575 43.0684 69.1427 42.8632 69.0494 42.6479C69.0575 42.6417 69.1931 43.0472 69.0894 42.7412C69.0698 42.6833 69.0478 42.6264 69.0286 42.5685C68.9905 42.4535 68.957 42.3373 68.928 42.2197C68.8993 42.1033 68.8846 41.9832 68.8557 41.8673C68.807 41.6718 68.8842 42.0215 68.8754 42.0127C68.8477 41.9854 68.8595 41.8159 68.8574 41.7754C68.8442 41.515 68.8738 41.2623 68.8784 41.0034C68.882 40.8029 68.8619 41.1597 68.8577 41.1492C68.8587 41.0892 68.8693 41.0297 68.8892 40.973C68.9192 40.8365 68.9471 40.7001 68.9839 40.5651C69.0259 40.4106 69.0744 40.2579 69.1292 40.1071C69.1497 40.0507 69.1746 39.9951 69.1937 39.9382C69.2635 39.7299 69.0555 40.1899 69.1702 40.002C69.328 39.7435 69.4455 39.4637 69.613 39.2084C69.6527 39.1479 69.8941 38.8107 69.766 38.981C69.6384 39.1505 69.8971 38.8292 69.946 38.7746C70.1495 38.5479 70.3887 38.3619 70.5993 38.1448C70.724 38.0164 70.5123 38.2081 70.4998 38.217C70.565 38.1704 70.6289 38.122 70.6949 38.0765C70.8101 37.9971 70.928 37.922 71.0488 37.8512C71.1849 37.7714 71.3387 37.712 71.4706 37.6276C71.6264 37.5278 71.3514 37.6714 71.3465 37.6744C71.4177 37.639 71.4921 37.6106 71.5687 37.5896C71.6971 37.544 72.2556 37.3029 72.3728 37.3783C72.3675 37.3749 71.9487 37.412 72.2872 37.3903C72.3672 37.3851 72.4469 37.3773 72.527 37.374C72.6891 37.3673 72.8506 37.3714 73.0125 37.3798C73.4515 37.3769 73.8716 37.2011 74.182 36.8906C74.4924 36.58 74.668 36.1596 74.6709 35.7203C74.6615 35.2832 74.4838 34.8665 74.1748 34.5573C73.8658 34.2482 73.4493 34.0703 73.0124 34.0609Z" fill="#475569"/>
<path d="M96.2302 34.0609C94.7901 34.052 93.3791 34.4674 92.1733 35.2554C90.9675 36.0434 90.0201 37.1691 89.4493 38.4921C88.8108 39.787 88.6137 41.2556 88.8881 42.6732C89.1626 44.0908 89.8935 45.3795 90.9691 46.3421C91.9803 47.2029 93.1931 47.7931 94.4941 48.0576C95.7951 48.3221 97.1419 48.2521 98.4086 47.8544C99.704 47.4017 100.827 46.5583 101.624 45.4404C102.421 44.3225 102.851 42.985 102.857 41.612C102.915 40.0888 102.502 38.5846 101.676 37.3042C100.849 36.0237 99.6485 35.0291 98.237 34.4555C97.8129 34.3402 97.3605 34.3973 96.9784 34.6145C96.5962 34.8316 96.3153 35.191 96.1969 35.6145C96.0923 36.0384 96.1541 36.4863 96.3696 36.866C96.5851 37.2458 96.9378 37.5284 97.3553 37.6558C97.6443 37.7675 97.0912 37.5136 97.3611 37.6607C97.472 37.7212 97.5851 37.7759 97.6941 37.8404C97.7867 37.8953 97.8754 37.9554 97.9655 38.0143C98.2751 38.2165 97.8144 37.8659 98.0122 38.0476C98.1838 38.2052 98.3539 38.359 98.5098 38.5329C98.5688 38.5987 98.7999 38.7815 98.6203 38.6537C98.4829 38.556 98.5673 38.5789 98.6203 38.6575C98.6604 38.717 98.7029 38.775 98.7426 38.835C98.8719 39.0307 98.9894 39.234 99.0946 39.4438C99.119 39.4923 99.1412 39.542 99.166 39.5903C99.2125 39.6808 99.2798 39.7045 99.1706 39.5912C99.0663 39.4828 99.1327 39.4903 99.17 39.5945C99.1946 39.663 99.2213 39.7306 99.2452 39.7994C99.323 40.0232 99.3883 40.2512 99.4407 40.4823C99.4651 40.5891 99.4846 40.6966 99.5055 40.804C99.5796 41.1851 99.4947 40.5671 99.5126 40.8502C99.5276 41.0865 99.545 41.3204 99.5409 41.5576C99.539 41.6662 99.5343 41.7747 99.5267 41.883C99.5229 41.937 99.5169 41.9909 99.5133 42.045C99.4961 42.3054 99.4956 41.9498 99.532 41.9255C99.4562 42.1465 99.4059 42.3755 99.3821 42.608C99.3524 42.7112 99.3171 42.8121 99.2841 42.9142C99.1687 43.2702 99.3924 42.7201 99.2694 42.9634C99.1682 43.1725 99.0551 43.3755 98.9306 43.5716C98.8766 43.6537 98.6728 43.8391 98.8395 43.7101C99.0203 43.57 98.7447 43.8112 98.6859 43.8733C98.6103 43.953 98.5319 44.0299 98.4507 44.1041C98.3986 44.1549 98.3437 44.2027 98.2862 44.2472C98.2756 44.2419 98.5633 44.055 98.4082 44.1539C98.2112 44.2796 98.0246 44.4142 97.8169 44.5237C97.7927 44.5364 97.5272 44.6595 97.5283 44.6638C97.5169 44.619 97.8697 44.5395 97.6275 44.6178C97.5766 44.6343 97.5268 44.6541 97.4761 44.6712C97.2556 44.7455 97.0306 44.8055 96.8024 44.8508C96.7502 44.8612 96.6949 44.8665 96.6435 44.8798C96.472 44.9242 96.8073 44.8538 96.8174 44.8596C96.6906 44.8541 96.5637 44.8654 96.44 44.893C96.2046 44.9065 95.9688 44.9065 95.7335 44.893C95.679 44.8898 95.6247 44.8844 95.5703 44.8812C95.4439 44.8739 95.3512 44.7828 95.5193 44.8817C95.6491 44.958 95.6383 44.9023 95.5233 44.8811C95.4696 44.8711 95.4156 44.8628 95.3618 44.8527C95.1289 44.8091 94.8986 44.7526 94.6719 44.6836C94.5499 44.6464 94.4304 44.6031 94.3101 44.5611C94.2577 44.5458 94.2066 44.5262 94.1575 44.5023C94.1568 44.4886 94.4677 44.6509 94.3035 44.5624C94.0964 44.4507 93.8821 44.357 93.6799 44.235C93.5719 44.1698 93.4682 44.099 93.3633 44.0292C93.3171 44.0014 93.2732 43.9699 93.232 43.9352C93.2355 43.9211 93.4891 44.1563 93.356 44.0293C93.1876 43.8688 93.0075 43.725 92.848 43.554C92.8115 43.5149 92.777 43.474 92.7407 43.4348L92.7055 43.3946C92.6156 43.2846 92.6139 43.2851 92.7005 43.3961C92.7884 43.422 92.7844 43.5186 92.701 43.3932C92.6712 43.3485 92.6397 43.3051 92.61 43.2604C92.4753 43.0684 92.3605 42.8632 92.2672 42.6479C92.2753 42.6417 92.4109 43.0472 92.3072 42.7412C92.2876 42.6833 92.2656 42.6264 92.2464 42.5685C92.2083 42.4535 92.1747 42.3373 92.1458 42.2197C92.1171 42.1033 92.1024 41.9832 92.0735 41.8673C92.0247 41.6718 92.1019 42.0215 92.0931 42.0127C92.0655 41.9854 92.0773 41.8159 92.0752 41.7754C92.0619 41.515 92.0916 41.2623 92.0962 41.0034C92.0998 40.8029 92.0796 41.1597 92.0754 41.1492C92.0765 41.0892 92.0871 41.0297 92.1069 40.973C92.1369 40.8365 92.1649 40.7001 92.2016 40.5651C92.2437 40.4106 92.2922 40.2579 92.347 40.1071C92.3675 40.0507 92.3924 39.9951 92.4115 39.9382C92.4813 39.7299 92.2733 40.1899 92.388 40.002C92.5457 39.7435 92.6633 39.4637 92.8308 39.2084C92.8705 39.1479 93.1118 38.8107 92.9837 38.981C92.8562 39.1505 93.1148 38.8292 93.1638 38.7746C93.3672 38.5479 93.6065 38.3619 93.8171 38.1448C93.9417 38.0164 93.7301 38.2081 93.7176 38.217C93.7828 38.1704 93.8467 38.122 93.9127 38.0765C94.0278 37.9971 94.1458 37.922 94.2666 37.8512C94.4027 37.7714 94.5565 37.712 94.6884 37.6276C94.8441 37.5278 94.5692 37.6714 94.5643 37.6744C94.6354 37.639 94.7099 37.6106 94.7865 37.5896C94.9149 37.544 95.4734 37.3029 95.5905 37.3783C95.5852 37.3749 95.1665 37.412 95.505 37.3903C95.585 37.3851 95.6647 37.3773 95.7448 37.374C95.9069 37.3673 96.0684 37.3714 96.2303 37.3798C96.6692 37.3769 97.0894 37.2011 97.3998 36.8906C97.7102 36.58 97.8858 36.1596 97.8887 35.7203C97.8793 35.2832 97.7016 34.8665 97.3926 34.5573C97.0836 34.2482 96.6671 34.0703 96.2302 34.0609Z" fill="#475569"/>
<path d="M431.644 401.581H24.8828C19.7393 401.575 14.808 399.528 11.1709 395.889C7.53384 392.25 5.48797 387.315 5.48218 382.169V19.4123C5.48795 14.2656 7.53378 9.33139 11.1709 5.69212C14.8079 2.05284 19.7392 0.00577129 24.8828 0H431.644C436.788 0.0057713 441.719 2.05284 445.356 5.69212C448.993 9.33139 451.039 14.2656 451.045 19.4123V382.169C451.039 387.315 448.993 392.25 445.356 395.889C441.719 399.528 436.788 401.575 431.644 401.581ZM24.8828 2.21257C20.3255 2.21775 15.9563 4.03153 12.7338 7.256C9.51128 10.4805 7.69859 14.8523 7.69341 19.4123V382.169C7.69871 386.729 9.51145 391.1 12.734 394.325C15.9565 397.549 20.3256 399.363 24.8828 399.368H431.644C436.201 399.363 440.57 397.549 443.793 394.325C447.015 391.1 448.828 386.729 448.833 382.169V19.4123C448.828 14.8523 447.016 10.4805 443.793 7.256C440.571 4.03153 436.201 2.21776 431.644 2.21257H24.8828Z" fill="#475569"/>
<path d="M24.2089 246.818L167.252 246.383L309.566 245.95L389.845 245.705C390.275 245.69 390.683 245.509 390.982 245.199C391.28 244.89 391.447 244.476 391.447 244.046C391.447 243.615 391.28 243.202 390.982 242.892C390.683 242.583 390.275 242.401 389.845 242.386L246.802 242.822L104.488 243.255L24.2089 243.499C23.779 243.514 23.3717 243.696 23.0728 244.005C22.774 244.315 22.6069 244.728 22.6069 245.159C22.6069 245.589 22.774 246.003 23.0728 246.312C23.3717 246.622 23.779 246.803 24.2089 246.818Z" fill="#475569"/>
<path d="M96.3721 244.128L97.2566 191.87C97.2927 189.734 93.9759 189.733 93.9397 191.87L93.0552 244.128C93.0191 246.264 96.3359 246.264 96.3721 244.128Z" fill="#475569"/>
<path d="M164.738 244.693L166.894 179.008L167.509 160.241C167.58 158.105 164.263 158.107 164.193 160.241L162.037 225.926L161.421 244.693C161.351 246.829 164.668 246.827 164.738 244.693Z" fill="#475569"/>
<path d="M232.92 129.105C231.619 152.37 229.214 220.992 227.914 244.257C227.794 246.391 231.112 246.385 231.23 244.257C232.531 220.992 234.936 152.37 236.236 129.105C236.356 126.971 233.038 126.977 232.92 129.105Z" fill="#475569"/>
<path d="M300.773 220.913L300.366 243.274C300.327 245.411 303.644 245.411 303.683 243.274C304.163 216.864 305.395 217.724 305.53 210.271C305.569 208.134 302.252 208.134 302.213 210.271C302.213 210.271 301.253 194.502 300.773 220.913Z" fill="#475569"/>
<path d="M367.233 162.168L367.609 224.904L367.716 242.868C367.731 243.298 367.912 243.706 368.221 244.005C368.531 244.304 368.944 244.471 369.374 244.471C369.805 244.471 370.218 244.304 370.527 244.005C370.837 243.706 371.018 243.298 371.033 242.868L370.658 180.132L370.55 162.168C370.535 161.738 370.354 161.331 370.045 161.032C369.735 160.733 369.322 160.566 368.892 160.566C368.462 160.566 368.048 160.733 367.739 161.032C367.43 161.331 367.248 161.738 367.233 162.168Z" fill="#475569"/>
<path d="M24.4758 244.951C21.7303 237.402 27.9192 230.141 34.2785 226.878C41.8972 222.97 50.6617 222.084 58.3613 218.315C69.8401 212.698 78.2008 202.616 85.6404 192.524C93.2976 182.137 100.304 170.989 110.034 162.358C115.161 157.709 121.216 154.202 127.8 152.071C136.094 149.48 144.891 149.303 153.462 150.347C171.172 152.504 187.59 159.823 204.678 164.475C220.789 168.861 238.541 171.327 254.354 164.507C262.389 161.042 268.959 155.23 276.016 150.201C282.845 145.282 290.481 141.597 298.579 139.31C314.454 134.893 331.79 136.072 346.569 143.539C360.154 150.314 370.91 161.674 376.94 175.613C383.946 192.36 383.034 211.076 380.745 228.703C380.153 233.26 379.449 237.801 378.738 242.34C378.41 244.43 381.606 245.33 381.936 243.222C384.786 225.045 387.627 206.293 384.081 188.001C381.015 172.029 372.238 157.723 359.392 147.758C346.491 137.767 330.455 132.703 314.16 133.475C305.62 133.871 297.214 135.742 289.312 139.004C281.109 142.399 274.163 147.431 267.107 152.726C259.853 158.17 252.375 162.673 243.368 164.449C234.632 166.171 225.544 165.526 216.847 163.899C198.9 160.544 182.172 152.853 164.377 148.912C147.891 145.261 130.1 144.896 115.337 154.216C103.981 161.384 95.9566 172.514 88.2556 183.26C80.622 193.912 72.8919 205.303 61.7296 212.58C54.9204 217.018 47.2661 218.656 39.649 221.153C32.0122 223.655 24.6807 227.877 21.5669 235.706C20.2249 238.931 20.1218 242.538 21.2774 245.833C22.0016 247.825 25.2081 246.965 24.4758 244.951Z" fill="#475569"/>
<path d="M95.2727 184.644L95.2673 184.647L95.2781 184.644H95.2727Z" fill="#475569"/>
<path d="M101.023 181.591C100.256 180.233 99.0333 179.19 97.5712 178.649C96.1091 178.108 94.5025 178.102 93.0368 178.634C92.3082 178.9 91.6404 179.309 91.0727 179.838C90.5051 180.367 90.0492 181.005 89.732 181.713C89.6685 181.863 89.6314 182.022 89.5796 182.176C89.5077 182.292 89.4213 182.397 89.357 182.519C88.6695 183.889 88.4813 185.457 88.8247 186.952C89.1681 188.446 90.0216 189.774 91.2382 190.707C92.4549 191.639 93.9585 192.118 95.4901 192.061C97.0216 192.004 98.4853 191.414 99.629 190.393C100.831 189.306 101.625 187.84 101.878 186.238C102.132 184.637 101.83 182.997 101.023 181.591ZM96.8687 184.41C96.8773 184.57 96.8823 184.493 96.8687 184.41V184.41ZM96.4465 183.449C96.4302 183.43 96.4322 183.432 96.4465 183.449V183.449ZM94.5853 184.198C94.558 184.153 94.5604 184.159 94.5853 184.198V184.198ZM95.0265 184.572C95.09 184.6 95.1315 184.608 95.0265 184.572V184.572ZM95.2235 184.666L95.2671 184.646C95.2564 184.647 95.2457 184.645 95.2362 184.64L95.2375 184.64L95.2717 184.644L95.2781 184.641L95.2583 184.636C95.2755 184.636 95.277 184.638 95.2781 184.641C95.4754 184.551 95.3423 184.594 95.2279 184.629L95.2203 184.628C95.1488 184.591 95.0721 184.567 94.9929 184.555C94.9856 184.55 94.9769 184.547 94.9708 184.543C94.9073 184.498 94.5863 184.247 94.8841 184.51C94.8193 184.453 94.7552 184.396 94.6943 184.335C94.6584 184.298 94.6258 184.258 94.597 184.215C94.5579 184.148 94.5201 184.08 94.4834 184.012L94.4778 183.975C94.473 183.945 94.4693 183.932 94.4653 183.914C94.4672 183.895 94.4702 183.874 94.4732 183.855C94.4954 183.795 94.5096 183.732 94.5153 183.669L94.5281 183.653C94.5758 183.586 94.6175 183.509 94.6629 183.44C94.4226 183.805 94.7569 183.399 94.7819 183.348C94.7862 183.339 94.7787 183.344 94.7806 183.338C94.7903 183.332 94.7873 183.336 94.7991 183.329C94.8735 183.285 94.9441 183.236 95.0198 183.194C95.1099 183.145 95.4647 183.044 95.0967 183.149C95.1803 183.125 95.2606 183.095 95.345 183.073C95.3604 183.069 95.4843 183.051 95.551 183.039C95.6096 183.038 95.6665 183.036 95.6725 183.036C95.7 183.037 95.7275 183.04 95.7551 183.041C95.694 183.049 95.9646 183.108 96.045 183.12C96.0566 183.129 96.0626 183.135 96.0784 183.147C96.1463 183.197 96.229 183.241 96.3007 183.287C95.98 183.08 96.3049 183.304 96.3662 183.365C96.4028 183.402 96.4366 183.441 96.471 183.479C96.5026 183.516 96.5312 183.555 96.5565 183.596C96.609 183.693 96.665 183.79 96.7202 183.885L96.7356 183.91C96.7352 183.913 96.7351 183.916 96.7351 183.919C96.7639 184.073 96.8064 184.224 96.8621 184.37C96.8648 184.382 96.8669 184.395 96.8684 184.408C96.8735 184.492 96.8805 184.576 96.8807 184.661L96.88 184.678C96.6246 184.545 96.3411 184.474 96.0531 184.472C95.7651 184.47 95.4807 184.536 95.2235 184.666Z" fill="#475569"/>
<path d="M95.2821 184.642C95.2865 184.643 95.2812 184.644 95.2812 184.644L95.2821 184.642Z" fill="#475569"/>
<path d="M95.2828 184.644L95.2761 184.645C95.2846 184.646 95.2828 184.644 95.2828 184.644Z" fill="#475569"/>
<path d="M95.2786 184.641L95.2816 184.642L95.2786 184.641Z" fill="#475569"/>
<path d="M166.032 153.668L166.027 153.671L166.038 153.668H166.032Z" fill="#475569"/>
<path d="M171.782 150.615C171.015 149.257 169.792 148.215 168.33 147.673C166.868 147.132 165.262 147.126 163.796 147.658C163.067 147.924 162.4 148.334 161.832 148.862C161.264 149.391 160.808 150.029 160.491 150.737C160.428 150.887 160.391 151.046 160.339 151.2C160.267 151.316 160.181 151.421 160.116 151.543C159.429 152.913 159.241 154.481 159.584 155.976C159.927 157.47 160.781 158.798 161.998 159.731C163.214 160.664 164.718 161.142 166.249 161.085C167.781 161.028 169.245 160.438 170.388 159.417C171.59 158.33 172.384 156.864 172.638 155.262C172.891 153.661 172.589 152.021 171.782 150.615ZM167.628 153.434C167.637 153.594 167.642 153.518 167.628 153.434V153.434ZM167.206 152.473C167.189 152.454 167.192 152.456 167.206 152.473V152.473ZM165.345 153.222C165.317 153.177 165.32 153.183 165.345 153.222V153.222ZM165.786 153.596C165.849 153.624 165.891 153.632 165.786 153.596V153.596ZM165.983 153.69L166.026 153.67C166.016 153.671 166.005 153.669 165.995 153.664L165.997 153.664L166.031 153.668L166.037 153.665L166.018 153.66C166.035 153.66 166.036 153.662 166.037 153.665C166.235 153.575 166.101 153.618 165.987 153.653L165.979 153.652C165.908 153.615 165.831 153.591 165.752 153.579C165.745 153.574 165.736 153.572 165.73 153.567C165.666 153.522 165.346 153.271 165.643 153.534C165.578 153.477 165.514 153.421 165.453 153.359C165.418 153.322 165.385 153.282 165.356 153.239C165.317 153.172 165.279 153.104 165.243 153.036L165.237 152.999C165.232 152.969 165.229 152.956 165.225 152.938C165.226 152.919 165.229 152.898 165.232 152.879C165.255 152.819 165.269 152.757 165.275 152.693L165.287 152.677C165.335 152.61 165.377 152.533 165.422 152.464C165.182 152.829 165.516 152.423 165.541 152.372C165.545 152.363 165.538 152.368 165.54 152.362C165.549 152.357 165.547 152.36 165.558 152.353C165.633 152.309 165.703 152.26 165.779 152.219C165.869 152.169 166.224 152.068 165.856 152.173C165.94 152.149 166.02 152.119 166.104 152.097C166.12 152.093 166.243 152.076 166.31 152.064C166.369 152.062 166.426 152.06 166.432 152.06C166.459 152.061 166.487 152.064 166.514 152.065C166.453 152.073 166.724 152.132 166.804 152.144C166.816 152.153 166.822 152.159 166.838 152.171C166.906 152.221 166.988 152.265 167.06 152.311C166.739 152.104 167.064 152.328 167.125 152.389C167.162 152.426 167.196 152.465 167.23 152.503C167.262 152.54 167.29 152.579 167.316 152.62C167.368 152.717 167.424 152.814 167.479 152.909L167.495 152.934C167.494 152.937 167.494 152.94 167.494 152.943C167.523 153.097 167.566 153.248 167.621 153.394C167.624 153.407 167.626 153.419 167.628 153.432C167.633 153.516 167.64 153.6 167.64 153.685L167.639 153.702C167.384 153.569 167.1 153.498 166.812 153.496C166.524 153.494 166.24 153.56 165.983 153.69Z" fill="#475569"/>
<path d="M166.042 153.668L166.036 153.669C166.044 153.67 166.042 153.668 166.042 153.668Z" fill="#475569"/>
<path d="M166.038 153.665L166.041 153.666L166.038 153.665Z" fill="#475569"/>
<path d="M166.041 153.666C166.046 153.668 166.041 153.668 166.041 153.668L166.041 153.666Z" fill="#475569"/>
<path d="M234.586 169.153L234.589 169.154L234.586 169.153Z" fill="#475569"/>
<path d="M240.33 119.639C239.564 118.281 238.341 117.239 236.878 116.697C235.416 116.156 233.81 116.15 232.344 116.682C231.616 116.948 230.948 117.358 230.38 117.887C229.812 118.415 229.357 119.053 229.039 119.761C228.976 119.911 228.939 120.07 228.887 120.224C228.815 120.34 228.729 120.445 228.664 120.567C227.977 121.937 227.789 123.505 228.132 125C228.475 126.494 229.329 127.822 230.546 128.755C231.762 129.688 233.266 130.167 234.797 130.109C236.329 130.052 237.793 129.462 238.936 128.441C240.138 127.354 240.932 125.888 241.186 124.287C241.439 122.685 241.137 121.045 240.33 119.639ZM236.176 122.458C236.185 122.619 236.19 122.542 236.176 122.458V122.458ZM235.754 121.497C235.738 121.478 235.74 121.48 235.754 121.497V121.497ZM233.893 122.246C233.865 122.201 233.868 122.208 233.893 122.246V122.246ZM234.334 122.62C234.397 122.648 234.439 122.656 234.334 122.62V122.62ZM234.531 122.714L234.574 122.694C234.564 122.695 234.553 122.693 234.544 122.688L234.545 122.688L234.579 122.692L234.585 122.689L234.566 122.685C234.583 122.684 234.584 122.686 234.585 122.689C234.783 122.599 234.65 122.642 234.535 122.677L234.528 122.676C234.456 122.639 234.379 122.615 234.3 122.603C234.293 122.599 234.284 122.596 234.278 122.591C234.215 122.546 233.894 122.295 234.191 122.558C234.127 122.501 234.063 122.445 234.002 122.383C233.966 122.346 233.933 122.306 233.904 122.263C233.865 122.196 233.827 122.129 233.791 122.06L233.785 122.024C233.78 121.993 233.777 121.98 233.773 121.962C233.774 121.943 233.778 121.922 233.78 121.903C233.803 121.843 233.817 121.781 233.823 121.717L233.835 121.701C233.883 121.635 233.925 121.557 233.97 121.488C233.73 121.853 234.064 121.447 234.089 121.396C234.093 121.387 234.086 121.392 234.088 121.386C234.098 121.381 234.095 121.384 234.106 121.377C234.181 121.334 234.251 121.285 234.327 121.243C234.417 121.193 234.772 121.092 234.404 121.197C234.488 121.173 234.568 121.143 234.652 121.121C234.668 121.117 234.792 121.1 234.858 121.088C234.917 121.086 234.974 121.084 234.98 121.084C235.007 121.085 235.035 121.088 235.062 121.089C235.001 121.098 235.272 121.156 235.352 121.168C235.364 121.178 235.37 121.183 235.386 121.195C235.454 121.245 235.536 121.289 235.608 121.335C235.287 121.128 235.612 121.352 235.673 121.413C235.71 121.45 235.744 121.489 235.778 121.527C235.81 121.564 235.839 121.603 235.864 121.645C235.916 121.741 235.972 121.839 236.028 121.933L236.043 121.958C236.043 121.961 236.042 121.964 236.042 121.967C236.071 122.121 236.114 122.272 236.169 122.418C236.172 122.431 236.174 122.443 236.176 122.456C236.181 122.54 236.188 122.624 236.188 122.709L236.187 122.726C235.932 122.593 235.648 122.522 235.36 122.52C235.072 122.518 234.788 122.585 234.531 122.714Z" fill="#475569"/>
<path d="M234.58 169.156L234.575 169.159L234.585 169.156H234.58Z" fill="#475569"/>
<path d="M234.59 169.156L234.583 169.157C234.592 169.158 234.59 169.156 234.59 169.156Z" fill="#475569"/>
<path d="M234.589 169.154C234.594 169.155 234.589 169.156 234.589 169.156L234.589 169.154Z" fill="#475569"/>
<path d="M309.984 204.823C309.217 203.465 307.994 202.422 306.532 201.881C305.07 201.339 303.463 201.334 301.998 201.866C301.269 202.132 300.601 202.541 300.034 203.07C299.466 203.599 299.01 204.236 298.693 204.945C298.629 205.095 298.592 205.253 298.541 205.408C298.469 205.524 298.382 205.629 298.318 205.751C297.63 207.121 297.442 208.689 297.786 210.183C298.129 211.678 298.983 213.006 300.199 213.939C301.416 214.871 302.919 215.35 304.451 215.293C305.983 215.236 307.446 214.646 308.59 213.625C309.792 212.538 310.586 211.072 310.839 209.47C311.093 207.869 310.791 206.229 309.984 204.823ZM305.83 207.642C305.838 207.802 305.843 207.725 305.83 207.642V207.642ZM305.407 206.681C305.391 206.662 305.393 206.664 305.407 206.681V206.681ZM303.546 207.43C303.519 207.385 303.521 207.391 303.546 207.43V207.43ZM303.987 207.804C304.051 207.832 304.092 207.84 303.987 207.804V207.804ZM304.184 207.898L304.228 207.878C304.217 207.879 304.207 207.877 304.197 207.872L304.198 207.871L304.233 207.876L304.239 207.873L304.219 207.868C304.236 207.868 304.238 207.87 304.239 207.873C304.436 207.782 304.303 207.826 304.189 207.861L304.181 207.859C304.11 207.823 304.033 207.799 303.954 207.786C303.946 207.782 303.938 207.779 303.932 207.775C303.868 207.73 303.547 207.479 303.845 207.742C303.78 207.685 303.716 207.628 303.655 207.567C303.619 207.53 303.587 207.49 303.558 207.447C303.519 207.38 303.481 207.312 303.444 207.244L303.439 207.207C303.434 207.177 303.43 207.164 303.426 207.146C303.428 207.127 303.431 207.106 303.434 207.086C303.456 207.027 303.47 206.964 303.476 206.901L303.489 206.885C303.537 206.818 303.578 206.741 303.624 206.672C303.383 207.037 303.718 206.631 303.743 206.58C303.747 206.571 303.74 206.576 303.741 206.57C303.751 206.564 303.748 206.568 303.76 206.561C303.834 206.517 303.905 206.468 303.981 206.426C304.071 206.376 304.426 206.276 304.058 206.381C304.141 206.357 304.221 206.327 304.306 206.305C304.321 206.301 304.445 206.283 304.512 206.271C304.57 206.27 304.627 206.268 304.633 206.268C304.661 206.269 304.688 206.272 304.716 206.273C304.655 206.281 304.926 206.34 305.006 206.352C305.017 206.361 305.023 206.367 305.039 206.379C305.107 206.428 305.19 206.473 305.262 206.519C304.941 206.312 305.266 206.535 305.327 206.597C305.364 206.633 305.397 206.673 305.432 206.711C305.464 206.748 305.492 206.787 305.517 206.828C305.57 206.925 305.626 207.022 305.681 207.117L305.696 207.142C305.696 207.145 305.696 207.148 305.696 207.151C305.725 207.305 305.767 207.456 305.823 207.602C305.826 207.614 305.828 207.627 305.829 207.64C305.834 207.724 305.841 207.808 305.842 207.893L305.841 207.91C305.585 207.776 305.302 207.706 305.014 207.704C304.726 207.702 304.442 207.768 304.184 207.898Z" fill="#475569"/>
<path d="M304.234 134.861L304.229 134.864L304.239 134.861H304.234Z" fill="#475569"/>
<path d="M304.244 134.861L304.237 134.862C304.246 134.863 304.244 134.861 304.244 134.861Z" fill="#475569"/>
<path d="M304.243 134.859C304.247 134.861 304.242 134.861 304.242 134.861L304.243 134.859Z" fill="#475569"/>
<path d="M304.24 134.858L304.242 134.86L304.24 134.858Z" fill="#475569"/>
<path d="M375.215 153.934C374.449 152.576 373.226 151.533 371.764 150.992C370.301 150.45 368.695 150.445 367.229 150.977C366.501 151.243 365.833 151.652 365.265 152.181C364.697 152.71 364.242 153.347 363.924 154.056C363.861 154.206 363.824 154.364 363.772 154.519C363.7 154.635 363.614 154.74 363.549 154.862C362.862 156.232 362.674 157.8 363.017 159.294C363.36 160.789 364.214 162.117 365.431 163.05C366.647 163.982 368.151 164.461 369.682 164.404C371.214 164.347 372.678 163.757 373.821 162.736C375.023 161.649 375.817 160.183 376.071 158.581C376.324 156.98 376.022 155.34 375.215 153.934ZM371.061 156.753C371.07 156.913 371.075 156.836 371.061 156.753V156.753ZM370.639 155.792C370.623 155.773 370.625 155.775 370.639 155.792V155.792ZM368.778 156.541C368.75 156.496 368.753 156.502 368.778 156.541V156.541ZM369.219 156.915C369.282 156.943 369.324 156.951 369.219 156.915V156.915ZM369.416 157.009L369.459 156.989C369.449 156.99 369.438 156.988 369.429 156.983L369.43 156.982L369.464 156.987L369.47 156.984L369.451 156.979C369.468 156.979 369.469 156.981 369.47 156.984C369.668 156.893 369.535 156.937 369.42 156.972L369.413 156.97C369.341 156.934 369.264 156.91 369.185 156.897C369.178 156.893 369.169 156.89 369.163 156.886C369.1 156.841 368.779 156.59 369.076 156.853C369.012 156.796 368.948 156.739 368.887 156.678C368.851 156.641 368.818 156.601 368.789 156.558C368.75 156.491 368.712 156.423 368.676 156.355L368.67 156.318C368.665 156.288 368.662 156.275 368.658 156.257C368.659 156.238 368.663 156.217 368.666 156.197C368.688 156.138 368.702 156.075 368.708 156.012L368.72 155.996C368.768 155.929 368.81 155.852 368.855 155.783C368.615 156.148 368.949 155.742 368.974 155.691C368.978 155.682 368.971 155.687 368.973 155.681C368.983 155.675 368.98 155.679 368.991 155.672C369.066 155.628 369.136 155.579 369.212 155.537C369.302 155.487 369.657 155.387 369.289 155.492C369.373 155.468 369.453 155.438 369.537 155.416C369.553 155.412 369.677 155.394 369.743 155.382C369.802 155.381 369.859 155.379 369.865 155.379C369.892 155.38 369.92 155.383 369.947 155.384C369.886 155.392 370.157 155.451 370.237 155.463C370.249 155.472 370.255 155.478 370.271 155.49C370.339 155.539 370.421 155.584 370.493 155.63C370.172 155.423 370.497 155.646 370.558 155.708C370.595 155.744 370.629 155.784 370.663 155.822C370.695 155.859 370.724 155.898 370.749 155.939C370.801 156.036 370.857 156.133 370.913 156.228L370.928 156.253C370.928 156.256 370.927 156.259 370.927 156.262C370.956 156.416 370.999 156.567 371.054 156.713C371.057 156.725 371.059 156.738 371.061 156.751C371.066 156.835 371.073 156.919 371.073 157.004L371.072 157.021C370.817 156.887 370.533 156.817 370.245 156.815C369.957 156.813 369.673 156.879 369.416 157.009Z" fill="#475569"/>
<path d="M369.465 156.987L369.46 156.99L369.47 156.987H369.465Z" fill="#475569"/>
<path d="M369.471 156.984L369.474 156.985L369.471 156.984Z" fill="#475569"/>
<path d="M369.474 156.985C369.479 156.986 369.474 156.987 369.474 156.987L369.474 156.985Z" fill="#475569"/>
<path d="M369.475 156.987L369.469 156.988C369.477 156.989 369.475 156.987 369.475 156.987Z" fill="#475569"/>
<path d="M351.589 207.686L300.181 210.545C299.892 210.561 299.607 210.465 299.385 210.278C299.164 210.09 299.023 209.824 298.992 209.535C298.96 209.247 299.041 208.957 299.216 208.726C299.392 208.495 299.65 208.34 299.936 208.293L352.48 199.738L351.589 207.686Z" fill="#3F3D56"/>
<path d="M416.92 322.204L436.293 289.593L450.611 296.36C450.611 296.36 425.939 327.193 425.153 328.08C425.489 329.579 425.363 331.145 424.791 332.57C424.219 333.996 423.228 335.214 421.949 336.063C420.67 336.913 419.164 337.354 417.629 337.328C416.094 337.303 414.603 336.811 413.353 335.919C412.103 335.027 411.154 333.776 410.63 332.333C410.106 330.889 410.033 329.32 410.419 327.833C410.806 326.347 411.634 325.012 412.795 324.007C413.956 323.002 415.395 322.373 416.92 322.204Z" fill="#FFB6B6"/>
<path d="M424.979 246.451L456.364 262.836C458.326 264.249 459.971 266.057 461.194 268.144C462.418 270.23 463.192 272.548 463.469 274.951C463.746 277.354 463.519 279.789 462.802 282.099C462.085 284.409 460.894 286.544 459.306 288.367L437.669 313.202L428.243 300.422L435.508 285.222L421.44 281.51L424.979 246.451Z" fill="#016FB9"/>
<path d="M335.538 208.219L332.003 245.991L316.168 246.017C316.168 246.017 325.253 207.578 325.583 206.44C324.637 205.23 324.08 203.761 323.987 202.228C323.893 200.695 324.267 199.169 325.058 197.853C325.85 196.537 327.022 195.493 328.42 194.858C329.818 194.223 331.376 194.027 332.887 194.297C334.398 194.568 335.792 195.29 336.883 196.37C337.975 197.45 338.714 198.836 339.001 200.345C339.288 201.854 339.111 203.415 338.493 204.821C337.874 206.227 336.844 207.412 335.538 208.219Z" fill="#FFB6B6"/>
<path d="M367.058 285.461L330.612 278.774C315.265 276.927 308.966 266.823 311.735 256.967L320.647 225.25L334.638 232.755L334.584 249.604L354.168 246.925L367.058 285.461Z" fill="#016FB9"/>
<path d="M352.139 546.495H342.118L337.351 507.817H352.141L352.139 546.495Z" fill="#FFB6B6"/>
<path d="M352.493 556.956L321.675 556.955V556.565C321.676 553.382 322.939 550.329 325.189 548.078C327.438 545.827 330.489 544.563 333.67 544.563L339.3 540.29L349.803 544.563L352.493 544.563L352.493 556.956Z" fill="#2F2E41"/>
<path d="M423.048 546.495H433.069L437.836 507.817H423.045L423.048 546.495Z" fill="#FFB6B6"/>
<path d="M422.695 556.956L453.512 556.955V556.565C453.512 553.382 452.248 550.329 449.998 548.078C447.749 545.827 444.698 544.563 441.517 544.563L435.887 540.29L425.384 544.563L422.694 544.563L422.695 556.956Z" fill="#2F2E41"/>
<path d="M336.91 479.394C337.058 477.187 338.234 464.982 338.234 464.982L341.053 439.098L346.021 370.484L350.449 352.449L372.369 360.993L390.155 352.462L411.295 359.224L427.757 365.4C427.757 365.4 427.785 368.044 427.912 371.239C428.081 375.42 428.377 380.546 429.081 381.879C430.258 384.234 429.962 396.876 429.962 396.876C429.962 396.876 431.132 422.598 432.605 425.419C434.077 428.239 434.373 434.113 433.929 435.29C433.486 436.468 435.402 467.358 435.402 467.358C435.402 467.358 440.322 522.023 437.235 530.266C434.149 538.508 422.485 533.109 422.485 533.109C422.485 533.109 423.049 530.909 419.667 529.872C416.284 528.836 405.982 451.324 405.982 451.324C405.982 451.324 404.065 435.431 402.304 430.876C400.542 426.321 398.921 413.524 398.921 413.524C398.921 413.524 388.041 392.342 387.9 387.632C387.9 387.632 386.477 383.225 385.131 388.076C383.785 392.928 379.817 404.548 379.817 404.548L375.949 418.819L371.396 440.141L368.451 458.093C368.451 458.093 364.04 481.918 363.335 482.948C362.63 483.977 363.335 505.744 363.335 505.744C363.335 505.744 359.924 524.281 355.104 527.517C350.284 530.754 337.514 527.569 337.514 527.569C337.514 527.569 336.762 481.601 336.91 479.394Z" fill="#2F2E41"/>
<path d="M353.296 294.418L350.495 330.724L346.287 335.081C345.907 335.474 345.611 335.94 345.416 336.45C345.22 336.96 345.13 337.504 345.15 338.05C345.17 338.596 345.299 339.133 345.531 339.627C345.763 340.122 346.092 340.565 346.499 340.929L344.181 344.907L343.36 357.441C343.126 358.417 343.11 359.432 343.313 360.414C343.516 361.396 343.934 362.321 344.536 363.123C345.138 363.925 345.909 364.585 346.795 365.054C347.681 365.523 348.66 365.791 349.661 365.838L422.225 369.249C423.22 369.296 424.214 369.123 425.136 368.744C426.058 368.364 426.885 367.786 427.559 367.052C428.233 366.317 428.738 365.443 429.038 364.492C429.337 363.541 429.425 362.535 429.294 361.547L423.123 315.068V311.592L420.361 304.88L421.781 282.396L425.083 246.709L405.887 241.747L395.479 234.582L377.397 234.87L366.425 243.887L351.796 246.179L340.733 248.38L339.323 251.444L342.142 250.831L352.359 290.703L353.296 294.418Z" fill="#016FB9"/>
<path d="M386.034 229.717C397.798 229.717 407.334 220.175 407.334 208.404C407.334 196.632 397.798 187.09 386.034 187.09C374.27 187.09 364.733 196.632 364.733 208.404C364.733 220.175 374.27 229.717 386.034 229.717Z" fill="#FFB6B6"/>
<path d="M380.898 228.342L396.288 227.557C398.26 227.456 400.412 227.282 401.846 225.924C402.618 225.085 403.211 224.099 403.591 223.024C405.014 219.717 406.436 216.41 407.823 213.088C409.741 208.493 411.624 203.641 411.134 198.685C411.02 196.422 410.071 194.281 408.472 192.677C407.656 191.904 406.606 191.423 405.488 191.309C404.37 191.196 403.246 191.456 402.291 192.05C402.054 190.483 401.464 188.989 400.565 187.684C399.666 186.378 398.483 185.294 397.104 184.513C394.319 182.974 391.139 182.299 387.969 182.576C383.369 182.872 378.978 184.604 375.413 187.527C374.411 188.453 373.34 189.302 372.21 190.067C371.642 190.447 371.002 190.707 370.33 190.832C369.658 190.956 368.967 190.942 368.301 190.791C367.641 190.614 367.067 190.204 366.685 189.637C366.303 189.07 366.139 188.384 366.224 187.705C365.14 188.516 364.397 189.702 364.14 191.031C363.882 192.361 364.129 193.738 364.832 194.896C364.033 195.231 363.161 195.353 362.301 195.251C361.441 195.149 360.621 194.827 359.922 194.315C359.174 194.686 358.511 195.21 357.977 195.853C357.442 196.496 357.048 197.243 356.819 198.047C356.589 198.852 356.531 199.695 356.646 200.523C356.761 201.351 357.048 202.146 357.489 202.857C357.929 203.568 358.512 204.179 359.202 204.651C359.892 205.123 360.673 205.446 361.494 205.598C362.316 205.751 363.16 205.73 363.973 205.538C364.787 205.345 365.551 204.985 366.217 204.479C367.151 205.788 366.803 207.567 366.681 209.171C366.559 210.775 366.989 212.768 368.534 213.212C370.623 213.811 372.316 210.996 374.488 211.026C375.024 211.07 375.541 211.245 375.993 211.537C376.445 211.828 376.819 212.227 377.08 212.697C377.592 213.642 377.942 214.667 378.117 215.727L380.898 228.255" fill="#2F2E41"/>
<path d="M980.964 419.986C980.964 416.685 979.856 414.007 978.496 414H607.735C606.368 414.007 605.267 416.685 605.261 419.986V555.848C605.261 556.154 605.147 556.449 604.941 556.676C604.735 556.903 604.452 557.045 604.148 557.075C603.152 557.171 602.157 557.26 601.162 557.342C601.138 557.342 601.113 557.348 601.088 557.348C600.547 557.397 600.005 557.434 599.464 557.477H599.458C599.179 556.962 598.904 556.442 598.632 555.918C598.54 555.741 598.492 555.545 598.491 555.346V412.221C598.491 411.31 598.528 410.392 598.59 409.487C598.678 408.244 598.832 407.007 599.051 405.78C600.091 400.06 602.442 396.187 605.113 396.174H981.112C981.501 396.177 981.887 396.259 982.244 396.414C982.769 396.647 983.243 396.979 983.641 397.393C984.181 397.955 984.642 398.587 985.013 399.272C986.545 402.327 987.428 405.667 987.604 409.08C987.604 409.117 987.61 409.154 987.61 409.191C987.696 410.189 987.739 411.205 987.733 412.221L987.819 425.417L987.875 433.286L988.041 457.978L988.102 466.746L988.373 556.769C988.373 557.096 988.244 557.409 988.013 557.64C987.782 557.871 987.469 558.001 987.142 558.001H982.195C981.868 558.001 981.555 557.871 981.325 557.64C981.094 557.409 980.964 557.096 980.964 556.769V419.986Z" fill="#475569"/>
<path d="M880.216 334.429H840.266C839.701 334.43 839.159 334.655 838.76 335.056C838.361 335.456 838.137 335.999 838.137 336.564V399.712H882.35V336.564C882.35 336.284 882.295 336.006 882.188 335.747C882.081 335.488 881.923 335.252 881.725 335.054C881.527 334.856 881.292 334.699 881.033 334.591C880.774 334.484 880.496 334.429 880.216 334.429ZM860.375 370.309C859.126 370.303 857.929 369.804 857.046 368.92C856.163 368.036 855.664 366.839 855.658 365.589V358.305C855.658 357.053 856.155 355.853 857.04 354.967C857.924 354.082 859.124 353.585 860.375 353.585C861.626 353.585 862.826 354.082 863.711 354.967C864.596 355.853 865.093 357.053 865.093 358.305V365.589C865.087 366.839 864.588 368.036 863.705 368.92C862.821 369.804 861.625 370.303 860.375 370.309Z" fill="#64748B"/>
<path d="M838 397.692V403.785C838.001 404.1 838.127 404.403 838.35 404.626C838.573 404.849 838.875 404.975 839.191 404.976H881.297C881.612 404.974 881.914 404.848 882.137 404.625C882.36 404.402 882.486 404.1 882.487 403.785V397.692H838Z" fill="#3F3D56"/>
<path d="M946.37 235.88H775.598C774.131 235.882 772.725 236.466 771.687 237.505C770.65 238.543 770.066 239.95 770.063 241.418V356.725C770.065 358.194 770.649 359.601 771.686 360.64C772.724 361.678 774.131 362.262 775.598 362.263H946.37C947.837 362.262 949.244 361.678 950.282 360.64C951.32 359.601 951.903 358.194 951.905 356.725V241.418C951.902 239.95 951.319 238.543 950.281 237.505C949.244 236.466 947.837 235.882 946.37 235.88Z" fill="#475569"/>
<path d="M944.945 239.88H777.025C776.24 239.882 775.487 240.195 774.932 240.752C774.377 241.308 774.065 242.062 774.065 242.848V355.297C774.067 356.082 774.379 356.835 774.934 357.39C775.488 357.945 776.241 358.257 777.025 358.259H944.945C945.729 358.257 946.481 357.945 947.036 357.39C947.591 356.835 947.903 356.082 947.905 355.297V242.848C947.905 242.062 947.593 241.308 947.038 240.752C946.483 240.195 945.73 239.882 944.945 239.88Z" fill="white"/>
<path d="M912.237 407.096H812.334C812.06 407.096 811.79 407.035 811.544 406.917C811.297 406.799 811.079 406.628 810.907 406.416C810.734 406.203 810.612 405.955 810.548 405.689C810.483 405.423 810.479 405.146 810.536 404.878L812.086 397.511C812.174 397.099 812.4 396.73 812.727 396.464C813.055 396.198 813.463 396.053 813.884 396.051H910.687C911.108 396.053 911.516 396.198 911.843 396.464C912.17 396.73 912.397 397.099 912.485 397.511L914.035 404.878C914.091 405.146 914.087 405.423 914.023 405.689C913.959 405.955 913.836 406.203 913.664 406.416C913.492 406.628 913.274 406.799 913.027 406.917C912.78 407.035 912.51 407.096 912.237 407.096Z" fill="#64748B"/>
<path d="M817.13 397.378H815.133C814.835 397.378 814.593 397.62 814.593 397.918V398.685C814.593 398.983 814.835 399.225 815.133 399.225H817.13C817.428 399.225 817.67 398.983 817.67 398.685V397.918C817.67 397.62 817.428 397.378 817.13 397.378Z" fill="#475569"/>
<path d="M823.284 397.378H821.287C820.989 397.378 820.747 397.62 820.747 397.918V398.685C820.747 398.983 820.989 399.225 821.287 399.225H823.284C823.582 399.225 823.824 398.983 823.824 398.685V397.918C823.824 397.62 823.582 397.378 823.284 397.378Z" fill="#475569"/>
<path d="M829.438 397.378H827.441C827.142 397.378 826.901 397.62 826.901 397.918V398.685C826.901 398.983 827.142 399.225 827.441 399.225H829.438C829.736 399.225 829.978 398.983 829.978 398.685V397.918C829.978 397.62 829.736 397.378 829.438 397.378Z" fill="#475569"/>
<path d="M835.592 397.378H833.594C833.296 397.378 833.055 397.62 833.055 397.918V398.685C833.055 398.983 833.296 399.225 833.594 399.225H835.592C835.89 399.225 836.132 398.983 836.132 398.685V397.918C836.132 397.62 835.89 397.378 835.592 397.378Z" fill="#475569"/>
<path d="M841.746 397.378H839.748C839.45 397.378 839.208 397.62 839.208 397.918V398.685C839.208 398.983 839.45 399.225 839.748 399.225H841.746C842.044 399.225 842.285 398.983 842.285 398.685V397.918C842.285 397.62 842.044 397.378 841.746 397.378Z" fill="#475569"/>
<path d="M847.899 397.378H845.902C845.604 397.378 845.362 397.62 845.362 397.918V398.685C845.362 398.983 845.604 399.225 845.902 399.225H847.899C848.198 399.225 848.439 398.983 848.439 398.685V397.918C848.439 397.62 848.198 397.378 847.899 397.378Z" fill="#475569"/>
<path d="M854.053 397.378H852.056C851.758 397.378 851.516 397.62 851.516 397.918V398.685C851.516 398.983 851.758 399.225 852.056 399.225H854.053C854.351 399.225 854.593 398.983 854.593 398.685V397.918C854.593 397.62 854.351 397.378 854.053 397.378Z" fill="#475569"/>
<path d="M860.207 397.378H858.21C857.912 397.378 857.67 397.62 857.67 397.918V398.685C857.67 398.983 857.912 399.225 858.21 399.225H860.207C860.505 399.225 860.747 398.983 860.747 398.685V397.918C860.747 397.62 860.505 397.378 860.207 397.378Z" fill="#475569"/>
<path d="M866.361 397.378H864.363C864.065 397.378 863.824 397.62 863.824 397.918V398.685C863.824 398.983 864.065 399.225 864.363 399.225H866.361C866.659 399.225 866.901 398.983 866.901 398.685V397.918C866.901 397.62 866.659 397.378 866.361 397.378Z" fill="#475569"/>
<path d="M872.515 397.378H870.517C870.219 397.378 869.978 397.62 869.978 397.918V398.685C869.978 398.983 870.219 399.225 870.517 399.225H872.515C872.813 399.225 873.054 398.983 873.054 398.685V397.918C873.054 397.62 872.813 397.378 872.515 397.378Z" fill="#475569"/>
<path d="M878.669 397.378H876.671C876.373 397.378 876.131 397.62 876.131 397.918V398.685C876.131 398.983 876.373 399.225 876.671 399.225H878.669C878.967 399.225 879.208 398.983 879.208 398.685V397.918C879.208 397.62 878.967 397.378 878.669 397.378Z" fill="#475569"/>
<path d="M884.822 397.378H882.825C882.527 397.378 882.285 397.62 882.285 397.918V398.685C882.285 398.983 882.527 399.225 882.825 399.225H884.822C885.12 399.225 885.362 398.983 885.362 398.685V397.918C885.362 397.62 885.12 397.378 884.822 397.378Z" fill="#475569"/>
<path d="M890.976 397.378H888.979C888.681 397.378 888.439 397.62 888.439 397.918V398.685C888.439 398.983 888.681 399.225 888.979 399.225H890.976C891.274 399.225 891.516 398.983 891.516 398.685V397.918C891.516 397.62 891.274 397.378 890.976 397.378Z" fill="#475569"/>
<path d="M897.13 397.378H895.133C894.835 397.378 894.593 397.62 894.593 397.918V398.685C894.593 398.983 894.835 399.225 895.133 399.225H897.13C897.428 399.225 897.67 398.983 897.67 398.685V397.918C897.67 397.62 897.428 397.378 897.13 397.378Z" fill="#475569"/>
<path d="M903.284 397.378H901.286C900.988 397.378 900.747 397.62 900.747 397.918V398.685C900.747 398.983 900.988 399.225 901.286 399.225H903.284C903.582 399.225 903.824 398.983 903.824 398.685V397.918C903.824 397.62 903.582 397.378 903.284 397.378Z" fill="#475569"/>
<path d="M909.438 397.378H907.44C907.142 397.378 906.9 397.62 906.9 397.918V398.685C906.9 398.983 907.142 399.225 907.44 399.225H909.438C909.736 399.225 909.977 398.983 909.977 398.685V397.918C909.977 397.62 909.736 397.378 909.438 397.378Z" fill="#475569"/>
<path d="M817.058 400.457H815.06C814.762 400.457 814.521 400.698 814.521 400.997V401.764C814.521 402.062 814.762 402.304 815.06 402.304H817.058C817.356 402.304 817.597 402.062 817.597 401.764V400.997C817.597 400.698 817.356 400.457 817.058 400.457Z" fill="#475569"/>
<path d="M823.211 400.457H821.214C820.916 400.457 820.674 400.698 820.674 400.997V401.764C820.674 402.062 820.916 402.304 821.214 402.304H823.211C823.51 402.304 823.751 402.062 823.751 401.764V400.997C823.751 400.698 823.51 400.457 823.211 400.457Z" fill="#475569"/>
<path d="M829.365 400.457H827.368C827.07 400.457 826.828 400.698 826.828 400.997V401.764C826.828 402.062 827.07 402.304 827.368 402.304H829.365C829.663 402.304 829.905 402.062 829.905 401.764V400.997C829.905 400.698 829.663 400.457 829.365 400.457Z" fill="#475569"/>
<path d="M835.519 400.457H833.522C833.224 400.457 832.982 400.698 832.982 400.997V401.764C832.982 402.062 833.224 402.304 833.522 402.304H835.519C835.817 402.304 836.059 402.062 836.059 401.764V400.997C836.059 400.698 835.817 400.457 835.519 400.457Z" fill="#475569"/>
<path d="M841.673 400.457H839.676C839.377 400.457 839.136 400.698 839.136 400.997V401.764C839.136 402.062 839.377 402.304 839.676 402.304H841.673C841.971 402.304 842.213 402.062 842.213 401.764V400.997C842.213 400.698 841.971 400.457 841.673 400.457Z" fill="#475569"/>
<path d="M847.827 400.457H845.829C845.531 400.457 845.29 400.698 845.29 400.997V401.764C845.29 402.062 845.531 402.304 845.829 402.304H847.827C848.125 402.304 848.366 402.062 848.366 401.764V400.997C848.366 400.698 848.125 400.457 847.827 400.457Z" fill="#475569"/>
<path d="M853.981 400.457H851.983C851.685 400.457 851.443 400.698 851.443 400.997V401.764C851.443 402.062 851.685 402.304 851.983 402.304H853.981C854.279 402.304 854.52 402.062 854.52 401.764V400.997C854.52 400.698 854.279 400.457 853.981 400.457Z" fill="#475569"/>
<path d="M860.134 400.457H858.137C857.839 400.457 857.597 400.698 857.597 400.997V401.764C857.597 402.062 857.839 402.304 858.137 402.304H860.134C860.432 402.304 860.674 402.062 860.674 401.764V400.997C860.674 400.698 860.432 400.457 860.134 400.457Z" fill="#475569"/>
<path d="M866.288 400.457H864.291C863.993 400.457 863.751 400.698 863.751 400.997V401.764C863.751 402.062 863.993 402.304 864.291 402.304H866.288C866.586 402.304 866.828 402.062 866.828 401.764V400.997C866.828 400.698 866.586 400.457 866.288 400.457Z" fill="#475569"/>
<path d="M872.442 400.457H870.445C870.146 400.457 869.905 400.698 869.905 400.997V401.764C869.905 402.062 870.146 402.304 870.445 402.304H872.442C872.74 402.304 872.982 402.062 872.982 401.764V400.997C872.982 400.698 872.74 400.457 872.442 400.457Z" fill="#475569"/>
<path d="M878.596 400.457H876.598C876.3 400.457 876.059 400.698 876.059 400.997V401.764C876.059 402.062 876.3 402.304 876.598 402.304H878.596C878.894 402.304 879.136 402.062 879.136 401.764V400.997C879.136 400.698 878.894 400.457 878.596 400.457Z" fill="#475569"/>
<path d="M884.75 400.457H882.752C882.454 400.457 882.212 400.698 882.212 400.997V401.764C882.212 402.062 882.454 402.304 882.752 402.304H884.75C885.048 402.304 885.289 402.062 885.289 401.764V400.997C885.289 400.698 885.048 400.457 884.75 400.457Z" fill="#475569"/>
<path d="M890.904 400.457H888.906C888.608 400.457 888.366 400.698 888.366 400.997V401.764C888.366 402.062 888.608 402.304 888.906 402.304H890.904C891.202 402.304 891.443 402.062 891.443 401.764V400.997C891.443 400.698 891.202 400.457 890.904 400.457Z" fill="#475569"/>
<path d="M897.057 400.457H895.06C894.762 400.457 894.52 400.698 894.52 400.997V401.764C894.52 402.062 894.762 402.304 895.06 402.304H897.057C897.356 402.304 897.597 402.062 897.597 401.764V400.997C897.597 400.698 897.356 400.457 897.057 400.457Z" fill="#475569"/>
<path d="M903.211 400.457H901.214C900.916 400.457 900.674 400.698 900.674 400.997V401.764C900.674 402.062 900.916 402.304 901.214 402.304H903.211C903.509 402.304 903.751 402.062 903.751 401.764V400.997C903.751 400.698 903.509 400.457 903.211 400.457Z" fill="#475569"/>
<path d="M909.365 400.457H907.368C907.07 400.457 906.828 400.698 906.828 400.997V401.764C906.828 402.062 907.07 402.304 907.368 402.304H909.365C909.663 402.304 909.905 402.062 909.905 401.764V400.997C909.905 400.698 909.663 400.457 909.365 400.457Z" fill="#475569"/>
<path d="M868.134 404.151H844.599C844.3 404.151 844.059 404.393 844.059 404.691V405.458C844.059 405.757 844.3 405.998 844.599 405.998H868.134C868.432 405.998 868.674 405.757 868.674 405.458V404.691C868.674 404.393 868.432 404.151 868.134 404.151Z" fill="#475569"/>
<path d="M936.504 255.373H779.382C779.219 255.369 779.063 255.302 778.949 255.185C778.835 255.068 778.771 254.911 778.771 254.748C778.771 254.584 778.835 254.427 778.949 254.311C779.063 254.194 779.219 254.126 779.382 254.123H936.504C936.667 254.126 936.822 254.194 936.936 254.311C937.051 254.427 937.115 254.584 937.115 254.748C937.115 254.911 937.051 255.068 936.936 255.185C936.822 255.302 936.667 255.369 936.504 255.373Z" fill="#CACACA"/>
<path d="M790.078 250.93C792.1 250.93 793.739 249.253 793.739 247.185C793.739 245.116 792.1 243.439 790.078 243.439C788.055 243.439 786.416 245.116 786.416 247.185C786.416 249.253 788.055 250.93 790.078 250.93Z" fill="#64748B"/>
<path d="M802.727 250.93C804.75 250.93 806.389 249.253 806.389 247.185C806.389 245.116 804.75 243.439 802.727 243.439C800.705 243.439 799.065 245.116 799.065 247.185C799.065 249.253 800.705 250.93 802.727 250.93Z" fill="#64748B"/>
<path d="M815.377 250.93C817.399 250.93 819.039 249.253 819.039 247.185C819.039 245.116 817.399 243.439 815.377 243.439C813.355 243.439 811.715 245.116 811.715 247.185C811.715 249.253 813.355 250.93 815.377 250.93Z" fill="#64748B"/>
<path d="M928.887 244.367H919.901C919.723 244.371 919.554 244.444 919.429 244.572C919.304 244.699 919.234 244.87 919.234 245.048C919.234 245.227 919.304 245.398 919.429 245.525C919.554 245.652 919.723 245.726 919.901 245.729H928.887C929.065 245.726 929.235 245.652 929.36 245.525C929.484 245.398 929.554 245.227 929.554 245.048C929.554 244.87 929.484 244.699 929.36 244.572C929.235 244.444 929.065 244.371 928.887 244.367Z" fill="#64748B"/>
<path d="M928.887 246.923H919.901C919.723 246.927 919.554 247 919.429 247.127C919.304 247.254 919.235 247.426 919.235 247.604C919.235 247.782 919.304 247.953 919.429 248.08C919.554 248.208 919.723 248.281 919.901 248.285H928.887C929.065 248.281 929.235 248.208 929.36 248.08C929.484 247.953 929.554 247.782 929.554 247.604C929.554 247.426 929.484 247.254 929.36 247.127C929.235 247 929.065 246.927 928.887 246.923Z" fill="#64748B"/>
<path d="M928.887 249.475H919.901C919.723 249.479 919.554 249.552 919.429 249.679C919.304 249.806 919.234 249.978 919.234 250.156C919.234 250.334 919.304 250.505 919.429 250.633C919.554 250.76 919.723 250.833 919.901 250.837H928.887C929.065 250.833 929.235 250.76 929.36 250.633C929.484 250.505 929.554 250.334 929.554 250.156C929.554 249.978 929.484 249.806 929.36 249.679C929.235 249.552 929.065 249.479 928.887 249.475Z" fill="#64748B"/>
<path d="M870.629 289.435H850.996C849.521 289.435 848.325 290.631 848.325 292.107C848.325 293.583 849.521 294.779 850.996 294.779H870.629C872.103 294.779 873.299 293.583 873.299 292.107C873.299 290.631 872.103 289.435 870.629 289.435Z" fill="#016FB9"/>
<path d="M883.312 300.122H838.312C836.838 300.122 835.642 301.318 835.642 302.794C835.642 304.27 836.838 305.466 838.312 305.466H883.312C884.787 305.466 885.982 304.27 885.982 302.794C885.982 301.318 884.787 300.122 883.312 300.122Z" fill="#475569"/>
<path d="M883.312 310.809H838.312C836.838 310.809 835.642 312.005 835.642 313.481C835.642 314.957 836.838 316.153 838.312 316.153H883.312C884.787 316.153 885.982 314.957 885.982 313.481C885.982 312.005 884.787 310.809 883.312 310.809Z" fill="#475569"/>
<path d="M580.144 477.302L571.094 472.97L583.526 435.116L596.884 441.509L580.144 477.302Z" fill="#FFB6B6"/>
<path d="M640.823 471.199C640.165 471.612 639.507 472.017 638.842 472.423C637.519 473.235 636.183 474.033 634.846 474.818C634.175 475.21 633.497 475.603 632.825 475.989V476.009L632.785 476.015L632.772 476.022L631.748 476.275L630.279 472.39L629.601 470.601L628.644 468.066L626.889 463.429L617.648 439.016L632.014 435.47L632.553 437.672H632.559L632.825 438.763L637.845 459.132L638.869 463.296L638.902 463.423L639.52 465.911L640.052 468.066L640.644 470.474L640.823 471.199Z" fill="#FFB6B6"/>
<path d="M726.526 385.465C725.615 386.928 724.684 388.385 723.747 389.828C722.005 392.516 720.217 395.163 718.382 397.771C718.382 397.778 718.375 397.778 718.369 397.784C717.298 398.777 716.116 399.641 714.845 400.359C714.792 400.399 714.732 400.425 714.679 400.459C713.743 400.976 712.747 401.376 711.714 401.649C711.341 401.742 710.963 401.836 710.59 401.929C709.247 402.248 707.918 402.521 706.595 402.76C704.241 403.179 701.914 403.479 699.601 403.665C699.415 403.685 699.229 403.698 699.042 403.711C689.529 404.41 680.268 403.286 670.602 401.443C665.828 400.538 660.955 399.454 655.909 398.33C654.26 397.957 652.605 397.591 650.93 397.226C650.803 397.199 650.67 397.166 650.537 397.139C648.144 396.614 645.711 396.095 643.218 395.583C640.08 394.937 636.842 394.312 633.478 393.72L633.718 398.463C633.917 402.112 634.675 405.708 635.965 409.126C637.401 413.331 638.537 416.657 636.138 423.582L634.981 426.934C635.58 428.599 635.786 430.38 635.582 432.138C635.378 433.896 634.769 435.583 633.804 437.066L633.571 437.418L643.218 461.838L643.843 463.421H638.903L632.827 463.428H622.529L607.67 433.6L606.959 432.176V432.103L608.494 374.781C608.514 374.276 608.554 373.763 608.621 373.258C608.892 370.96 609.617 368.738 610.755 366.723C611.893 364.709 613.421 362.941 615.249 361.523C617.001 360.154 619.007 359.146 621.152 358.559C623.296 357.972 625.536 357.817 627.741 358.104L632.827 358.763L643.218 360.107L650.537 361.058L650.684 361.078L672.27 363.872L673.819 357.552L674.105 357.446L683.193 354.113L714.626 342.585L714.705 342.558L716.773 341.8L717.019 342.199C717.092 342.319 717.165 342.438 717.232 342.558C719.275 346.224 720.939 350.089 722.198 354.093C724.314 360.634 726.057 367.29 727.417 374.03C727.476 374.322 727.53 374.588 727.576 374.828L727.596 374.901C727.616 375.014 727.629 375.087 727.636 375.107C728.259 378.595 727.874 382.188 726.526 385.465Z" fill="#2F2E41"/>
<path d="M727.852 364.34C727.753 363.914 727.626 363.482 727.493 363.063C726.438 359.889 725.208 356.775 723.81 353.736C722.241 350.277 720.36 346.572 718.12 342.561C717.036 340.618 715.87 338.598 714.623 336.501C713.998 335.45 713.348 334.379 712.675 333.288C712.648 333.237 712.62 333.189 712.588 333.141L712.395 332.822L681.295 336.986L669.714 338.536L669.023 344.31L668.857 345.74C668.85 345.74 668.85 345.741 668.857 345.747L668.391 349.645V349.652L667.773 354.801L667.72 354.794L650.534 352.566L632.824 350.271L623.31 349.04C621.106 348.752 618.866 348.907 616.721 349.494C614.576 350.081 612.57 351.089 610.818 352.459C608.991 353.877 607.463 355.645 606.325 357.66C605.187 359.674 604.462 361.895 604.19 364.194C604.13 364.659 604.091 365.138 604.071 365.611L595.096 386.891C589.725 399.618 586.305 413.082 584.95 426.83L578.369 447.885L579.306 447.971L593.254 449.268L596.937 449.614L605.048 437.767C605.972 436.416 606.849 435.026 607.667 433.602C609.013 431.277 610.21 428.869 611.25 426.391L628.795 384.616C630.151 384.849 631.494 385.07 632.824 385.281C638.973 386.279 644.877 387.093 650.534 387.722C668.93 389.778 684.859 389.938 699.039 388.195C703.022 387.709 706.871 387.071 710.587 386.279C711.95 385.993 713.295 385.685 714.623 385.354C714.935 385.281 715.241 385.208 715.547 385.128C718.294 384.419 720.82 383.032 722.893 381.093C724.967 379.155 726.521 376.727 727.414 374.032C728.48 370.909 728.632 367.547 727.852 364.34Z" fill="#2F2E41"/>
<path d="M583.036 471.121L573.243 466.424L571.707 465.686L569.254 471.713L552.129 475.484C551.282 475.67 550.517 476.122 549.945 476.774C549.373 477.426 549.024 478.244 548.95 479.108C548.876 479.972 549.08 480.837 549.532 481.577C549.984 482.317 550.661 482.893 551.464 483.221L568.197 490.053L573.509 485.27L572.206 491.689L578.508 494.264L585.416 472.265L583.036 471.121Z" fill="#2F2E41"/>
<path d="M643.218 461.839L643.842 463.422H643.218V461.839Z" fill="#2F2E41"/>
<path d="M639.807 463.76L629.546 467.317L627.936 467.874L630.431 473.883L620.914 488.621C620.443 489.349 620.217 490.209 620.269 491.075C620.321 491.94 620.648 492.767 621.203 493.433C621.758 494.1 622.512 494.571 623.353 494.778C624.195 494.986 625.081 494.919 625.882 494.586L642.576 487.66L642.987 480.521L646.576 486L652.864 483.392L642.303 462.897L639.807 463.76Z" fill="#2F2E41"/>
<path d="M577.529 243.658C578.015 244.606 578.704 245.436 579.545 246.09C580.387 246.743 581.362 247.204 582.401 247.44C583.44 247.675 584.518 247.68 585.559 247.454C586.6 247.227 587.579 246.775 588.427 246.13L610.004 260.462L610.045 246.996L589.549 235.45C588.37 234.097 586.737 233.224 584.957 232.995C583.178 232.767 581.377 233.2 579.895 234.211C578.414 235.223 577.354 236.744 576.918 238.485C576.482 240.226 576.699 242.066 577.529 243.658Z" fill="#FFB6B6"/>
<path d="M593.648 249.882L603.715 238.422L644.705 262.771L699.041 257.792C701.727 257.546 704.434 257.894 706.97 258.813C709.506 259.731 711.809 261.197 713.715 263.107C715.621 265.016 717.084 267.321 717.999 269.86C718.915 272.398 719.26 275.107 719.012 277.795C718.558 282.648 716.198 287.122 712.451 290.237C708.703 293.351 703.874 294.851 699.023 294.407L637.827 288.739L593.648 249.882Z" fill="#64748B"/>
<path d="M719.761 250.059L719.667 249.94C712.023 249.185 704.325 250.666 697.505 254.201C690.685 257.737 685.037 263.177 681.245 269.86L676.633 277.988C661.717 296.234 672.556 308.817 673.205 310.689L668.028 334.575L669.188 342.569L669.768 344.943L728.867 375.843C732.232 359.666 728.978 345.882 716.72 335.352L728.58 298.426C731.21 290.261 731.781 281.573 730.242 273.134C728.704 264.695 725.103 256.768 719.761 250.059Z" fill="#64748B"/>
<path d="M672.77 429.45H653.813C652.77 429.449 651.763 429.072 650.976 428.388C650.189 427.703 649.675 426.758 649.528 425.725C648.358 417.106 648.358 408.369 649.528 399.75C649.673 398.729 650.177 397.794 650.948 397.111C651.72 396.429 652.71 396.044 653.74 396.026C659.705 393.351 666.128 393.351 672.835 396.025C673.46 396.034 674.075 396.179 674.638 396.45C675.2 396.722 675.697 397.113 676.092 397.597C676.505 398.101 676.8 398.69 676.956 399.321C677.112 399.953 677.126 400.612 676.996 401.25C675.473 408.832 675.473 416.643 676.996 424.225C677.126 424.863 677.112 425.522 676.956 426.154C676.8 426.785 676.505 427.374 676.092 427.878C675.69 428.37 675.183 428.767 674.608 429.039C674.034 429.311 673.406 429.451 672.77 429.45Z" fill="#016FB9"/>
<path d="M670.785 405.929H654.829C654.698 405.93 654.567 405.905 654.445 405.855C654.323 405.805 654.212 405.732 654.118 405.639C654.025 405.547 653.951 405.436 653.9 405.315C653.849 405.193 653.823 405.062 653.823 404.931C653.823 404.799 653.849 404.668 653.9 404.547C653.951 404.425 654.025 404.315 654.118 404.222C654.212 404.129 654.323 404.056 654.445 404.006C654.567 403.957 654.698 403.932 654.829 403.933H670.785C670.917 403.932 671.047 403.957 671.169 404.006C671.291 404.056 671.402 404.129 671.496 404.222C671.589 404.315 671.663 404.425 671.714 404.547C671.765 404.668 671.791 404.799 671.791 404.931C671.791 405.062 671.765 405.193 671.714 405.315C671.663 405.436 671.589 405.547 671.496 405.639C671.402 405.732 671.291 405.805 671.169 405.855C671.047 405.905 670.917 405.93 670.785 405.929Z" fill="white"/>
<path d="M670.785 413.911H654.829C654.698 413.912 654.567 413.887 654.445 413.838C654.323 413.788 654.212 413.715 654.118 413.622C654.025 413.529 653.951 413.419 653.9 413.297C653.849 413.176 653.823 413.045 653.823 412.913C653.823 412.781 653.849 412.651 653.9 412.529C653.951 412.408 654.025 412.297 654.118 412.205C654.212 412.112 654.323 412.039 654.445 411.989C654.567 411.939 654.698 411.914 654.829 411.916H670.785C670.917 411.914 671.047 411.939 671.169 411.989C671.291 412.039 671.402 412.112 671.496 412.205C671.589 412.297 671.663 412.408 671.714 412.529C671.765 412.651 671.791 412.781 671.791 412.913C671.791 413.045 671.765 413.176 671.714 413.297C671.663 413.419 671.589 413.529 671.496 413.622C671.402 413.715 671.291 413.788 671.169 413.838C671.047 413.887 670.917 413.912 670.785 413.911Z" fill="white"/>
<path d="M670.785 421.894H654.829C654.697 421.895 654.567 421.87 654.445 421.821C654.323 421.771 654.212 421.698 654.118 421.605C654.024 421.512 653.95 421.402 653.899 421.28C653.849 421.158 653.823 421.028 653.823 420.896C653.823 420.764 653.849 420.634 653.899 420.512C653.95 420.39 654.024 420.28 654.118 420.187C654.212 420.094 654.323 420.021 654.445 419.971C654.567 419.922 654.697 419.897 654.829 419.898H670.785C670.916 419.897 671.047 419.922 671.169 419.971C671.291 420.021 671.402 420.094 671.496 420.187C671.59 420.28 671.664 420.39 671.715 420.512C671.765 420.634 671.791 420.764 671.791 420.896C671.791 421.028 671.765 421.158 671.715 421.28C671.664 421.402 671.59 421.512 671.496 421.605C671.402 421.698 671.291 421.771 671.169 421.821C671.047 421.87 670.916 421.895 670.785 421.894Z" fill="white"/>
<path d="M581.004 250.232H562.047C561.004 250.231 559.997 249.854 559.21 249.17C558.423 248.486 557.909 247.54 557.762 246.507C556.592 237.888 556.592 229.151 557.762 220.532C557.907 219.512 558.411 218.576 559.183 217.893C559.955 217.211 560.944 216.826 561.974 216.808C567.939 214.133 574.362 214.133 581.069 216.808C581.694 216.816 582.309 216.961 582.872 217.232C583.435 217.504 583.931 217.895 584.326 218.379C584.739 218.883 585.034 219.472 585.19 220.104C585.346 220.735 585.36 221.394 585.23 222.032C583.707 229.615 583.707 237.425 585.23 245.007C585.36 245.645 585.346 246.304 585.19 246.936C585.034 247.568 584.739 248.157 584.326 248.66C583.924 249.153 583.417 249.549 582.842 249.821C582.268 250.093 581.64 250.233 581.004 250.232Z" fill="#016FB9"/>
<path d="M579.019 226.711H563.063C562.931 226.712 562.801 226.687 562.679 226.637C562.557 226.588 562.446 226.514 562.352 226.422C562.259 226.329 562.185 226.218 562.134 226.097C562.083 225.975 562.057 225.845 562.057 225.713C562.057 225.581 562.083 225.451 562.134 225.329C562.185 225.207 562.259 225.097 562.352 225.004C562.446 224.911 562.557 224.838 562.679 224.789C562.801 224.739 562.931 224.714 563.063 224.715H579.019C579.15 224.714 579.281 224.739 579.403 224.789C579.525 224.838 579.636 224.911 579.73 225.004C579.823 225.097 579.897 225.207 579.948 225.329C579.999 225.451 580.025 225.581 580.025 225.713C580.025 225.845 579.999 225.975 579.948 226.097C579.897 226.218 579.823 226.329 579.73 226.422C579.636 226.514 579.525 226.588 579.403 226.637C579.281 226.687 579.15 226.712 579.019 226.711Z" fill="white"/>
<path d="M579.019 234.693H563.063C562.931 234.694 562.801 234.67 562.679 234.62C562.557 234.57 562.446 234.497 562.352 234.404C562.259 234.311 562.185 234.201 562.134 234.079C562.083 233.958 562.057 233.827 562.057 233.696C562.057 233.564 562.083 233.433 562.134 233.312C562.185 233.19 562.259 233.08 562.352 232.987C562.446 232.894 562.557 232.821 562.679 232.771C562.801 232.721 562.931 232.697 563.063 232.698H579.019C579.15 232.697 579.281 232.721 579.403 232.771C579.525 232.821 579.636 232.894 579.73 232.987C579.823 233.08 579.897 233.19 579.948 233.312C579.999 233.433 580.025 233.564 580.025 233.696C580.025 233.827 579.999 233.958 579.948 234.079C579.897 234.201 579.823 234.311 579.73 234.404C579.636 234.497 579.525 234.57 579.403 234.62C579.281 234.67 579.15 234.694 579.019 234.693Z" fill="white"/>
<path d="M579.019 242.676H563.063C562.932 242.677 562.801 242.652 562.679 242.603C562.557 242.553 562.446 242.48 562.352 242.387C562.258 242.294 562.184 242.184 562.133 242.062C562.083 241.941 562.057 241.81 562.057 241.678C562.057 241.546 562.083 241.416 562.133 241.294C562.184 241.172 562.258 241.062 562.352 240.969C562.446 240.876 562.557 240.803 562.679 240.754C562.801 240.704 562.932 240.679 563.063 240.68H579.019C579.151 240.679 579.281 240.704 579.403 240.754C579.525 240.803 579.636 240.876 579.73 240.969C579.824 241.062 579.898 241.172 579.949 241.294C579.999 241.416 580.026 241.546 580.026 241.678C580.026 241.81 579.999 241.941 579.949 242.062C579.898 242.184 579.824 242.294 579.73 242.387C579.636 242.48 579.525 242.553 579.403 242.603C579.281 242.652 579.151 242.677 579.019 242.676Z" fill="white"/>
<path d="M248.214 298.909H229.257C228.215 298.908 227.207 298.531 226.42 297.846C225.633 297.162 225.119 296.217 224.973 295.184C223.802 286.565 223.802 277.827 224.973 269.209C225.117 268.188 225.621 267.252 226.393 266.57C227.165 265.887 228.155 265.502 229.185 265.484C235.149 262.809 241.572 262.809 248.279 265.484C248.904 265.492 249.519 265.637 250.082 265.909C250.645 266.18 251.141 266.572 251.537 267.056C251.949 267.559 252.244 268.148 252.4 268.78C252.557 269.412 252.57 270.071 252.44 270.708C250.918 278.291 250.918 286.101 252.44 293.684C252.57 294.322 252.557 294.98 252.4 295.612C252.244 296.244 251.949 296.833 251.537 297.336C251.134 297.829 250.627 298.226 250.053 298.498C249.478 298.769 248.85 298.91 248.214 298.909Z" fill="#016FB9"/>
<path d="M246.229 275.387H230.273C230.142 275.388 230.011 275.363 229.889 275.314C229.767 275.264 229.656 275.191 229.563 275.098C229.469 275.005 229.395 274.895 229.344 274.773C229.293 274.652 229.267 274.521 229.267 274.389C229.267 274.258 229.293 274.127 229.344 274.005C229.395 273.884 229.469 273.773 229.563 273.681C229.656 273.588 229.767 273.515 229.889 273.465C230.011 273.415 230.142 273.39 230.273 273.392H246.229C246.361 273.39 246.491 273.415 246.613 273.465C246.735 273.515 246.846 273.588 246.94 273.681C247.033 273.773 247.108 273.884 247.158 274.005C247.209 274.127 247.235 274.258 247.235 274.389C247.235 274.521 247.209 274.652 247.158 274.773C247.108 274.895 247.033 275.005 246.94 275.098C246.846 275.191 246.735 275.264 246.613 275.314C246.491 275.363 246.361 275.388 246.229 275.387Z" fill="white"/>
<path d="M246.229 283.37H230.273C230.142 283.371 230.011 283.346 229.889 283.296C229.767 283.247 229.656 283.173 229.563 283.081C229.469 282.988 229.395 282.878 229.344 282.756C229.293 282.634 229.267 282.504 229.267 282.372C229.267 282.24 229.293 282.11 229.344 281.988C229.395 281.866 229.469 281.756 229.563 281.663C229.656 281.57 229.767 281.497 229.889 281.448C230.011 281.398 230.142 281.373 230.273 281.374H246.229C246.361 281.373 246.491 281.398 246.613 281.448C246.735 281.497 246.846 281.57 246.94 281.663C247.033 281.756 247.108 281.866 247.158 281.988C247.209 282.11 247.235 282.24 247.235 282.372C247.235 282.504 247.209 282.634 247.158 282.756C247.108 282.878 247.033 282.988 246.94 283.081C246.846 283.173 246.735 283.247 246.613 283.296C246.491 283.346 246.361 283.371 246.229 283.37Z" fill="white"/>
<path d="M246.229 291.352H230.273C230.142 291.354 230.011 291.329 229.889 291.279C229.767 291.23 229.656 291.156 229.562 291.064C229.468 290.971 229.394 290.86 229.343 290.739C229.293 290.617 229.267 290.486 229.267 290.355C229.267 290.223 229.293 290.092 229.343 289.971C229.394 289.849 229.468 289.739 229.562 289.646C229.656 289.553 229.767 289.48 229.889 289.43C230.011 289.38 230.142 289.356 230.273 289.357H246.229C246.361 289.356 246.491 289.38 246.613 289.43C246.735 289.48 246.846 289.553 246.94 289.646C247.034 289.739 247.108 289.849 247.159 289.971C247.209 290.092 247.235 290.223 247.235 290.355C247.235 290.486 247.209 290.617 247.159 290.739C247.108 290.86 247.034 290.971 246.94 291.064C246.846 291.156 246.735 291.23 246.613 291.279C246.491 291.329 246.361 291.354 246.229 291.352Z" fill="white"/>
<path d="M678.324 405.202C679.242 404.66 680.029 403.923 680.631 403.044C681.233 402.164 681.635 401.163 681.808 400.111C681.982 399.059 681.923 397.982 681.635 396.956C681.347 395.929 680.838 394.978 680.144 394.17L693.162 371.768L679.725 372.526L669.423 393.683C668.143 394.94 667.369 396.624 667.247 398.415C667.124 400.205 667.663 401.979 668.76 403.399C669.857 404.819 671.437 405.787 673.2 406.119C674.962 406.451 676.786 406.125 678.324 405.202Z" fill="#FFB6B6"/>
<path d="M683.577 388.732L671.548 379.357L693.407 336.97L685.216 282.992C684.812 280.324 684.999 277.6 685.765 275.012C686.531 272.424 687.856 270.037 689.648 268.02C691.439 266.003 693.653 264.405 696.131 263.34C698.609 262.275 701.291 261.769 703.987 261.857C708.855 262.023 713.46 264.115 716.789 267.673C720.118 271.232 721.901 275.966 721.746 280.838L719.722 342.299L683.577 388.732Z" fill="#64748B"/>
<path d="M102.143 377.152C102.9 376.39 103.482 375.471 103.846 374.459C104.21 373.448 104.349 372.369 104.251 371.299C104.154 370.228 103.823 369.192 103.282 368.264C102.741 367.335 102.004 366.536 101.121 365.924L112.82 307.777L99.9003 311.928L90.5353 368.17C89.6053 369.722 89.2765 371.562 89.6114 373.34C89.9463 375.119 90.9214 376.712 92.3522 377.819C93.7829 378.926 95.5698 379.47 97.3742 379.347C99.1786 379.224 100.875 378.443 102.143 377.152Z" fill="#9E616A"/>
<path d="M119.418 254.129L111.402 248.074C111.402 248.074 104.33 247.573 103.077 260.333C101.825 273.094 99.2533 297.962 99.2533 297.962L86.9868 354.81L103.967 358.539L117.105 297.19L124.987 278.972L119.418 254.129Z" fill="#64748B"/>
<path d="M106.202 346.956L151.374 346.202L155.139 315.316H106.202V346.956Z" fill="#9E616A"/>
<path d="M146.856 537.019H157.285L162.245 496.772L146.854 496.773L146.856 537.019Z" fill="#9E616A"/>
<path d="M81.5259 537.986L91.954 537.912L96.633 497.631L83.0704 500.744L81.5259 537.986Z" fill="#9E616A"/>
<path d="M114.142 288.718L111.779 294.864L112.251 301.012L158.495 317.038L156.201 290.136L151.003 283.988L114.142 288.718Z" fill="#FFB6B6"/>
<path d="M133.981 233.398C143.103 233.398 150.497 225.999 150.497 216.872C150.497 207.744 143.103 200.345 133.981 200.345C124.859 200.345 117.464 207.744 117.464 216.872C117.464 225.999 124.859 233.398 133.981 233.398Z" fill="#9E616A"/>
<path d="M144.27 531.872L160.755 530.888V537.955L176.427 548.786C177.202 549.32 177.785 550.089 178.091 550.979C178.398 551.868 178.413 552.833 178.133 553.732C177.853 554.63 177.293 555.416 176.535 555.974C175.777 556.532 174.861 556.833 173.921 556.833H154.295L150.912 549.842L149.591 556.833H142.191L144.27 531.872Z" fill="#2F2E41"/>
<path d="M77.9584 532.863L94.436 531.763L94.4854 538.83L110.233 549.551C111.011 550.08 111.6 550.844 111.913 551.732C112.226 552.62 112.247 553.584 111.973 554.485C111.699 555.386 111.145 556.175 110.391 556.738C109.638 557.301 108.724 557.608 107.783 557.615L88.1575 557.752L84.7259 550.786L83.454 557.785L76.0544 557.837L77.9584 532.863Z" fill="#2F2E41"/>
<path d="M78.2809 507.127L85.8743 446.395L94.9088 382.362C88.2927 370.068 103.19 331.89 103.19 331.89L105.293 331.991L152.89 340.975L152.88 340.929C162.615 367.498 165.84 380.623 165.307 408.916L163.389 510.622H163.99C164.989 510.622 165.946 511.019 166.652 511.725C167.358 512.431 167.755 513.389 167.755 514.388C167.755 515.387 167.358 516.345 166.652 517.052C165.946 517.758 164.989 518.155 163.99 518.155H145.169C144.674 518.156 144.184 518.059 143.726 517.87C143.269 517.681 142.853 517.404 142.503 517.054C142.152 516.704 141.875 516.289 141.685 515.831C141.495 515.374 141.398 514.884 141.398 514.388C141.398 513.893 141.495 513.403 141.685 512.946C141.875 512.488 142.152 512.073 142.503 511.723C142.853 511.373 143.269 511.096 143.726 510.907C144.184 510.718 144.674 510.621 145.169 510.622H145.654L128.378 389.52L113.73 440.368L97.1674 506.661C103.19 505.154 102.255 508.645 102.255 510.622C102.255 511.621 101.859 512.579 101.153 513.285C100.447 513.992 99.4891 514.389 98.4908 514.389H79.6691C78.7937 514.389 77.9454 514.085 77.2705 513.527C76.5955 512.969 76.1362 512.193 75.9718 511.333C75.8073 510.472 75.9479 509.582 76.3695 508.814C76.791 508.046 77.4669 507.45 78.2809 507.127Z" fill="#2F2E41"/>
<path d="M99.4843 333.867L100.99 318.801C101.146 318.186 101.493 317.637 101.981 317.231C102.468 316.826 103.072 316.586 103.704 316.545C104.332 309.367 106.971 278.405 107.129 277.054L107.135 276.997L108.335 251.341C108.379 250.409 108.764 249.526 109.417 248.86C110.07 248.195 110.946 247.793 111.876 247.732L118.216 247.317C118.302 247.315 118.385 247.278 118.445 247.215C118.506 247.153 118.54 247.069 118.54 246.982C118.54 246.281 118.678 245.588 118.946 244.941C119.213 244.293 119.606 243.705 120.101 243.21C120.596 242.715 121.184 242.322 121.831 242.053C122.478 241.785 123.171 241.647 123.871 241.647H142.641C143.857 241.648 145.03 242.092 145.942 242.897C146.853 243.702 147.44 244.813 147.591 246.02C147.6 246.103 147.639 246.18 147.702 246.235C147.764 246.29 147.845 246.32 147.929 246.318H147.931C150.064 246.274 152.142 246.997 153.788 248.354C155.433 249.712 156.538 251.616 156.902 253.719C159.468 268.658 164.61 302.564 162.068 321.414C161.183 327.976 163.091 322.779 163.426 328.269C163.459 328.8 163.387 329.332 163.215 329.835C163.042 330.337 162.772 330.801 162.42 331.199C163.141 331.461 163.729 331.997 164.057 332.691C164.385 333.384 164.427 334.179 164.173 334.903L164.503 334.821C164.406 335.205 164.235 335.566 163.999 335.883C163.763 336.201 163.466 336.469 163.127 336.671C162.787 336.874 162.411 337.008 162.02 337.066C161.629 337.123 161.23 337.103 160.846 337.006L111.74 343.664C110.127 343.258 99.0778 335.481 99.4843 333.867Z" fill="#64748B"/>
<path d="M230.704 272.61C230.396 273.64 229.866 274.59 229.152 275.393C228.438 276.196 227.557 276.832 226.57 277.257C225.583 277.683 224.515 277.886 223.442 277.854C222.368 277.821 221.314 277.554 220.355 277.07L201.371 294.406L198.85 281.064L217.276 266.69C218.196 265.132 219.654 263.965 221.376 263.41C223.098 262.856 224.963 262.953 226.618 263.683C228.273 264.412 229.603 265.724 230.356 267.37C231.109 269.015 231.233 270.88 230.704 272.61Z" fill="#9E616A"/>
<path d="M164.627 259.359C164.627 259.359 158.008 244.39 149.647 247.366C141.286 250.341 145.603 264.865 145.603 264.865L177.015 312.226C177.015 312.226 222.322 283.145 216.812 282.939C211.303 282.734 209.655 272.708 209.655 272.708L185.709 284.68L184.899 280.418L183.6 281.717L180.249 279.078L164.627 259.359Z" fill="#64748B"/>
<path d="M706.137 242.915C718.872 242.915 729.196 232.585 729.196 219.842C729.196 207.099 718.872 196.768 706.137 196.768C693.401 196.768 683.077 207.099 683.077 219.842C683.077 232.585 693.401 242.915 706.137 242.915Z" fill="#FFB6B6"/>
<path d="M780.143 253.794C777.482 257.567 773.598 260.304 769.15 261.538C767.37 262.068 765.533 262.381 763.678 262.468C763.449 260.369 762.9 258.318 762.051 256.385C762.137 258.442 761.851 260.498 761.207 262.454C758.421 262.296 755.698 261.566 753.207 260.309C750.76 259.077 748.633 257.292 746.996 255.094C745.358 252.897 744.255 250.348 743.774 247.649C742.797 241.338 745.657 235.141 746.691 228.839C747.729 222.538 745.78 214.557 739.615 212.9C734.92 211.638 735.447 212.184 731.544 215.083C735.604 221.09 720.608 243.101 714.472 241.182C711.002 240.096 708.781 236.911 708.065 236.911C703.242 245.224 712.323 259.232 703.171 262.141L703.925 261.386C709.45 254.587 697.902 240.195 703.427 233.395C704.968 231.492 706.609 229.238 706.154 226.832C705.722 224.545 702.094 223.335 701.032 225.214C702.943 220.834 700.122 214.988 695.45 213.864C691.301 212.862 691.377 214.096 687.213 214.632C686.941 212.832 686.432 211.075 685.7 209.408C685.777 211.204 685.567 213.001 685.079 214.732C683.608 214.703 682.188 214.189 681.039 213.27C677.643 210.532 678.331 204.781 681.361 201.645C684.396 198.508 688.906 197.379 693.207 196.648C694.458 187.936 718.481 187.027 721.666 195.732C723.022 189.231 731.155 185.858 737.477 187.874C743.798 189.891 748.185 195.799 750.494 202.025C752.804 208.245 753.449 214.941 754.871 221.423C756.294 227.905 758.698 234.505 763.649 238.923C768.6 243.336 776.667 244.797 781.883 240.698C782.642 242.864 782.879 245.179 782.577 247.454C782.275 249.729 781.441 251.901 780.143 253.794Z" fill="#2F2E41"/>
<path d="M996.485 306.448L993.256 322.656C993.013 323.895 992.759 325.156 992.482 326.406C989.784 325.846 986.986 326.003 984.367 326.859C986.445 329.831 988.307 332.947 989.939 336.185C987.905 342.458 984.92 348.255 979.923 352.448C976.585 355.186 972.598 357.017 968.348 357.765C964.097 358.513 959.725 358.152 955.654 356.718L955.798 356.076C950.425 345.644 953.344 332.49 960.021 322.855C963.427 318.101 967.463 313.832 972.017 310.166C976.528 306.404 981.404 303.03 986.236 299.7C987.321 298.953 988.604 298.547 989.921 298.534C991.238 298.521 992.529 298.9 993.629 299.625C994.729 300.349 995.588 301.385 996.097 302.601C996.606 303.816 996.741 305.156 996.485 306.448Z" fill="#94A3B8"/>
<path d="M956.804 395.714C955.445 385.81 954.048 375.779 955.001 365.768C955.848 356.878 958.557 348.195 964.077 341.075C967.006 337.303 970.57 334.071 974.61 331.524C975.663 330.861 976.632 332.53 975.584 333.192C968.595 337.611 963.189 344.137 960.146 351.829C956.785 360.383 956.246 369.708 956.829 378.794C957.18 384.289 957.922 389.746 958.67 395.2C958.73 395.447 958.694 395.707 958.569 395.928C958.443 396.149 958.238 396.313 957.996 396.388C957.749 396.455 957.486 396.421 957.263 396.295C957.041 396.168 956.877 395.959 956.808 395.713L956.804 395.714Z" fill="#475569"/>
<path d="M1033.68 558.66L1.31654 559C0.968056 558.999 0.634201 558.86 0.388145 558.613C0.142089 558.366 0.00390625 558.031 0.00390625 557.683C0.00390625 557.334 0.142089 557 0.388145 556.753C0.634201 556.506 0.968056 556.366 1.31654 556.365L1033.68 556.026C1034.03 556.027 1034.37 556.166 1034.61 556.413C1034.86 556.66 1035 556.994 1035 557.343C1035 557.691 1034.86 558.026 1034.61 558.273C1034.37 558.52 1034.03 558.659 1033.68 558.66Z" fill="#CACACA"/>
<path d="M114.541 206.753C112.008 207.969 109.173 206.139 106.986 204.326L107.768 205.002C103.903 208.764 102.096 214.178 101.213 219.507C100.329 224.831 100.23 230.275 99.1173 235.561C98.0035 240.841 95.6932 246.147 91.3778 249.381C85.5965 253.712 77.623 253.434 70.5282 252.106C70.4337 252.087 70.3456 252.073 70.2511 252.053C72.16 246.538 72.936 240.694 72.5325 234.872C70.6308 240.707 67.3933 246.016 63.0781 250.378C58.3742 249.083 53.7828 247.409 49.3488 245.372C46.4799 244.051 43.3908 242.244 42.5945 239.185C41.7963 236.149 43.6499 232.964 46.1286 231.047C48.6072 229.13 51.6493 228.13 54.473 226.764C57.2921 225.405 60.0818 223.467 61.2105 220.541C63.814 213.81 56.3976 206.087 59.2879 199.471C60.7132 196.217 64.2043 194.448 67.4856 193.083C72.4949 191.006 77.6387 189.27 82.882 187.887C87.4849 186.672 92.291 185.728 96.98 186.524C101.669 187.321 106.263 190.174 107.95 194.63C110.766 195.582 113.756 196.656 115.563 199.027C117.369 201.393 117.223 205.467 114.541 206.753Z" fill="#2F2E41"/>
<path d="M137.081 198.953C129.834 193.229 123.975 194.206 119.455 197.762C118.695 196.917 115.461 199.244 114.366 198.909L110.406 206.348C108.368 209.946 107.532 213.619 107.862 215.687C104.113 226.205 113.002 233.308 123.514 237.058C127.709 238.565 132.286 238.632 136.522 237.247L136.651 235.455L137.447 236.923C137.447 236.923 147.057 256.723 149.328 257.612C147.95 254.036 144.316 237.037 143.302 233.494C141.911 228.673 142.861 221.013 143.678 216.317C144.188 213.422 144.215 210.463 143.757 207.559L143.737 207.432L145.985 211.973L151.03 208.799C149.102 203.18 149.064 196.458 137.081 198.953Z" fill="#2F2E41"/>
</g>
<defs>
<clipPath id="clip0_697_10530">
<rect width="1035" height="559" fill="white"/>
</clipPath>
</defs>
</svg>
