<svg width="680" height="452" viewBox="0 0 680 452" fill="none" xmlns="http://www.w3.org/2000/svg">
<g clip-path="url(#clip0_477_10932)">
<path d="M344.482 127.039C338.419 117.001 331.234 106.283 319.983 103.005C306.952 99.2093 293.567 106.75 282.213 114.191C248.258 136.445 215.559 160.562 184.266 186.431L184.3 186.821C208.663 185.139 233.027 183.457 257.39 181.776C274.992 180.56 293.199 179.178 308.755 170.842C314.658 167.679 320.412 163.454 327.101 163.159C335.411 162.794 342.657 168.604 348.352 174.674C382.036 210.58 391.784 265.489 429.574 297.035C405.745 238.207 377.291 181.363 344.482 127.039Z" fill="#F2F2F2"/>
<path d="M551.535 431.588C547.81 426.88 546.288 425.777 542.614 421.025C512.696 382.291 484.576 342.249 458.253 300.898C440.374 272.814 423.381 244.191 407.274 215.029C399.607 201.165 392.149 187.192 384.901 173.11C379.278 162.192 373.779 151.208 368.406 140.158C366.87 137.003 365.377 133.832 363.891 130.654C360.391 123.182 356.955 115.673 353.266 108.302C349.063 99.901 343.946 91.0935 336.227 85.4492C332.715 82.7751 328.514 81.1571 324.117 80.7843C317.833 80.378 312.035 82.9753 306.585 85.8119C266.71 106.626 229.378 132.722 195.612 162.417C161.76 192.178 131.501 225.8 105.454 262.599C104.657 263.739 102.772 262.65 103.577 261.504C106.744 257.02 109.974 252.585 113.266 248.199C154.209 193.69 204.412 146.815 261.578 109.717C271.196 103.478 280.995 97.531 290.974 91.877C296.004 89.0258 301.056 86.2109 306.194 83.5702C311.231 80.9802 316.58 78.6513 322.334 78.5643C341.917 78.2596 352.056 100.46 359.021 115.397C361.21 120.099 363.425 124.785 365.667 129.457C374.139 147.196 382.937 164.772 392.062 182.186C397.693 192.938 403.448 203.627 409.326 214.253C427.618 247.342 447.06 279.762 467.653 311.512C494.933 353.569 521.995 390.721 553.072 430.05C553.927 431.138 552.398 432.691 551.535 431.588Z" fill="#E4E4E4"/>
<path d="M193.677 151.454C192.539 150.185 191.409 148.915 190.263 147.646C181.233 137.648 171.544 127.767 159.143 122.036C153.23 119.217 146.776 117.719 140.227 117.646C133.458 117.668 126.841 119.446 120.587 121.934C117.63 123.117 114.738 124.459 111.89 125.888C108.635 127.528 105.439 129.276 102.258 131.039C96.2856 134.347 90.3911 137.801 84.574 141.399C72.9996 148.56 61.7877 156.267 50.9383 164.52C45.3141 168.801 39.806 173.221 34.4139 177.782C29.3987 182.019 24.485 186.37 19.6727 190.834C18.6436 191.784 17.107 190.246 18.1361 189.296C19.4044 188.113 20.6873 186.938 21.9701 185.777C25.5938 182.498 29.2756 179.282 33.0154 176.128C39.835 170.368 46.8312 164.83 54.004 159.515C65.158 151.244 76.6959 143.534 88.6178 136.386C94.5753 132.816 100.615 129.397 106.736 126.127C108.585 125.141 110.455 124.176 112.346 123.262C116.638 121.095 121.098 119.277 125.681 117.828C132.175 115.725 139.044 115.05 145.822 115.847C152.366 116.8 158.671 118.984 164.405 122.282C176.58 129.095 186.024 139.629 195.214 149.909C196.141 150.954 194.612 152.499 193.677 151.454Z" fill="#E4E4E4"/>
<path d="M443.152 255.053L472.328 244.37L486.814 239.067C491.532 237.339 496.238 235.373 501.115 234.136C505.354 232.924 509.854 232.982 514.06 234.301C517.811 235.691 521.244 237.822 524.156 240.566C527.131 243.309 529.899 246.268 532.437 249.419C535.591 253.213 538.699 257.047 541.82 260.868C554.702 276.638 567.499 292.477 580.213 308.384C592.926 324.291 605.554 340.266 618.097 356.308C630.671 372.389 643.158 388.537 655.559 404.753C657.078 406.739 658.596 408.727 660.112 410.715C660.95 411.814 662.839 410.731 661.99 409.617C649.497 393.238 636.918 376.926 624.251 360.682C611.554 344.398 598.769 328.184 585.895 312.038C573.023 295.893 560.063 279.818 547.016 263.813C543.766 259.826 540.51 255.843 537.249 251.864C534.498 248.508 531.778 245.116 528.761 241.992C523.223 236.259 516.303 231.191 508.021 231.054C503.151 230.973 498.438 232.52 493.914 234.158C489.036 235.925 484.17 237.724 479.299 239.508L449.919 250.265L442.574 252.954C441.27 253.431 441.833 255.535 443.152 255.053Z" fill="#E4E4E4"/>
<path d="M155.303 134.615C140.477 126.987 121.489 128.481 107.865 138.011C133.853 142.499 159.556 148.505 184.844 155.996C174.343 149.836 166.129 140.185 155.303 134.615Z" fill="#F2F2F2"/>
<path d="M107.719 137.985L104.865 140.307C105.83 139.495 106.834 138.732 107.865 138.011C107.816 138.003 107.768 137.993 107.719 137.985Z" fill="#F2F2F2"/>
<path d="M523.058 255.159C520.186 251.66 517.08 247.995 512.785 246.574L508.774 246.732C539.304 300.736 580.538 347.924 629.943 385.4C594.315 341.986 558.686 298.573 523.058 255.159Z" fill="#F2F2F2"/>
<path d="M273.658 226.29C275.514 233.04 279.695 238.915 285.462 242.876C287.692 244.396 290.33 245.854 291.092 248.444C291.493 250.095 291.246 251.837 290.402 253.311C289.558 254.766 288.532 256.106 287.349 257.3L287.241 257.705C281.708 254.423 276.444 250.272 273.388 244.607C270.332 238.943 269.905 231.518 273.658 226.29Z" fill="#F2F2F2"/>
<path d="M457.862 386.942C459.718 393.692 463.9 399.567 469.666 403.528C471.896 405.048 474.534 406.506 475.297 409.096C475.698 410.747 475.451 412.489 474.606 413.962C473.763 415.417 472.737 416.758 471.553 417.952L471.445 418.357C465.912 415.075 460.649 410.924 457.593 405.259C454.536 399.594 454.11 392.17 457.862 386.942Z" fill="#F2F2F2"/>
<path d="M90.244 375.862C92.1001 382.613 96.2814 388.488 102.048 392.449C104.278 393.969 106.916 395.426 107.678 398.016C108.08 399.667 107.832 401.409 106.988 402.883C106.145 404.338 105.119 405.679 103.935 406.873L103.827 407.278C98.2943 403.996 93.0306 399.844 89.9744 394.179C86.9181 388.515 86.4914 381.091 90.244 375.862Z" fill="#F2F2F2"/>
<path d="M513.281 80.7216C535.549 80.7216 553.601 62.6515 553.601 40.3608C553.601 18.0702 535.549 0 513.281 0C491.013 0 472.962 18.0702 472.962 40.3608C472.962 62.6515 491.013 80.7216 513.281 80.7216Z" fill="#016FB9"/>
<path d="M586.042 9.39408C566.502 6.7501 544.193 17.3228 539.128 36.3991C537.852 33.0073 535.532 30.1095 532.502 28.1243C529.473 26.1391 525.892 25.1694 522.276 25.3551C518.66 25.5409 515.196 26.8725 512.386 29.1576C509.575 31.4428 507.564 34.5631 506.641 38.0679L508.878 39.6717C550.753 48.7365 594.1 48.5403 635.891 39.0969C622.299 24.7974 605.583 12.038 586.042 9.39408Z" fill="#F0F0F0"/>
<path d="M502.241 63.2085C482.701 60.5645 460.392 71.1372 455.327 90.2135C454.051 86.8217 451.73 83.9239 448.701 81.9388C445.672 79.9536 442.09 78.9838 438.474 79.1696C434.859 79.3553 431.395 80.6869 428.585 82.9721C425.774 85.2572 423.762 88.3776 422.84 91.8823L425.077 93.4862C466.952 102.551 510.299 102.355 552.09 92.9113C538.498 78.6118 521.782 65.8525 502.241 63.2085Z" fill="#F0F0F0"/>
<path d="M672.79 73.3841C672.709 73.3842 672.628 73.3717 672.551 73.347C463.517 7.17251 279.283 15.826 161.538 34.7382C145.514 37.311 129.448 40.2825 113.784 43.571C109.786 44.4095 105.637 45.3083 101.454 46.2442C96.4585 47.3579 91.5293 48.5048 86.8029 49.6517C84.7616 50.1355 82.7602 50.6231 80.7986 51.1147C77.8274 51.8489 74.8126 52.614 71.5808 53.4548C67.9695 54.3868 64.3003 55.3645 60.6729 56.3607C60.6596 56.3654 60.6461 56.3692 60.6324 56.3723L60.6327 56.3731C56.5355 57.4929 52.4598 58.6452 48.5185 59.796C46.3854 60.4127 44.3255 61.0209 42.3526 61.6214C42.1322 61.6825 41.9368 61.7412 41.7388 61.8015L41.3149 61.9306C41.0694 62.0055 40.827 62.0789 40.5846 62.1485L40.5692 62.1531L40.5695 62.1539L39.928 62.3534C39.1629 62.5852 38.4163 62.8116 37.6821 63.0373C18.2774 69.0253 7.61004 73.2852 7.50465 73.3269C7.40828 73.3656 7.30526 73.3849 7.20144 73.3837C7.09763 73.3825 6.99507 73.3608 6.89961 73.32C6.80415 73.2791 6.71766 73.2198 6.6451 73.1455C6.57253 73.0712 6.5153 72.9832 6.47667 72.8868C6.43804 72.7903 6.41878 72.6872 6.41997 72.5832C6.42116 72.4793 6.44279 72.3767 6.48362 72.2811C6.52445 72.1856 6.58367 72.099 6.65792 72.0263C6.73217 71.9537 6.81998 71.8964 6.91635 71.8577C7.02251 71.816 17.742 67.5345 37.2173 61.5241C37.9542 61.2977 38.7027 61.0712 39.4701 60.8386L40.0662 60.6531C40.0866 60.6454 40.1071 60.6392 40.1279 60.633C40.3692 60.5642 40.6101 60.4908 40.8548 60.4166L41.2794 60.2876C41.491 60.2234 41.6994 60.16 41.9129 60.1013C43.8724 59.5047 45.9391 58.8949 48.0777 58.2759C52.0205 57.1243 56.1 55.972 60.2004 54.8506C60.2131 54.846 60.2263 54.8429 60.239 54.839C63.8792 53.8397 67.5619 52.8575 71.1847 51.9223C74.4215 51.0807 77.4421 50.314 80.4184 49.5783C82.3883 49.0875 84.3936 48.5988 86.4342 48.1122C91.1661 46.9638 96.1052 45.8153 101.11 44.6994C105.299 43.7627 109.455 42.8615 113.46 42.0222C129.148 38.7284 145.24 35.7522 161.288 33.1755C279.201 14.2363 463.7 5.56885 673.028 71.8384C673.208 71.8952 673.361 72.0147 673.461 72.1752C673.561 72.3357 673.6 72.5265 673.571 72.7133C673.542 72.9 673.448 73.0703 673.304 73.1934C673.161 73.3164 672.979 73.384 672.79 73.3841Z" fill="#CCCCCC"/>
<path d="M207.913 332.257C207.639 331.455 207.178 330.731 206.569 330.144C206.344 329.935 206.1 329.747 205.842 329.582C203.778 328.205 200.695 327.896 198.734 329.582C198.537 329.753 198.354 329.941 198.189 330.144C197.604 330.864 197.003 331.568 196.386 332.257C195.374 333.412 194.339 334.528 193.256 335.612C192.947 335.913 192.639 336.221 192.323 336.522C192.141 336.704 191.959 336.878 191.777 337.052C191.081 337.717 190.37 338.358 189.65 338.991C189.271 339.332 188.892 339.664 188.504 339.988C187.927 340.471 187.35 340.954 186.765 341.421C186.71 341.46 186.654 341.5 186.599 341.547C186.583 341.555 186.575 341.571 186.559 341.579C186.551 341.579 186.544 341.579 186.536 341.595C186.514 341.603 186.495 341.617 186.48 341.635C186.306 341.753 186.188 341.832 186.101 341.904C186.132 341.888 186.164 341.864 186.196 341.848C186.053 341.959 185.903 342.07 185.761 342.181C184.377 343.201 182.962 344.183 181.515 345.101C177.936 347.394 174.176 349.392 170.273 351.076C170.013 351.179 169.744 351.289 169.475 351.392C159.256 355.583 148.172 357.218 137.18 356.156C136.057 356.069 134.935 355.951 133.812 355.8C132.515 355.61 131.227 355.381 129.946 355.12C125.07 354.146 120.3 352.704 115.7 350.815C109.946 348.177 104.474 344.964 99.3666 341.223C98.576 340.661 97.7775 340.099 96.9791 339.553C97.8882 337.321 98.7816 335.09 99.6512 332.842C100.086 331.758 100.505 330.674 100.916 329.582C104.15 321.169 107.185 312.678 110.095 304.154C113.036 295.52 115.811 286.836 118.42 278.102C118.688 277.215 118.949 276.329 119.202 275.443C120.57 270.829 121.882 266.205 123.139 261.57C123.258 261.119 123.384 260.676 123.495 260.224C123.859 258.895 124.214 257.565 124.562 256.236C125.353 253.236 123.566 249.651 120.42 248.931C118.905 248.542 117.298 248.757 115.938 249.531C114.579 250.305 113.572 251.576 113.131 253.078C112.791 254.36 112.451 255.634 112.103 256.916C110.435 263.113 108.68 269.288 106.838 275.443C106.569 276.329 106.3 277.215 106.031 278.102C101.968 291.508 97.5061 304.78 92.6467 317.917C92.0617 319.507 91.4687 321.093 90.8679 322.673C90.5754 323.448 90.2829 324.224 89.9825 325C89.4053 326.527 88.8124 328.054 88.2195 329.582C87.8795 330.476 87.5316 331.37 87.1838 332.257C86.9546 332.818 86.7332 333.38 86.5118 333.934C84.2578 333.124 81.9224 332.562 79.5469 332.257L79.1674 332.209C77.3256 331.987 75.4631 332.003 73.6254 332.257C70.8751 332.578 68.2288 333.5 65.8736 334.958C63.5184 336.415 61.5119 338.373 59.9959 340.693C56.2248 346.636 56.2723 355.136 61.5612 360.185C67.0083 365.384 75.254 365.345 81.6656 362.092C85.0633 360.252 87.9282 357.564 89.9825 354.289C90.7694 353.102 91.4925 351.873 92.1487 350.609C92.3147 350.72 92.4807 350.83 92.6467 350.949C93.2792 351.392 93.9116 351.843 94.5362 352.287C98.1752 354.926 102.01 357.283 106.007 359.338C114.603 363.615 123.855 366.416 133.377 367.624C133.591 367.647 133.796 367.679 134.01 367.703C135.061 367.837 136.121 367.94 137.18 368.027C152.376 369.174 167.592 366.061 181.12 359.037C182.267 358.444 183.402 357.821 184.528 357.169C186.275 356.156 187.982 355.08 189.65 353.941C190.56 353.323 191.445 352.698 192.323 352.041C196.157 349.214 199.732 346.049 203.003 342.584C204.245 341.278 205.433 339.93 206.569 338.54C207.643 337.403 208.262 335.91 208.308 334.346C208.302 333.631 208.168 332.924 207.913 332.257ZM77.0012 351.107C77.1672 350.989 77.3332 350.862 77.4914 350.736C77.4439 350.854 77.2146 350.989 77.0012 351.107ZM79.5389 348.551C79.3571 348.757 79.1911 348.963 79.0092 349.169C78.4561 349.788 77.8618 350.37 77.2304 350.91C77.1435 350.989 77.0486 351.068 76.9538 351.139C76.9527 351.139 76.9517 351.139 76.9507 351.14C76.9497 351.14 76.9489 351.141 76.9481 351.141C76.9474 351.142 76.9468 351.143 76.9464 351.144C76.946 351.145 76.9458 351.146 76.9459 351.147C76.8316 351.198 76.7207 351.256 76.6138 351.321C76.2738 351.527 75.926 351.717 75.5703 351.891C74.8737 352.148 74.1571 352.346 73.4278 352.484C72.8674 352.525 72.3049 352.531 71.7439 352.5H71.728C71.3408 352.414 70.9582 352.309 70.5817 352.184C70.392 352.089 70.2101 351.978 70.0283 351.867C69.9572 351.804 69.8939 351.741 69.8544 351.701C69.7771 351.63 69.7058 351.554 69.641 351.471C69.641 351.47 69.6408 351.469 69.6404 351.468C69.64 351.467 69.6394 351.467 69.6387 351.466C69.638 351.465 69.6371 351.464 69.6361 351.464C69.6351 351.464 69.6341 351.464 69.6331 351.464C69.5461 351.305 69.4512 351.147 69.3643 350.989C69.3598 350.985 69.3569 350.979 69.3564 350.973C69.2931 350.775 69.2378 350.569 69.1903 350.364C69.1732 350.002 69.1758 349.64 69.1982 349.279C69.3043 348.774 69.447 348.276 69.6251 347.792C69.7852 347.448 69.9674 347.115 70.1707 346.794C70.1865 346.763 70.2655 346.636 70.3525 346.494C70.3604 346.486 70.3604 346.486 70.3604 346.478C70.479 346.343 70.5976 346.201 70.7241 346.074C70.9375 345.837 71.1668 345.631 71.3961 345.417C71.8419 345.125 72.3038 344.858 72.7796 344.618C73.5343 344.35 74.3088 344.141 75.096 343.993C76.2568 343.901 77.4235 343.911 78.5824 344.025C79.6801 344.215 80.7632 344.482 81.8237 344.824C81.181 346.073 80.4491 347.273 79.6339 348.417C79.6022 348.464 79.5706 348.512 79.5389 348.551ZM70.7477 345.948C70.6781 346.059 70.5959 346.163 70.5027 346.256C70.5654 346.14 70.6484 346.035 70.7477 345.948Z" fill="#3F3D56"/>
<path d="M184.148 251.432C184.077 253.917 184.006 256.402 183.935 258.887C183.784 264.403 183.629 269.922 183.468 275.443C183.302 281.655 183.128 287.865 182.946 294.072C182.859 297.277 182.77 300.482 182.678 303.687C182.433 312.322 182.19 320.953 181.95 329.582C181.927 330.476 181.895 331.362 181.871 332.257C181.753 336.538 181.634 340.819 181.515 345.101C181.381 349.746 181.249 354.392 181.12 359.037C181.025 362.519 180.928 366.004 180.828 369.491C180.116 394.76 179.405 420.03 178.693 445.299C178.663 446.863 178.029 448.356 176.923 449.462C175.818 450.569 174.327 451.204 172.764 451.234C171.195 451.221 169.694 450.592 168.585 449.482C167.476 448.371 166.847 446.869 166.834 445.299C167.23 431.085 167.63 416.872 168.036 402.659C168.392 389.806 168.753 376.954 169.119 364.102C169.238 359.868 169.356 355.632 169.475 351.392C169.657 345.014 169.836 338.635 170.013 332.257C170.036 331.362 170.068 330.476 170.092 329.582C170.107 328.798 170.131 328.023 170.155 327.239C170.503 314.854 170.851 302.466 171.198 290.076C171.341 285.201 171.478 280.323 171.61 275.443C171.768 269.879 171.926 264.319 172.084 258.76C172.155 256.315 172.218 253.877 172.289 251.432C172.32 249.867 172.954 248.375 174.059 247.268C175.165 246.162 176.656 245.527 178.219 245.497C179.787 245.509 181.288 246.139 182.397 247.249C183.507 248.359 184.135 249.862 184.148 251.432Z" fill="#3F3D56"/>
<path d="M509.414 253.079C503.196 276.646 495.765 299.876 487.15 322.675C484.773 328.963 482.341 335.24 479.741 341.44L480.339 340.022C479.179 342.976 477.697 345.792 475.92 348.42C475.799 348.59 475.676 348.758 475.551 348.924C476.165 348.138 476.282 347.982 475.901 348.458C475.7 348.696 475.502 348.934 475.294 349.167C474.741 349.787 474.147 350.369 473.516 350.91C473.357 351.046 473.196 351.179 473.033 351.309L473.774 350.732C473.688 350.935 473.084 351.205 472.896 351.32C472.287 351.688 471.651 352.01 470.995 352.284L472.411 351.686C471.335 352.12 470.213 352.428 469.066 352.605L470.642 352.393C469.516 352.548 468.374 352.561 467.244 352.429L468.821 352.641C467.896 352.514 466.992 352.27 466.129 351.915L467.545 352.514C467.085 352.313 466.641 352.076 466.218 351.805C466.003 351.665 465.344 351.165 466.206 351.824C467.102 352.509 466.321 351.883 466.137 351.701C465.983 351.549 465.845 351.384 465.694 351.23C464.997 350.514 466.482 352.462 466.008 351.624C465.755 351.205 465.523 350.772 465.314 350.329L465.912 351.747C465.64 351.072 465.446 350.368 465.336 349.649L465.548 351.227C465.435 350.332 465.434 349.427 465.545 348.532L465.334 350.11C465.479 349.111 465.743 348.133 466.12 347.197L465.522 348.615C465.785 347.986 466.097 347.378 466.454 346.796C466.618 346.496 466.811 346.212 467.03 345.948C467.068 345.961 466.027 347.146 466.579 346.547C466.724 346.391 466.859 346.226 467.006 346.071C467.24 345.823 467.491 345.596 467.737 345.36C468.563 344.573 466.582 346.125 467.535 345.502C468.225 345.048 468.952 344.651 469.708 344.316L468.292 344.914C469.558 344.394 470.885 344.037 472.241 343.854L470.664 344.066C472.363 343.87 474.079 343.89 475.772 344.126L474.196 343.914C476.34 344.24 478.436 344.83 480.435 345.671L479.019 345.073C483.279 346.904 487.053 349.623 490.82 352.289C494.459 354.926 498.293 357.282 502.288 359.337C510.884 363.615 520.137 366.417 529.66 367.626C543.318 369.301 557.177 367.515 569.966 362.433C582.755 357.352 594.064 349.136 602.856 338.541C603.929 337.402 604.547 335.908 604.593 334.344C604.581 332.772 603.958 331.266 602.856 330.147C600.681 328.148 596.572 327.584 594.471 330.147C592.48 332.58 590.339 334.887 588.062 337.053C586.999 338.063 585.907 339.042 584.787 339.989C584.147 340.53 583.499 341.061 582.841 341.581C582.53 341.827 581.562 342.481 583.049 341.425C582.708 341.667 582.381 341.931 582.045 342.18C577.066 345.854 571.67 348.926 565.971 351.332L567.387 350.734C561.271 353.302 554.848 355.064 548.278 355.975L549.854 355.763C543.096 356.653 536.25 356.643 529.494 355.733L531.07 355.945C524.316 355.016 517.711 353.215 511.419 350.587L512.835 351.185C506.764 348.496 501.002 345.155 495.651 341.221C492.866 339.157 489.929 337.306 486.865 335.686C483.296 333.861 479.431 332.685 475.451 332.213C467.989 331.334 460.385 334.243 456.283 340.697C452.507 346.636 452.556 355.134 457.843 360.185C463.288 365.386 471.535 365.342 477.952 362.089C484.132 358.955 487.844 352.445 490.455 346.307C496.33 332.493 501.531 318.36 506.377 304.155C511.171 290.102 515.519 275.906 519.42 261.568C519.903 259.792 520.379 258.014 520.849 256.235C521.64 253.237 519.852 249.651 516.707 248.934C515.192 248.543 513.584 248.757 512.223 249.531C510.863 250.304 509.855 251.576 509.414 253.079Z" fill="#3F3D56"/>
<path d="M568.575 251.432L566.44 327.241L564.317 402.656L563.117 445.299C563.13 446.869 563.759 448.371 564.868 449.481C565.977 450.591 567.478 451.221 569.046 451.234C570.609 451.204 572.1 450.569 573.205 449.462C574.311 448.356 574.945 446.864 574.975 445.299L577.11 369.489L579.233 294.075L580.433 251.432C580.42 249.862 579.791 248.36 578.682 247.249C577.573 246.139 576.072 245.51 574.504 245.496C572.941 245.527 571.45 246.162 570.345 247.268C569.239 248.375 568.605 249.867 568.575 251.432Z" fill="#3F3D56"/>
<path opacity="0.2" d="M363.342 424.133H365.183V340.213H408.134V338.374H365.183V302.964H398.353C397.866 302.345 397.366 301.734 396.851 301.131H365.183V277.743C364.574 277.483 363.961 277.232 363.342 276.996V301.131H327.251V271.165C326.632 271.193 326.023 271.235 325.41 271.287V301.131H296.617V278.773C295.998 279.047 295.389 279.335 294.785 279.638V301.131H270.581V302.964H294.785V338.374H270.581V340.213H294.785V424.133H296.617V340.213C300.398 340.212 304.143 340.957 307.636 342.405C311.13 343.853 314.304 345.976 316.978 348.653C319.652 351.33 321.773 354.507 323.219 358.004C324.666 361.502 325.41 365.25 325.41 369.035V424.133H327.251V340.213H363.342V424.133ZM296.617 338.374V302.964H325.41V338.374H296.617ZM327.251 338.374V302.964H327.973C332.618 302.965 337.218 303.881 341.509 305.66C345.8 307.44 349.7 310.048 352.984 313.337C356.268 316.625 358.873 320.528 360.651 324.824C362.428 329.12 363.343 333.725 363.342 338.374H327.251Z" fill="black"/>
<path d="M352.098 398.971C349.78 409.321 344.228 418.663 336.247 425.64C335.662 426.147 335.077 426.638 334.468 427.12C332.99 427.255 331.522 427.392 330.065 427.532C328.855 427.643 327.661 427.761 326.476 427.872L326.262 427.896L326.112 426.598L325.511 421.343C323.18 417.534 321.736 413.249 321.284 408.805C320.832 404.36 321.385 399.872 322.902 395.671C324.989 390.036 328.768 385.058 332.484 380.12C337.615 373.298 342.603 366.555 342.785 358.238C345.31 361.472 347.409 365.017 349.031 368.787C347.5 369.508 346.125 370.522 344.983 371.771C344.659 372.127 344.335 372.625 344.556 373.053C344.746 373.417 345.22 373.504 345.631 373.551C346.62 373.654 347.616 373.757 348.604 373.86C349.394 373.947 350.185 374.026 350.976 374.113C351.932 377.256 352.581 380.484 352.913 383.752C353.445 388.836 353.17 393.973 352.098 398.971Z" fill="#3F3D56"/>
<path d="M378.345 378.228C373.681 381.623 370.953 386.506 368.835 391.888C366.663 392.583 364.71 393.832 363.166 395.512C362.842 395.868 362.518 396.367 362.739 396.794C362.929 397.158 363.403 397.245 363.815 397.293C364.803 397.396 365.799 397.499 366.787 397.602C364.668 403.964 362.724 410.549 358.976 415.922C356.484 419.47 353.236 422.419 349.466 424.556C348.438 425.143 347.377 425.668 346.288 426.131C342.271 426.44 338.332 426.769 334.468 427.12C332.99 427.255 331.522 427.392 330.065 427.532C328.855 427.643 327.662 427.761 326.476 427.872C326.468 427.437 326.468 427.002 326.476 426.566C326.726 414.971 330.987 403.823 338.532 395.022C338.888 394.61 339.251 394.206 339.623 393.803C343.445 389.716 347.941 386.316 352.913 383.752C360.747 379.675 369.527 377.768 378.345 378.228Z" fill="#016FB9"/>
<path d="M331.433 423.472L330.523 426.163L330.065 427.532C328.855 427.643 327.662 427.761 326.476 427.872L326.262 427.896C324.95 428.03 323.645 428.165 322.341 428.299C322.001 427.904 321.661 427.5 321.329 427.089C313.077 417.086 309.116 404.22 310.312 391.302C311.507 378.385 317.762 366.466 327.709 358.151C326.665 363.619 327.883 368.858 329.883 374.058C329.67 374.145 329.464 374.232 329.266 374.327C327.736 375.048 326.361 376.061 325.219 377.31C324.895 377.666 324.57 378.165 324.792 378.592C324.982 378.956 325.456 379.043 325.867 379.091C326.855 379.194 327.851 379.297 328.84 379.4C329.63 379.487 330.421 379.566 331.211 379.653C331.583 379.692 331.954 379.732 332.326 379.772C332.381 379.89 332.429 380.001 332.484 380.12C334.737 385.011 337.164 389.925 338.532 395.022C338.875 396.3 339.144 397.598 339.338 398.907C339.947 403.333 339.553 407.84 338.184 412.092C336.815 416.345 334.508 420.234 331.433 423.472Z" fill="#016FB9"/>
<path d="M411.011 308.689C404.205 295.4 393.661 284.219 381.259 276.002C368.818 267.797 354.543 262.8 339.705 261.457C337.76 261.28 335.81 261.176 333.855 261.146C331.546 261.111 296.804 271.142 285.166 279.334C273.534 287.425 263.966 298.14 257.232 310.615C250.511 323.158 247.205 337.25 247.646 351.477C248.222 365.789 252.208 379.756 259.27 392.214C266.236 404.632 276.126 415.158 288.082 422.877C300.208 430.622 312.388 451.158 326.705 451.883C341.13 452.613 357.58 433.242 370.736 427.36C383.892 421.429 395.266 412.151 403.723 400.449C411.942 388.981 417.259 375.689 419.218 361.712C421.253 347.401 420.304 332.642 415.422 318.964C414.17 315.45 412.696 312.018 411.011 308.689C409.604 305.915 405.48 304.894 402.898 306.56C401.568 307.38 400.605 308.681 400.209 310.194C399.813 311.706 400.014 313.313 400.771 314.681C401.597 316.31 402.366 317.966 403.076 319.649L402.478 318.231C405.166 324.701 406.994 331.496 407.914 338.442L407.703 336.864C408.682 344.4 408.664 352.032 407.65 359.563L407.862 357.985C406.837 365.515 404.829 372.879 401.89 379.886L402.487 378.468C400.975 382.043 399.213 385.507 397.213 388.834C396.199 390.515 395.124 392.156 393.987 393.758C393.488 394.461 392.973 395.151 392.454 395.84C391.777 396.739 393.377 394.666 392.677 395.548C392.558 395.698 392.44 395.848 392.32 395.998C391.961 396.447 391.597 396.893 391.228 397.334C388.763 400.278 386.073 403.025 383.182 405.551C382.462 406.18 381.73 406.795 380.986 407.396C380.616 407.695 380.249 408.008 379.863 408.286C379.878 408.276 381.112 407.337 380.381 407.882C380.152 408.053 379.924 408.227 379.694 408.398C378.16 409.535 376.586 410.614 374.971 411.636C371.252 413.981 367.351 416.022 363.305 417.74L364.722 417.142C357.742 420.083 350.407 422.092 342.904 423.118L344.481 422.906C336.982 423.92 329.381 423.934 321.879 422.946L323.455 423.158C316.636 422.241 309.966 420.436 303.615 417.789L305.032 418.387C301.353 416.832 297.806 414.982 294.425 412.855C292.752 411.799 291.123 410.679 289.537 409.493C289.31 409.324 289.086 409.153 288.861 408.982C288.137 408.436 289.38 409.386 289.39 409.392C288.97 409.09 288.565 408.767 288.177 408.423C287.411 407.799 286.657 407.16 285.915 406.506C282.946 403.889 280.173 401.056 277.619 398.031C276.98 397.275 276.354 396.507 275.742 395.728C275.477 395.39 274.994 394.707 276.062 396.146C275.921 395.957 275.776 395.771 275.634 395.583C275.293 395.13 274.957 394.674 274.625 394.215C273.464 392.607 272.36 390.959 271.314 389.272C268.95 385.453 266.887 381.456 265.143 377.316L265.741 378.734C262.888 371.938 260.937 364.798 259.938 357.495L260.15 359.073C259.249 352.341 259.236 345.52 260.112 338.785L259.9 340.363C260.798 333.841 262.551 327.465 265.113 321.402L264.516 322.82C266.128 319.024 268.03 315.358 270.204 311.854C271.293 310.101 272.446 308.39 273.665 306.722C273.942 306.343 274.222 305.967 274.505 305.592C274.761 305.254 275.465 304.41 274.263 305.9C274.381 305.754 274.495 305.603 274.611 305.456C275.279 304.608 275.965 303.773 276.666 302.951C279.32 299.841 282.196 296.926 285.27 294.23C286.047 293.548 286.836 292.881 287.637 292.228C288.002 291.932 288.368 291.638 288.737 291.347C288.885 291.231 289.034 291.117 289.181 291C287.602 292.258 288.742 291.343 289.101 291.074C290.753 289.835 292.448 288.658 294.188 287.543C298.056 285.067 302.126 282.921 306.353 281.127L304.936 281.725C311.071 279.146 338.252 273.06 343.195 273.724L341.619 273.512C348.885 274.528 355.987 276.492 362.743 279.355L361.327 278.756C364.751 280.212 368.078 281.885 371.288 283.765C372.892 284.706 374.465 285.699 376.006 286.743C376.735 287.237 377.457 287.742 378.171 288.258C378.528 288.516 378.882 288.777 379.235 289.041C379.431 289.187 379.625 289.336 379.821 289.482C380.643 290.099 378.689 288.59 379.551 289.271C382.433 291.538 385.171 293.984 387.747 296.594C389.013 297.884 390.235 299.215 391.413 300.587C392.017 301.291 392.609 302.005 393.189 302.73C393.477 303.09 394.458 304.392 393.256 302.797C393.55 303.187 393.847 303.574 394.137 303.967C396.635 307.352 398.854 310.935 400.771 314.681C402.189 317.449 406.295 318.481 408.883 316.81C410.214 315.991 411.178 314.689 411.574 313.177C411.97 311.664 411.768 310.057 411.011 308.689Z" fill="#3F3D56"/>
<path d="M341.922 405.552C341.31 405.58 340.704 405.419 340.186 405.091C339.669 404.763 339.264 404.283 339.028 403.717C338.791 403.151 338.735 402.527 338.865 401.927C338.995 401.328 339.306 400.783 339.756 400.367C339.832 400.067 339.886 399.852 339.961 399.552C339.934 399.487 339.907 399.422 339.88 399.356C337.129 392.79 319.574 411.095 318.815 417.267C318.481 419.995 318.621 422.76 319.231 425.44C313.545 413.023 310.592 399.528 310.573 385.868C310.572 382.441 310.762 379.016 311.143 375.609C311.458 372.817 311.895 370.044 312.453 367.291C315.501 352.355 322.044 338.356 331.547 326.443C336.981 326.746 341.744 325.918 342.203 315.375C342.285 313.5 343.675 311.876 343.981 310.028C343.462 310.096 342.935 310.139 342.416 310.173C342.254 310.182 342.084 310.19 341.923 310.199L341.862 310.201C341.292 310.227 340.726 310.087 340.234 309.798C339.741 309.51 339.342 309.085 339.085 308.575C338.828 308.064 338.724 307.491 338.786 306.923C338.847 306.355 339.071 305.817 339.43 305.373C339.654 305.097 339.878 304.821 340.103 304.546C340.443 304.12 340.792 303.703 341.132 303.277C341.171 303.237 341.208 303.194 341.242 303.149C341.634 302.664 342.025 302.187 342.416 301.702C341.702 300.592 340.741 299.663 339.609 298.986C335.689 296.687 330.279 298.279 327.447 301.83C324.607 305.38 324.071 310.36 325.057 314.796C326.028 318.57 327.632 322.152 329.803 325.387C329.591 325.659 329.369 325.923 329.157 326.196C325.27 331.199 321.882 336.571 319.042 342.236C319.846 335.953 310.021 313.265 306.221 308.459C301.657 302.686 292.298 305.206 291.494 312.523C291.486 312.594 291.479 312.665 291.471 312.736C292.036 313.054 292.588 313.393 293.129 313.751C293.808 314.205 294.334 314.854 294.638 315.612C294.943 316.371 295.011 317.204 294.834 318.002C294.658 318.8 294.244 319.526 293.648 320.085C293.052 320.644 292.302 321.01 291.494 321.134L291.412 321.147C283.857 331.945 308.075 360.048 314.137 353.738C311.284 361.832 309.494 370.263 308.813 378.819C308.427 383.867 308.45 388.938 308.881 393.982L308.855 393.803C307.509 382.817 284.402 366.482 277.654 367.843C273.767 368.627 269.939 368.449 270.529 372.374C270.538 372.436 270.548 372.499 270.558 372.561C271.605 372.988 272.625 373.48 273.611 374.034C274.175 374.353 274.728 374.691 275.268 375.049C275.947 375.503 276.473 376.152 276.778 376.911C277.082 377.669 277.15 378.502 276.974 379.301C276.797 380.099 276.384 380.825 275.788 381.384C275.192 381.943 274.441 382.309 273.634 382.433L273.551 382.446C273.492 382.454 273.441 382.463 273.381 382.471C269.942 394.316 295.444 413.431 310.948 407.348H310.956C312.493 414.032 314.719 420.537 317.599 426.76H341.327C341.412 426.496 341.489 426.223 341.566 425.959C339.369 426.098 337.164 425.966 335 425.568C336.76 423.405 338.521 421.226 340.281 419.063C340.32 419.023 340.357 418.98 340.392 418.936C341.285 417.829 342.186 416.731 343.079 415.624L343.08 415.622C343.127 412.23 342.739 408.845 341.923 405.552L341.922 405.552ZM314.749 352.043L314.762 352.027L314.749 352.06V352.043ZM309.493 399.473L309.289 399.014C309.298 398.681 309.298 398.349 309.289 398.009C309.289 397.915 309.272 397.822 309.272 397.728C309.349 398.315 309.417 398.903 309.502 399.49L309.493 399.473Z" fill="#3F3D56"/>
<path d="M75.3014 356.125C80.1043 356.125 83.9978 352.227 83.9978 347.42C83.9978 342.612 80.1043 338.714 75.3014 338.714C70.4986 338.714 66.6051 342.612 66.6051 347.42C66.6051 352.227 70.4986 356.125 75.3014 356.125Z" fill="#3F3D56"/>
<path d="M179.658 451.091C184.461 451.091 188.354 447.194 188.354 442.386C188.354 437.578 184.461 433.681 179.658 433.681C174.855 433.681 170.961 437.578 170.961 442.386C170.961 447.194 174.855 451.091 179.658 451.091Z" fill="#3F3D56"/>
<path d="M575.737 451.091C580.539 451.091 584.433 447.194 584.433 442.386C584.433 437.578 580.539 433.681 575.737 433.681C570.934 433.681 567.04 437.578 567.04 442.386C567.04 447.194 570.934 451.091 575.737 451.091Z" fill="#3F3D56"/>
<path d="M597.082 340.297C601.885 340.297 605.779 336.4 605.779 331.592C605.779 326.784 601.885 322.887 597.082 322.887C592.279 322.887 588.386 326.784 588.386 331.592C588.386 336.4 592.279 340.297 597.082 340.297Z" fill="#3F3D56"/>
<path d="M571.784 259.575C576.587 259.575 580.48 255.678 580.48 250.87C580.48 246.062 576.587 242.165 571.784 242.165C566.981 242.165 563.087 246.062 563.087 250.87C563.087 255.678 566.981 259.575 571.784 259.575Z" fill="#3F3D56"/>
<path d="M208.909 331.592C208.904 333.815 208.045 335.952 206.51 337.559C204.975 339.167 202.881 340.122 200.662 340.227C198.443 340.332 196.269 339.579 194.589 338.124C192.909 336.669 191.853 334.623 191.638 332.41C191.423 330.197 192.066 327.985 193.434 326.234C194.803 324.482 196.791 323.324 198.989 322.999C201.187 322.675 203.425 323.208 205.24 324.489C207.056 325.77 208.31 327.701 208.743 329.882C208.854 330.445 208.91 331.018 208.909 331.592Z" fill="#3F3D56"/>
<path d="M382.836 284.9C387.639 284.9 391.532 281.002 391.532 276.195C391.532 271.387 387.639 267.489 382.836 267.489C378.033 267.489 374.14 271.387 374.14 276.195C374.14 281.002 378.033 284.9 382.836 284.9Z" fill="#3F3D56"/>
<path d="M296.663 276.195C296.658 278.418 295.799 280.555 294.264 282.162C292.729 283.769 290.635 284.724 288.416 284.829C286.197 284.935 284.023 284.182 282.343 282.727C280.663 281.272 279.607 279.226 279.392 277.013C279.177 274.8 279.82 272.588 281.188 270.837C282.557 269.085 284.545 267.927 286.743 267.602C288.941 267.278 291.179 267.811 292.994 269.092C294.81 270.373 296.064 272.304 296.497 274.485C296.609 275.048 296.664 275.621 296.663 276.195Z" fill="#3F3D56"/>
<path d="M184.401 250.87C184.396 253.094 183.537 255.23 182.002 256.838C180.467 258.445 178.373 259.4 176.154 259.505C173.935 259.61 171.761 258.857 170.081 257.402C168.401 255.947 167.345 253.902 167.13 251.688C166.915 249.475 167.558 247.264 168.926 245.512C170.295 243.761 172.283 242.603 174.481 242.278C176.679 241.953 178.917 242.487 180.732 243.768C182.548 245.049 183.802 246.98 184.235 249.161C184.347 249.724 184.402 250.296 184.401 250.87Z" fill="#3F3D56"/>
<path d="M473.752 359.29C478.555 359.29 482.449 355.393 482.449 350.585C482.449 345.777 478.555 341.88 473.752 341.88C468.949 341.88 465.056 345.777 465.056 350.585C465.056 355.393 468.949 359.29 473.752 359.29Z" fill="#3F3D56"/>
<path d="M336.982 280.152C343.968 280.152 349.632 274.482 349.632 267.489C349.632 260.496 343.968 254.827 336.982 254.827C329.997 254.827 324.333 260.496 324.333 267.489C324.333 274.482 329.997 280.152 336.982 280.152Z" fill="#3F3D56"/>
<path d="M679.059 451.757L0.941319 452C0.817703 452 0.695293 451.976 0.581087 451.928C0.46688 451.881 0.363116 451.811 0.275706 451.724C0.188295 451.636 0.11895 451.533 0.0716436 451.418C0.0243376 451.304 0 451.181 0 451.058C0 450.934 0.0243376 450.811 0.0716436 450.697C0.11895 450.583 0.188295 450.479 0.275706 450.391C0.363116 450.304 0.46688 450.234 0.581087 450.187C0.695293 450.14 0.817703 450.115 0.941319 450.115L679.059 449.872C679.308 449.873 679.547 449.972 679.723 450.149C679.898 450.326 679.997 450.565 679.997 450.814C679.997 451.064 679.898 451.303 679.723 451.48C679.547 451.656 679.308 451.756 679.059 451.757Z" fill="#CACACA"/>
</g>
<defs>
<clipPath id="clip0_477_10932">
<rect width="680" height="452" fill="white"/>
</clipPath>
</defs>
</svg>
