<svg width="250" height="132" viewBox="0 0 250 132" fill="none" xmlns="http://www.w3.org/2000/svg">
    <path d="M0 15C0 6.71573 6.71573 0 15 0H235C243.284 0 250 6.71573 250 15V132H0V15Z" fill="#CBD5E1" />
    <path fill-rule="evenodd" clip-rule="evenodd" d="M134.067 56.394C134.133 56.5105 134.25 56.5938 134.4 56.5938C138.4 56.5938 141.667 59.8568 141.667 63.8524V73.7414C141.667 77.737 138.4 81 134.4 81H115.6C111.583 81 108.333 77.737 108.333 73.7414V63.8524C108.333 59.8568 111.583 56.5938 115.6 56.5938C115.733 56.5938 115.867 56.5272 115.917 56.394L116.017 56.1942C116.074 56.0733 116.133 55.9491 116.193 55.8231C116.619 54.925 117.091 53.9313 117.383 53.3474C118.15 51.8491 119.45 51.0166 121.067 51H128.917C130.533 51.0166 131.85 51.8491 132.617 53.3474C132.879 53.8718 133.279 54.7167 133.665 55.5309C133.744 55.6988 133.823 55.8655 133.9 56.0277L134.067 56.394ZM132.85 62.7869C132.85 63.6193 133.517 64.2852 134.35 64.2852C135.183 64.2852 135.867 63.6193 135.867 62.7869C135.867 61.9545 135.183 61.2719 134.35 61.2719C133.517 61.2719 132.85 61.9545 132.85 62.7869ZM122.117 65.3674C122.9 64.5849 123.917 64.1687 125 64.1687C126.083 64.1687 127.1 64.5849 127.867 65.3507C128.633 66.1165 129.05 67.1321 129.05 68.2142C129.033 70.4451 127.233 72.2597 125 72.2597C123.917 72.2597 122.9 71.8435 122.133 71.0777C121.367 70.3119 120.95 69.2963 120.95 68.2142V68.1976C120.933 67.1487 121.35 66.1332 122.117 65.3674ZM129.617 72.8424C128.433 74.0244 126.8 74.7569 125 74.7569C123.25 74.7569 121.617 74.0744 120.367 72.8424C119.133 71.5938 118.45 69.9623 118.45 68.2142C118.433 66.4828 119.117 64.8513 120.35 63.6027C121.6 62.3541 123.25 61.6715 125 61.6715C126.75 61.6715 128.4 62.3541 129.633 63.586C130.867 64.8346 131.55 66.4828 131.55 68.2142C131.533 70.0289 130.8 71.6604 129.617 72.8424Z" fill="white" />
</svg>