<svg width="442" height="90" viewBox="0 0 442 90" fill="none" xmlns="http://www.w3.org/2000/svg">
<path d="M35.2088 88.4666V50.5018H0V38.1754L32.2698 5.89777H47.4349V38.2344H54.9587V50.5018H47.4349V88.4666H35.2088ZM14.2246 38.1754L35.2088 38.2344L35.0912 17.2075L14.2246 38.1754Z" fill="#FF844B"/>
<path d="M52.7334 88.4666V5.89777H101.226V18.1651H64.9595V38.0996H95.5835V50.367H64.9595V88.4666H52.7334Z" fill="#016FB9"/>
<path d="M131.327 90C125.919 90 120.982 88.6042 116.515 85.8126C112.087 83.021 108.54 79.2857 105.876 74.6068C103.25 69.8886 101.937 64.6789 101.937 58.9777C101.937 54.6527 102.702 50.6225 104.23 46.8873C105.758 43.1127 107.855 39.81 110.519 36.979C113.223 34.1088 116.358 31.8676 119.924 30.2556C123.49 28.6435 127.291 27.8375 131.327 27.8375C136.735 27.8375 141.653 29.2333 146.081 32.0249C150.548 34.8165 154.094 38.5714 156.72 43.2896C159.384 48.0079 160.717 53.2372 160.717 58.9777C160.717 63.2634 159.953 67.2739 158.424 71.0092C156.896 74.7444 154.78 78.0472 152.076 80.9174C149.412 83.7484 146.296 85.9699 142.73 87.5819C139.204 89.194 135.402 90 131.327 90ZM131.327 77.7326C134.58 77.7326 137.499 76.8676 140.085 75.1376C142.672 73.4076 144.709 71.1271 146.198 68.2962C147.727 65.426 148.491 62.3198 148.491 58.9777C148.491 55.557 147.707 52.4115 146.14 49.5413C144.611 46.671 142.554 44.3906 139.968 42.6999C137.381 40.9699 134.501 40.1049 131.327 40.1049C128.114 40.1049 125.194 40.9699 122.569 42.6999C119.983 44.4299 117.925 46.73 116.397 49.6003C114.908 52.4705 114.164 55.5963 114.164 58.9777C114.164 62.4771 114.947 65.6422 116.515 68.4731C118.082 71.3041 120.159 73.5649 122.745 75.2556C125.371 76.9069 128.231 77.7326 131.327 77.7326Z" fill="#016FB9"/>
<path d="M196.801 90C191.393 90 186.456 88.6042 181.989 85.8126C177.561 83.021 174.014 79.2857 171.35 74.6068C168.724 69.8886 167.411 64.6789 167.411 58.9777C167.411 54.6527 168.176 50.6225 169.704 46.8873C171.232 43.1127 173.329 39.81 175.993 36.979C178.697 34.1088 181.832 31.8676 185.398 30.2556C188.964 28.6435 192.765 27.8375 196.801 27.8375C202.209 27.8375 207.127 29.2333 211.555 32.0249C216.022 34.8165 219.568 38.5714 222.194 43.2896C224.858 48.0079 226.191 53.2372 226.191 58.9777C226.191 63.2634 225.427 67.2739 223.898 71.0092C222.37 74.7444 220.254 78.0472 217.55 80.9174C214.886 83.7484 211.77 85.9699 208.204 87.5819C204.678 89.194 200.876 90 196.801 90ZM196.801 77.7326C200.054 77.7326 202.973 76.8676 205.559 75.1376C208.146 73.4076 210.183 71.1271 211.672 68.2962C213.201 65.426 213.965 62.3198 213.965 58.9777C213.965 55.557 213.181 52.4115 211.613 49.5413C210.085 46.671 208.028 44.3906 205.442 42.6999C202.855 40.9699 199.975 40.1049 196.801 40.1049C193.588 40.1049 190.668 40.9699 188.043 42.6999C185.457 44.4299 183.399 46.73 181.871 49.6003C180.382 52.4705 179.638 55.5963 179.638 58.9777C179.638 62.4771 180.421 65.6422 181.989 68.4731C183.556 71.3041 185.633 73.5649 188.219 75.2556C190.845 76.9069 193.705 77.7326 196.801 77.7326Z" fill="#016FB9"/>
<path d="M282.201 0H294.427V88.4666H282.201V79.7969C280.281 82.8637 277.773 85.3408 274.678 87.228C271.582 89.076 267.957 90 263.803 90C259.532 90 255.535 89.194 251.812 87.5819C248.09 85.9699 244.798 83.7484 241.937 80.9174C239.116 78.0472 236.902 74.7444 235.295 71.0092C233.689 67.2739 232.885 63.2634 232.885 58.9777C232.885 54.692 233.689 50.6815 235.295 46.9463C236.902 43.1717 239.116 39.8689 241.937 37.038C244.798 34.1678 248.09 31.9266 251.812 30.3146C255.535 28.7025 259.532 27.8965 263.803 27.8965C267.957 27.8965 271.582 28.8401 274.678 30.7274C277.773 32.5754 280.281 35.0131 282.201 38.0406V0ZM263.921 78.1455C267.369 78.1455 270.387 77.3001 272.973 75.6094C275.559 73.8794 277.558 71.5596 278.968 68.6501C280.418 65.7405 281.143 62.5164 281.143 58.9777C281.143 55.3997 280.418 52.156 278.968 49.2464C277.519 46.3368 275.5 44.0367 272.914 42.346C270.367 40.616 267.369 39.751 263.921 39.751C260.512 39.751 257.396 40.616 254.575 42.346C251.793 44.076 249.559 46.3958 247.874 49.3054C246.228 52.2149 245.405 55.4391 245.405 58.9777C245.405 62.5557 246.248 65.7995 247.933 68.709C249.657 71.5793 251.91 73.8794 254.693 75.6094C257.514 77.3001 260.59 78.1455 263.921 78.1455Z" fill="#016FB9"/>
<path d="M309.348 29.4889H321.574V88.4666H309.348V29.4889ZM315.579 20.9371C313.698 20.9371 312.131 20.3277 310.877 19.1088C309.623 17.8899 308.996 16.3565 308.996 14.5085C308.996 12.6999 309.623 11.1861 310.877 9.96724C312.131 8.70905 313.678 8.07995 315.52 8.07995C317.323 8.07995 318.851 8.70905 320.105 9.96724C321.359 11.1861 321.986 12.6999 321.986 14.5085C321.986 16.3565 321.359 17.8899 320.105 19.1088C318.89 20.3277 317.382 20.9371 315.579 20.9371Z" fill="#016FB9"/>
<path d="M361.308 90C355.9 90 350.963 88.6042 346.495 85.8126C342.067 83.021 338.521 79.2857 335.856 74.6068C333.231 69.8886 331.918 64.6789 331.918 58.9777C331.918 54.6527 332.682 50.6225 334.21 46.8873C335.739 43.1127 337.835 39.81 340.5 36.979C343.204 34.1088 346.339 31.8676 349.905 30.2556C353.47 28.6435 357.272 27.8375 361.308 27.8375C365.814 27.8375 369.948 28.7811 373.71 30.6684C377.472 32.5164 380.685 35.0917 383.35 38.3945C386.015 41.6579 387.974 45.4325 389.228 49.7182C390.482 53.9646 390.854 58.4862 390.345 63.2831H345.026C345.535 65.9961 346.515 68.4535 347.965 70.6553C349.454 72.8178 351.335 74.5282 353.608 75.7864C355.92 77.0446 358.486 77.6933 361.308 77.7326C364.286 77.7326 366.99 76.9856 369.419 75.4915C371.888 73.9974 373.906 71.9332 375.474 69.2988L387.876 72.1887C385.525 77.4181 381.978 81.7038 377.237 85.0459C372.495 88.3486 367.186 90 361.308 90ZM344.614 53.9056H378.001C377.609 51.0747 376.61 48.519 375.003 46.2385C373.436 43.9187 371.457 42.0904 369.067 40.7536C366.715 39.3775 364.129 38.6894 361.308 38.6894C358.525 38.6894 355.939 39.3578 353.549 40.6946C351.198 42.0315 349.238 43.8598 347.671 46.1796C346.143 48.46 345.124 51.0354 344.614 53.9056Z" fill="#016FB9"/>
<path d="M418.782 89.5872C415.686 89.3906 412.669 88.7615 409.73 87.6999C406.791 86.6383 404.205 85.2031 401.971 83.3945C399.777 81.5465 398.131 79.384 397.034 76.9069L407.438 72.4246C407.947 73.4862 408.829 74.5282 410.083 75.5505C411.376 76.5727 412.885 77.4181 414.609 78.0865C416.333 78.7156 418.136 79.0301 420.017 79.0301C421.858 79.0301 423.563 78.7746 425.13 78.2634C426.737 77.713 428.05 76.8873 429.069 75.7864C430.087 74.6855 430.597 73.3683 430.597 71.8349C430.597 70.1048 430.009 68.768 428.833 67.8244C427.697 66.8414 426.267 66.0944 424.543 65.5832C422.818 65.0721 421.094 64.5806 419.37 64.1088C415.53 63.2438 412.003 62.0642 408.79 60.5701C405.616 59.0367 403.088 57.0904 401.207 54.7313C399.326 52.3329 398.386 49.4037 398.386 45.9436C398.386 42.1691 399.405 38.9056 401.442 36.1533C403.48 33.3617 406.145 31.2189 409.436 29.7248C412.767 28.2307 416.313 27.4836 420.075 27.4836C424.778 27.4836 429.088 28.4862 433.007 30.4915C436.925 32.4967 439.923 35.249 442 38.7484L432.301 44.5282C431.714 43.3486 430.832 42.287 429.656 41.3434C428.481 40.3997 427.148 39.6527 425.659 39.1022C424.17 38.5125 422.622 38.1782 421.016 38.0996C419.017 38.021 417.156 38.2569 415.432 38.8073C413.747 39.3185 412.395 40.1442 411.376 41.2844C410.357 42.4246 409.848 43.8794 409.848 45.6488C409.848 47.3788 410.455 48.6763 411.67 49.5413C412.885 50.367 414.413 51.0354 416.255 51.5465C418.136 52.0577 420.056 52.6278 422.015 53.2569C425.503 54.3578 428.775 55.7143 431.831 57.3263C434.888 58.8991 437.356 60.8453 439.237 63.1651C441.118 65.4849 442.02 68.3159 441.941 71.6579C441.941 75.3539 440.824 78.5976 438.591 81.3893C436.396 84.1809 433.536 86.3041 430.009 87.7589C426.482 89.2136 422.74 89.8231 418.782 89.5872Z" fill="#016FB9"/>
</svg>
