<svg width="28" height="28" viewBox="0 0 28 28" fill="none" xmlns="http://www.w3.org/2000/svg">
<circle cx="14" cy="14" r="14" fill="#67A9D5"/>
<g clip-path="url(#clip0_723_11350)">
<path d="M26 14C26 20.6274 20.6274 26 14 26C7.37262 26 2 20.6274 2 14C2 14.0028 14 2.00136 14 2C20.6274 2 26 7.37262 26 14Z" fill="#0052B4"/>
<path d="M13.9678 14H13.9999C13.9999 13.9891 13.9999 13.9787 13.9999 13.9679C13.9892 13.9786 13.9785 13.9893 13.9678 14Z" fill="#F0F0F0"/>
<path d="M14 8.26086C14 6.14937 14 4.76577 14 2H13.998C7.3715 2.00108 2 7.37319 2 14H8.26086V10.4744L11.7864 14H13.9679C13.9787 13.9893 13.9894 13.9786 14 13.9678C14 13.1594 14 12.438 14 11.7865L10.4744 8.26086H14Z" fill="#F0F0F0"/>
<path d="M8.071 3.56519C6.19417 4.63389 4.63389 6.19417 3.56519 8.071V14H6.69564V6.69569V6.69564H14C14 5.70831 14 4.76772 14 3.56519H8.071Z" fill="#D80027"/>
<path d="M14.0001 12.5243L9.73666 8.26089H8.26099C8.26099 8.26084 8.26099 8.26089 8.26099 8.26089L14 13.9999H14.0001C14.0001 13.9999 14.0001 12.9825 14.0001 12.5243Z" fill="#D80027"/>
<path d="M9.23729 16.087L9.89588 17.4641L11.3831 17.1204L10.7171 18.4939L11.9131 19.4423L10.424 19.778L10.4281 21.3044L9.23729 20.3494L8.04648 21.3044L8.05065 19.778L6.56152 19.4423L7.75754 18.4939L7.09145 17.1204L8.57874 17.4641L9.23729 16.087Z" fill="#F0F0F0"/>
<path d="M19.9665 18.6957L20.2958 19.3842L21.0394 19.2123L20.7064 19.8991L21.3044 20.3733L20.5599 20.5411L20.5619 21.3044L19.9665 20.8269L19.3711 21.3044L19.3732 20.5411L18.6287 20.3733L19.2266 19.8991L18.8936 19.2123L19.6372 19.3842L19.9665 18.6957Z" fill="#F0F0F0"/>
<path d="M16.9031 11.3914L17.2323 12.08L17.976 11.908L17.643 12.5948L18.241 13.069L17.4964 13.2368L17.4985 14L16.9031 13.5225L16.3077 14L16.3097 13.2368L15.5652 13.069L16.1632 12.5948L15.8302 11.908L16.5738 12.08L16.9031 11.3914Z" fill="#F0F0F0"/>
<path d="M19.9665 7.21741L20.2958 7.906L21.0394 7.73411L20.7064 8.42088L21.3044 8.89506L20.5599 9.06292L20.5619 9.82614L19.9665 9.34863L19.3711 9.82614L19.3732 9.06292L18.6287 8.89506L19.2266 8.42088L18.8936 7.73411L19.6372 7.906L19.9665 7.21741Z" fill="#F0F0F0"/>
<path d="M22.6424 10.3479L22.9716 11.0365L23.7152 10.8646L23.3822 11.5513L23.9802 12.0256L23.2356 12.1934L23.2377 12.9566L22.6424 12.4791L22.0469 12.9566L22.049 12.1934L21.3044 12.0256L21.9024 11.5513L21.5694 10.8646L22.313 11.0365L22.6424 10.3479Z" fill="#F0F0F0"/>
<path d="M20.729 14L20.988 14.7972H21.8262L21.1481 15.2899L21.4072 16.087L20.729 15.5943L20.0509 16.087L20.3099 15.2899L19.6318 14.7972H20.47L20.729 14Z" fill="#F0F0F0"/>
</g>
<defs>
<clipPath id="clip0_723_11350">
<rect width="24" height="24" fill="white" transform="translate(2 2)"/>
</clipPath>
</defs>
</svg>
