<svg width="28" height="28" viewBox="0 0 28 28" fill="none" xmlns="http://www.w3.org/2000/svg">
<circle cx="14" cy="14" r="14" fill="#67A9D5"/>
<g clip-path="url(#clip0_723_10793)">
<path d="M14 26C20.6274 26 26 20.6274 26 14C26 7.37258 20.6274 2 14 2C7.37258 2 2 7.37258 2 14C2 20.6274 7.37258 26 14 26Z" fill="white"/>
<path d="M14 2V14L5.51465 22.4853C7.68623 24.6568 10.6862 26 14 26C20.6273 26 26 20.6274 26 14C26 7.37262 14 2 14 2Z" fill="#D80027"/>
<path d="M14 2C10.6862 2 7.68623 3.34316 5.51465 5.51469C8.45887 8.45891 9.50404 9.50412 14 14H26C26 7.37262 20.6273 2 14 2Z" fill="#0052B4"/>
<path d="M10.2167 14L8.75124 13.3107L9.53166 11.8914L7.94025 12.1958L7.7386 10.5881L6.6301 11.7705L5.52164 10.5881L5.31994 12.1958L3.72858 11.8913L4.509 13.3107L3.04346 14L4.509 14.6894L3.72858 16.1087L5.32008 15.8043L5.5216 17.4119L6.6301 16.2295L7.7386 17.4119L7.94025 15.8043L9.53157 16.1087L8.75119 14.6894L10.2167 14Z" fill="#FFDA44"/>
<path d="M5.20033 6.69568L5.68802 7.37738L6.487 7.1243L5.98928 7.79874L6.47697 8.48044L5.68169 8.21555L5.18402 8.88994L5.19025 8.05182L4.39502 7.78688L5.19414 7.5338L5.20033 6.69568Z" fill="#FFDA44"/>
<path d="M5.20033 19.1101L5.68802 19.7918L6.487 19.5387L5.98928 20.2132L6.47697 20.8949L5.68169 20.63L5.18402 21.3044L5.19025 20.4662L4.39502 20.2013L5.19414 19.9482L5.20033 19.1101Z" fill="#FFDA44"/>
<path d="M12.1563 12.903L11.6687 13.5847L10.8696 13.3315L11.3673 14.006L10.8797 14.6877L11.6749 14.4228L12.1727 15.0972L12.1664 14.2591L12.9616 13.9942L12.1625 13.7411L12.1563 12.903Z" fill="#FFDA44"/>
</g>
<defs>
<clipPath id="clip0_723_10793">
<rect width="24" height="24" fill="white" transform="translate(2 2)"/>
</clipPath>
</defs>
</svg>
