<svg width="28" height="28" viewBox="0 0 28 28" fill="none" xmlns="http://www.w3.org/2000/svg">
<circle cx="14" cy="14" r="14" fill="#67A9D5"/>
<g clip-path="url(#clip0_723_11301)">
<path d="M14 26C20.6274 26 26 20.6274 26 14C26 7.37258 20.6274 2 14 2C7.37258 2 2 7.37258 2 14C2 20.6274 7.37258 26 14 26Z" fill="#F0F0F0"/>
<path d="M18.174 13.9999C18.174 15.0434 16.3052 17.6521 14.0001 17.6521C11.6949 17.6521 9.82617 15.0434 9.82617 13.9999C9.82617 11.6947 11.6949 9.82605 14.0001 9.82605C16.3052 9.82605 18.174 11.6947 18.174 13.9999Z" fill="#D80027"/>
<path d="M18.174 14C18.174 16.3052 16.3052 18.1739 14.0001 18.1739C11.6949 18.1739 9.82617 16.3052 9.82617 14" fill="#0052B4"/>
<path d="M18.4238 17.6895L19.5304 16.5829L20.2682 17.3206L19.1616 18.4272L18.4238 17.6895Z" fill="black"/>
<path d="M16.5789 19.5338L17.6855 18.4272L18.4232 19.165L17.3166 20.2716L16.5789 19.5338Z" fill="black"/>
<path d="M20.6372 19.9026L21.7438 18.796L22.4815 19.5337L21.375 20.6403L20.6372 19.9026Z" fill="black"/>
<path d="M18.7925 21.7472L19.8991 20.6406L20.6368 21.3783L19.5302 22.4849L18.7925 21.7472Z" fill="black"/>
<path d="M19.5305 18.796L20.6371 17.6894L21.3749 18.4272L20.2683 19.5338L19.5305 18.796Z" fill="black"/>
<path d="M17.686 20.6405L18.7926 19.5339L19.5304 20.2716L18.4238 21.3782L17.686 20.6405Z" fill="black"/>
<path d="M20.6421 10.3126L17.6911 7.36168L18.4289 6.62394L21.3798 9.57488L20.6421 10.3126Z" fill="black"/>
<path d="M17.6907 9.5752L16.5841 8.4686L17.3218 7.73089L18.4284 8.83748L17.6907 9.5752Z" fill="black"/>
<path d="M19.5349 11.4199L18.4283 10.3133L19.166 9.57561L20.2726 10.6822L19.5349 11.4199Z" fill="black"/>
<path d="M19.9036 7.36157L18.797 6.25497L19.5347 5.51723L20.6413 6.62383L19.9036 7.36157Z" fill="black"/>
<path d="M21.749 9.20654L20.6424 8.09994L21.3802 7.3622L22.4868 8.4688L21.749 9.20654Z" fill="black"/>
<path d="M6.25415 18.7939L9.20509 21.7449L8.46735 22.4826L5.51641 19.5317L6.25415 18.7939Z" fill="black"/>
<path d="M9.20483 19.5311L10.3114 20.6377L9.57372 21.3754L8.46712 20.2688L9.20483 19.5311Z" fill="black"/>
<path d="M7.36035 17.6871L8.46695 18.7937L7.72921 19.5315L6.62261 18.4249L7.36035 17.6871Z" fill="black"/>
<path d="M8.46704 16.5802L11.418 19.5311L10.6802 20.2689L7.7293 17.3179L8.46704 16.5802Z" fill="black"/>
<path d="M9.20483 6.25269L6.25389 9.20363L5.51615 8.46588L8.46709 5.51494L9.20483 6.25269Z" fill="black"/>
<path d="M10.3113 7.35913L7.36034 10.3101L6.62259 9.57233L9.57354 6.62139L10.3113 7.35913Z" fill="black"/>
<path d="M11.4189 8.46643L8.468 11.4174L7.73029 10.6797L10.6812 7.72872L11.4189 8.46643Z" fill="black"/>
</g>
<defs>
<clipPath id="clip0_723_11301">
<rect width="24" height="24" fill="white" transform="translate(2 2)"/>
</clipPath>
</defs>
</svg>
