<svg width="28" height="28" viewBox="0 0 28 28" fill="none" xmlns="http://www.w3.org/2000/svg">
<circle cx="14" cy="14" r="14" fill="#67A9D5"/>
<g clip-path="url(#clip0_723_11319)">
<path d="M14 26C20.6274 26 26 20.6274 26 14C26 7.37258 20.6274 2 14 2C7.37258 2 2 7.37258 2 14C2 20.6274 7.37258 26 14 26Z" fill="#F0F0F0"/>
<path d="M14.0001 19.2173C16.8816 19.2173 19.2175 16.8814 19.2175 14C19.2175 11.1185 16.8816 8.78259 14.0001 8.78259C11.1186 8.78259 8.78271 11.1185 8.78271 14C8.78271 16.8814 11.1186 19.2173 14.0001 19.2173Z" fill="#D80027"/>
</g>
<defs>
<clipPath id="clip0_723_11319">
<rect width="24" height="24" fill="white" transform="translate(2 2)"/>
</clipPath>
</defs>
</svg>
