<svg width="29" height="18" viewBox="0 0 29 18" fill="none" xmlns="http://www.w3.org/2000/svg">
<path d="M6.9 0.149999C8.58333 0.149999 9.9 0.508333 10.85 1.225C11.8 1.925 12.425 2.91667 12.725 4.2H14.05V5.925H12.95C12.9667 6.025 12.975 6.125 12.975 6.225C12.975 6.30833 12.975 6.39167 12.975 6.475C12.975 6.64167 12.9667 6.80833 12.95 6.975C12.95 7.125 12.9417 7.26667 12.925 7.4H14.05V9.125H12.575C12.325 9.90833 11.925 10.6083 11.375 11.225C10.825 11.8417 10.1 12.325 9.2 12.675C8.3 13.025 7.19167 13.2 5.875 13.2H5.4V18H1.675V9.125H0.25V7.4H1.675V5.925H0.25V4.2H1.675V0.149999H6.9ZM8.675 9.125H5.4V10.2H5.8C6.48333 10.2 7.06667 10.1167 7.55 9.95C8.03333 9.78333 8.40833 9.50833 8.675 9.125ZM9.225 5.925H5.4V7.4H9.225C9.24167 7.26667 9.25 7.14167 9.25 7.025C9.25 6.89167 9.25 6.75 9.25 6.6C9.25 6.48333 9.25 6.375 9.25 6.275C9.25 6.15833 9.24167 6.04167 9.225 5.925ZM6.725 3.15H5.4V4.2H8.825C8.64167 3.86667 8.375 3.60833 8.025 3.425C7.69167 3.24167 7.25833 3.15 6.725 3.15ZM21.2066 0.149999C22.89 0.149999 24.2066 0.508333 25.1566 1.225C26.1066 1.925 26.7316 2.91667 27.0316 4.2H28.3566V5.925H27.2566C27.2733 6.025 27.2816 6.125 27.2816 6.225C27.2816 6.30833 27.2816 6.39167 27.2816 6.475C27.2816 6.64167 27.2733 6.80833 27.2566 6.975C27.2566 7.125 27.2483 7.26667 27.2316 7.4H28.3566V9.125H26.8816C26.6316 9.90833 26.2316 10.6083 25.6816 11.225C25.1316 11.8417 24.4066 12.325 23.5066 12.675C22.6066 13.025 21.4983 13.2 20.1816 13.2H19.7066V18H15.9816V9.125H14.5566V7.4H15.9816V5.925H14.5566V4.2H15.9816V0.149999H21.2066ZM22.9816 9.125H19.7066V10.2H20.1066C20.79 10.2 21.3733 10.1167 21.8566 9.95C22.34 9.78333 22.715 9.50833 22.9816 9.125ZM23.5316 5.925H19.7066V7.4H23.5316C23.5483 7.26667 23.5566 7.14167 23.5566 7.025C23.5566 6.89167 23.5566 6.75 23.5566 6.6C23.5566 6.48333 23.5566 6.375 23.5566 6.275C23.5566 6.15833 23.5483 6.04167 23.5316 5.925ZM21.0316 3.15H19.7066V4.2H23.1316C22.9483 3.86667 22.6816 3.60833 22.3316 3.425C21.9983 3.24167 21.565 3.15 21.0316 3.15Z" fill="#1B1C20"/>
</svg>
