<svg width="545" height="407" viewBox="0 0 545 407" fill="none" xmlns="http://www.w3.org/2000/svg">
<g clip-path="url(#clip0_477_10975)">
<path d="M397.957 386.607H387.113L381.952 344.826H397.957V386.607Z" fill="#FFB8B8"/>
<path d="M403.68 405.375H395.904L394.516 398.041L390.961 405.375H370.335C369.347 405.375 368.384 405.059 367.587 404.474C366.791 403.889 366.203 403.065 365.909 402.122C365.614 401.179 365.63 400.167 365.952 399.233C366.274 398.3 366.887 397.494 367.701 396.932L384.171 385.569V378.155L401.496 379.188L403.68 405.375Z" fill="#2F2E41"/>
<path d="M462.382 372.937L453.679 379.4L424.58 348.949L437.423 339.409L462.382 372.937Z" fill="#FFB8B8"/>
<path d="M478.185 384.586L471.945 389.221L466.45 384.163L467.978 392.167L451.427 404.462C450.634 405.051 449.673 405.372 448.684 405.377C447.696 405.382 446.731 405.071 445.932 404.49C445.133 403.908 444.54 403.087 444.241 402.146C443.942 401.205 443.952 400.192 444.27 399.257L450.699 380.321L446.27 374.371L460.789 364.874L478.185 384.586Z" fill="#2F2E41"/>
<path d="M410.582 171.039C410.582 171.039 431.157 188.795 421.664 239.414L410.075 289.012L447.871 351.647L435.82 366.293L386.683 298.497L368.878 256.776L363.882 182.521L410.582 171.039Z" fill="#2F2E41"/>
<path d="M378.692 268.666L377.454 287.81L381.241 369.393L399.062 366.292L402.468 308.207L378.692 268.666Z" fill="#2F2E41"/>
<path d="M150.002 396.43L159.7 396.43L164.313 359.066L150.001 359.067L150.002 396.43Z" fill="#FFB6B6"/>
<path d="M147.529 393.268L150.258 393.268L160.915 388.938L166.627 393.267H166.627C169.855 393.267 172.951 394.548 175.233 396.828C177.516 399.108 178.798 402.2 178.798 405.424V405.819L147.529 405.82L147.529 393.268Z" fill="#2F2E41"/>
<path d="M187.583 390.326L197.041 392.459L209.781 357.028L195.82 353.88L187.583 390.326Z" fill="#FFB6B6"/>
<path d="M185.867 386.697L188.529 387.297L199.879 385.419L204.496 390.898L204.496 390.898C207.645 391.609 210.382 393.539 212.105 396.265C213.829 398.992 214.398 402.29 213.687 405.435L213.6 405.82L183.099 398.941L185.867 386.697Z" fill="#2F2E41"/>
<path d="M137.72 168.007C133.174 181.705 133.654 196.574 138.813 212.531L141.018 302.379C141.018 302.379 137.733 361.299 148.335 382.032H163.712L171.325 296.998L172.281 239.922L205.246 288.075L184.249 380.642L203.174 382.332L237.246 281.875L195.208 184.415L137.72 168.007Z" fill="#2F2E41"/>
<path d="M315.045 128.991C326.806 118.404 344.3 113.081 358.974 119.017C343.921 127.365 332.31 140.763 326.194 156.839C323.858 163.047 321.907 170.196 316.161 173.52C312.586 175.588 308.138 175.689 304.129 174.691C300.121 173.692 296.446 171.69 292.822 169.709L291.791 169.686C296.42 154.562 303.284 139.578 315.045 128.991Z" fill="#E6E6E6"/>
<path d="M358.892 119.339C345.895 121.016 333.759 126.742 324.205 135.702C322.115 137.595 320.335 139.804 318.933 142.25C317.645 144.677 317.03 147.404 317.154 150.148C317.217 152.709 317.579 155.322 317.018 157.853C316.712 159.145 316.136 160.357 315.327 161.411C314.519 162.465 313.497 163.336 312.328 163.967C309.456 165.616 306.162 166.136 302.924 166.533C299.328 166.973 295.586 167.373 292.473 169.388C292.096 169.632 291.739 169.033 292.116 168.789C297.531 165.284 304.384 166.56 310.207 164.22C312.924 163.129 315.328 161.213 316.179 158.315C316.923 155.782 316.553 153.088 316.466 150.495C316.306 147.82 316.805 145.147 317.918 142.708C319.191 140.199 320.882 137.924 322.919 135.982C327.434 131.535 332.622 127.826 338.291 124.989C344.743 121.716 351.708 119.569 358.885 118.642C359.329 118.584 359.333 119.282 358.892 119.339Z" fill="white"/>
<path d="M327.112 132.636C325.824 130.831 325.221 128.627 325.41 126.419C325.599 124.211 326.568 122.141 328.143 120.581C328.463 120.266 328.967 120.748 328.647 121.063C327.178 122.513 326.276 124.441 326.104 126.498C325.932 128.555 326.502 130.605 327.711 132.279C327.973 132.643 327.373 132.998 327.112 132.636Z" fill="white"/>
<path d="M316.95 148.854C321.416 149.644 326.017 148.724 329.834 146.277C330.212 146.034 330.569 146.633 330.191 146.876C326.214 149.415 321.425 150.363 316.78 149.53C316.337 149.45 316.51 148.775 316.95 148.854Z" fill="white"/>
<path d="M344.8 122.638C345.152 123.44 345.699 124.142 346.39 124.681C347.081 125.221 347.895 125.58 348.76 125.727C349.203 125.801 349.03 126.476 348.589 126.403C347.635 126.236 346.736 125.838 345.971 125.244C345.206 124.65 344.598 123.878 344.201 122.995C344.156 122.915 344.144 122.821 344.166 122.733C344.189 122.644 344.244 122.567 344.321 122.518C344.401 122.471 344.496 122.457 344.585 122.48C344.675 122.502 344.752 122.559 344.8 122.638Z" fill="white"/>
<path d="M375.132 170.072C374.854 170.033 374.576 169.995 374.294 169.961C370.55 169.465 366.772 169.273 362.997 169.388C362.705 169.392 362.409 169.401 362.118 169.413C353.026 169.787 344.083 171.843 335.743 175.478C332.425 176.927 329.223 178.626 326.164 180.561C321.939 183.233 317.571 186.466 312.848 187.556C312.357 187.675 311.858 187.764 311.356 187.822L291.842 170.944C291.817 170.883 291.788 170.827 291.763 170.766L290.953 170.128C291.104 170.017 291.262 169.906 291.413 169.795C291.5 169.73 291.592 169.669 291.679 169.605C291.739 169.563 291.799 169.521 291.85 169.48C291.87 169.466 291.89 169.452 291.905 169.442C291.957 169.401 292.009 169.368 292.056 169.332C292.942 168.705 293.834 168.083 294.732 167.467C294.736 167.463 294.736 167.463 294.744 167.462C301.54 162.7 308.877 158.76 316.603 155.725C316.834 155.637 317.07 155.545 317.31 155.466C320.789 154.173 324.368 153.167 328.011 152.458C330.008 152.075 332.022 151.794 334.046 151.616C339.278 151.164 344.549 151.537 349.665 152.721C359.863 155.083 369.192 160.677 374.717 169.401C374.858 169.624 374.995 169.844 375.132 170.072Z" fill="#E6E6E6"/>
<path d="M374.874 170.281C363.486 163.805 350.345 161.077 337.316 162.486C334.506 162.739 331.754 163.434 329.16 164.543C326.669 165.706 324.534 167.514 322.979 169.779C321.486 171.862 320.2 174.165 318.227 175.85C317.203 176.697 316.013 177.318 314.732 177.674C313.452 178.029 312.11 178.109 310.797 177.911C307.51 177.5 304.567 175.934 301.742 174.303C298.605 172.492 295.376 170.561 291.677 170.298C291.228 170.266 291.304 169.573 291.752 169.605C298.188 170.063 302.891 175.203 308.951 176.837C311.778 177.6 314.853 177.516 317.278 175.714C319.399 174.139 320.727 171.765 322.22 169.643C323.705 167.411 325.715 165.576 328.074 164.298C330.602 163.06 333.323 162.261 336.12 161.935C342.406 161.101 348.784 161.259 355.02 162.403C362.145 163.67 369 166.145 375.289 169.721C375.678 169.942 375.261 170.501 374.874 170.281Z" fill="white"/>
<path d="M341.485 161.785C341.545 159.57 342.391 157.448 343.873 155.798C345.355 154.149 347.376 153.079 349.574 152.78C350.019 152.721 350.132 153.409 349.686 153.468C347.639 153.743 345.756 154.739 344.38 156.278C343.003 157.817 342.222 159.797 342.178 161.86C342.168 162.309 341.475 162.231 341.485 161.785Z" fill="white"/>
<path d="M323.597 168.623C326.686 171.94 330.914 173.972 335.436 174.314C335.885 174.348 335.809 175.041 335.361 175.007C330.656 174.643 326.26 172.519 323.053 169.06C322.747 168.73 323.293 168.295 323.597 168.623Z" fill="white"/>
<path d="M361.634 164.441C361.432 165.293 361.445 166.182 361.672 167.028C361.899 167.874 362.333 168.651 362.934 169.288C363.244 169.614 362.698 170.049 362.391 169.725C361.729 169.018 361.251 168.16 360.998 167.226C360.745 166.291 360.726 165.309 360.94 164.366C360.953 164.275 361 164.192 361.071 164.135C361.143 164.078 361.233 164.05 361.325 164.057C361.416 164.067 361.5 164.113 361.558 164.185C361.616 164.257 361.643 164.349 361.634 164.441Z" fill="white"/>
<path d="M32.3911 395.752C31.4751 399.185 29.0682 402.044 26.1622 404.126C25.6884 404.467 25.202 404.782 24.7092 405.079C24.5576 405.167 24.406 405.262 24.248 405.344C24.0775 405.445 23.9069 405.54 23.7363 405.628H10.0719C9.82551 405.129 9.58545 404.625 9.34539 404.126C3.48921 391.833 -0.623386 378.569 0.07784 365.058C0.356042 359.817 1.45822 354.653 3.34391 349.755C7.09642 339.993 13.9444 331.543 23.3636 327.29C23.5973 327.182 23.8437 327.075 24.0838 326.974C24.008 327.246 23.9322 327.511 23.8564 327.782C22.8458 331.418 22.1317 335.131 21.7211 338.882C21.6832 339.172 21.6516 339.463 21.6263 339.759C20.7288 348.807 21.5258 357.942 23.9764 366.699C23.9827 366.718 23.989 366.743 23.9953 366.762C24.5323 368.699 25.1556 370.607 25.8653 372.485C26.4212 373.968 27.0213 375.432 27.6784 376.871C30.4201 382.91 34.0967 389.347 32.3911 395.752Z" fill="#E6E6E6"/>
<path d="M24.2544 327.258C24.1217 327.435 23.989 327.605 23.8564 327.782C21.0817 331.455 18.7255 335.426 16.8315 339.62C16.7304 339.829 16.6357 340.037 16.5535 340.252C13.9584 346.109 12.2917 352.334 11.6134 358.703C11.606 358.747 11.6018 358.791 11.6007 358.836C11.4428 360.325 11.348 361.827 11.3101 363.329C11.1697 366.144 11.4745 368.964 12.2135 371.684C12.8873 373.905 14.0681 375.94 15.6628 377.628C15.8207 377.799 15.9787 377.969 16.1492 378.133C16.2756 378.266 16.4146 378.398 16.5472 378.524C17.8233 379.742 19.2195 380.872 20.4198 382.178C20.9699 382.764 21.4667 383.398 21.9043 384.071C22.6027 385.201 23.0539 386.465 23.2281 387.781C23.4023 389.097 23.2956 390.435 22.9151 391.707C22.056 394.9 20.0913 397.595 18.0823 400.163C17.0779 401.45 16.0418 402.75 15.1448 404.126C14.8163 404.618 14.513 405.117 14.2351 405.628H13.4391C13.7045 405.117 13.9951 404.618 14.3109 404.126C16.6168 400.498 19.8955 397.38 21.5948 393.386C22.7446 390.691 23.092 387.637 21.6391 384.993C21.2132 384.224 20.6979 383.508 20.1039 382.86C18.9479 381.553 17.5644 380.437 16.3072 379.256C15.9913 378.96 15.6818 378.657 15.3849 378.341C13.8107 376.744 12.596 374.829 11.8219 372.725C10.9452 370.053 10.5308 367.251 10.5963 364.439C10.5963 362.647 10.6911 360.843 10.868 359.05C10.8869 358.823 10.9122 358.59 10.9375 358.356C12.2294 347.078 16.52 336.352 23.3637 327.29C23.49 327.113 23.6227 326.943 23.7554 326.772C24.027 326.419 24.526 326.911 24.2544 327.258Z" fill="white"/>
<path d="M11.1924 359.11C9.00422 358.743 7.01797 357.611 5.58832 355.916C4.15867 354.221 3.37873 352.074 3.38777 349.857C3.38898 349.767 3.42526 349.68 3.48897 349.616C3.55268 349.552 3.63884 349.515 3.7293 349.513C3.81976 349.511 3.90746 349.544 3.97391 349.606C4.04037 349.667 4.0804 349.752 4.08556 349.842C4.07333 351.906 4.80004 353.906 6.13455 355.482C7.46907 357.057 9.32346 358.105 11.3631 358.434C11.8062 358.506 11.633 359.182 11.1924 359.11Z" fill="white"/>
<path d="M15.4874 377.755C19.2049 375.16 21.8064 371.26 22.7733 366.833C22.8687 366.394 23.5452 366.565 23.4499 367.004C22.4352 371.608 19.7196 375.661 15.8451 378.354C15.4756 378.61 15.1199 378.01 15.4874 377.755Z" fill="white"/>
<path d="M16.6224 339.547C17.4394 339.865 18.3227 339.976 19.1931 339.868C20.0635 339.761 20.8936 339.44 21.609 338.933C21.975 338.673 22.3303 339.273 21.9667 339.532C21.1737 340.088 20.2565 340.442 19.2951 340.562C18.3338 340.683 17.3575 340.566 16.4517 340.222C16.3636 340.197 16.2884 340.139 16.2414 340.061C16.1944 339.982 16.1792 339.889 16.1987 339.799C16.2218 339.71 16.2792 339.633 16.3586 339.586C16.4379 339.539 16.5327 339.525 16.6224 339.547Z" fill="white"/>
<path d="M71.6471 351.661C71.426 351.831 71.1986 352.002 70.9775 352.178C67.9782 354.471 65.1704 357.004 62.5817 359.751C62.3796 359.959 62.1774 360.174 61.9816 360.388L61.9753 360.394C55.8373 367.05 50.9841 374.782 47.6601 383.201L47.6412 383.257C47.6349 383.276 47.6285 383.289 47.6222 383.308C46.3047 386.677 45.2425 390.141 44.4446 393.67C43.6739 397.115 43.0421 400.807 41.8355 404.126C41.6523 404.637 41.4502 405.142 41.2354 405.628H13.1484C13.2432 405.129 13.3443 404.625 13.4454 404.126C14.8741 396.814 17.1072 389.682 20.1038 382.86C20.2049 382.633 20.306 382.405 20.4197 382.178C21.9667 378.807 23.7858 375.568 25.8589 372.492L25.8594 372.489L25.8608 372.487L25.8628 372.486L25.8653 372.485C27.0037 370.807 28.2266 369.187 29.5293 367.633C32.908 363.617 36.8989 360.159 41.3554 357.384C41.3807 357.365 41.4123 357.353 41.4375 357.334C50.3071 351.837 60.8192 349.219 70.8701 351.484H70.8764C71.1354 351.541 71.3881 351.598 71.6471 351.661Z" fill="#E6E6E6"/>
<path d="M71.6157 351.995C71.4009 352.052 71.1861 352.115 70.9776 352.178C66.5502 353.442 62.2767 355.192 58.2355 357.397C58.0333 357.504 57.8312 357.618 57.629 357.731C52.0442 360.845 46.9748 364.802 42.6001 369.463C42.5966 369.466 42.5944 369.47 42.5937 369.475C42.5432 369.526 42.4863 369.583 42.4421 369.633C41.4313 370.718 40.4585 371.848 39.5361 373.009C37.732 375.174 36.2782 377.608 35.2277 380.222C34.425 382.401 34.1416 384.736 34.4001 387.044C34.4191 387.277 34.4507 387.504 34.4823 387.738C34.5075 387.921 34.5328 388.104 34.5644 388.293C34.9813 390.824 35.7015 393.36 35.4993 395.941C35.3763 397.264 34.9744 398.545 34.32 399.701C33.6657 400.858 32.7736 401.862 31.7026 402.649C30.9746 403.212 30.1964 403.706 29.3778 404.126C28.2075 404.729 26.9881 405.231 25.7327 405.628H23.25C23.5848 405.533 23.9133 405.439 24.2481 405.344C25.4363 405.009 26.6029 404.602 27.7416 404.126C28.3921 403.854 29.0251 403.542 29.6368 403.192C32.1764 401.734 34.2928 399.5 34.7349 396.516C35.1203 393.903 34.3749 391.291 33.9326 388.735C33.8568 388.293 33.7873 387.858 33.7494 387.422C33.4478 385.209 33.631 382.957 34.2864 380.821C35.1954 378.158 36.5543 375.669 38.3042 373.463C39.3868 372.027 40.5423 370.648 41.7662 369.33C41.9178 369.16 42.0757 368.989 42.24 368.819C46.7067 364.125 51.8641 360.139 57.5343 356.999H57.5406C61.7566 354.655 66.2294 352.804 70.8702 351.484H70.8765C71.085 351.421 71.2998 351.358 71.5082 351.301C71.9442 351.187 72.0452 351.875 71.6157 351.995Z" fill="white"/>
<path d="M41.99 369.57C40.4641 367.96 39.5606 365.862 39.4407 363.649C39.3208 361.436 39.9923 359.252 41.3354 357.488C41.6084 357.132 42.1751 357.539 41.9017 357.895C40.648 359.536 40.0227 361.57 40.1386 363.631C40.2544 365.691 41.1039 367.643 42.5336 369.133C42.8439 369.457 42.2985 369.892 41.99 369.57Z" fill="white"/>
<path d="M34.1814 387.04C38.7141 387.203 43.1419 385.654 46.5819 382.701C46.9224 382.408 47.3595 382.951 47.0193 383.244C43.4338 386.31 38.8228 387.913 34.1063 387.733C33.6568 387.715 33.7343 387.022 34.1814 387.04Z" fill="white"/>
<path d="M58.1169 357.215C58.5774 357.96 59.2161 358.58 59.9756 359.018C60.735 359.456 61.5915 359.699 62.468 359.724C62.9176 359.736 62.8395 360.429 62.3929 360.417C61.4246 360.384 60.4791 360.115 59.6389 359.633C58.7988 359.151 58.0896 358.471 57.5733 357.652C57.5182 357.579 57.493 357.487 57.5028 357.396C57.5127 357.305 57.5569 357.222 57.6264 357.162C57.6987 357.104 57.7908 357.078 57.8826 357.088C57.9745 357.098 58.0587 357.143 58.1169 357.215Z" fill="white"/>
<path d="M288.313 109.253C287.665 110.105 286.837 110.804 285.889 111.302C284.941 111.8 283.895 112.084 282.825 112.135C281.754 112.185 280.686 112 279.695 111.594C278.704 111.187 277.815 110.569 277.089 109.781L253.209 120.156L255.535 106.84L277.855 99.0296C279.26 97.8994 281.031 97.3232 282.832 97.4102C284.634 97.4971 286.341 98.2412 287.63 99.5014C288.919 100.762 289.701 102.45 289.826 104.248C289.952 106.045 289.414 107.826 288.313 109.253Z" fill="#FFB8B8"/>
<path d="M272.377 113.411L216.913 138.09L216.794 138.047L153.578 115.545C148.869 113.087 145.279 108.923 143.543 103.907C141.807 98.8914 142.056 93.4023 144.24 88.564C145.45 85.8907 147.213 83.5038 149.413 81.5604C151.614 79.6169 154.201 78.161 157.005 77.2885C159.809 76.4159 162.767 76.1465 165.683 76.498C168.599 76.8494 171.407 77.8138 173.923 79.3276L220.967 107.636L266.586 101.73L272.377 113.411Z" fill="#E6E6E6"/>
<path d="M545 406.139C545 406.238 544.981 406.336 544.943 406.427C544.906 406.518 544.85 406.601 544.78 406.671C544.711 406.74 544.628 406.796 544.536 406.833C544.445 406.871 544.347 406.89 544.248 406.89H0.772753C0.573372 406.89 0.382165 406.811 0.241182 406.67C0.100199 406.529 0.0209961 406.338 0.0209961 406.139C0.0209961 405.94 0.100199 405.749 0.241182 405.608C0.382165 405.467 0.573372 405.388 0.772753 405.388H544.248C544.347 405.388 544.445 405.407 544.536 405.445C544.628 405.482 544.711 405.538 544.78 405.607C544.85 405.677 544.906 405.76 544.943 405.851C544.981 405.943 545 406.04 545 406.139Z" fill="#CCCCCC"/>
<path d="M197.95 187.292L142.038 178.359C140.572 177.89 139.224 177.109 138.088 176.071C136.952 175.032 136.055 173.761 135.457 172.343C134.86 170.925 134.576 169.396 134.627 167.858C134.677 166.321 135.06 164.813 135.749 163.437L138.284 158.371L137.299 105.144C137.181 98.2207 138.889 91.388 142.254 85.3336C145.618 79.2792 150.519 74.2166 156.464 70.6551L161.916 67.3985L164.672 60.4086L190.08 61.0277L190.154 70.1951L199.254 84.6892L199.253 84.7493L198.683 163.639L196.175 171.78L199.967 181.249L197.95 187.292Z" fill="#E6E6E6"/>
<path d="M179.703 51.7169C192.453 51.7169 202.789 41.3921 202.789 28.6558C202.789 15.9195 192.453 5.59476 179.703 5.59476C166.953 5.59476 156.617 15.9195 156.617 28.6558C156.617 41.3921 166.953 51.7169 179.703 51.7169Z" fill="#FFB8B8"/>
<path d="M155.663 33.683C154.975 30.7854 155.291 26.7078 155.68 23.7901C156.7 16.141 160.953 8.8692 167.413 4.56184C168.638 3.63241 170.094 3.05455 171.623 2.89054C173.152 2.8268 174.809 3.64412 175.278 5.09857C175.663 4.13863 176.241 3.2677 176.976 2.53953C177.711 1.81137 178.588 1.24142 179.552 0.864876C181.489 0.123621 183.572 -0.156704 185.636 0.0461219C189.637 0.375553 193.474 1.78084 196.74 4.11286C200.006 6.44487 202.579 9.6166 204.186 13.2915C204.802 14.7547 206.525 9.34981 207.306 10.7324C208.024 12.1695 209.276 13.2688 210.795 13.7951C212.326 14.2218 212.948 20.5223 213.551 19.0531C214.018 20.1389 214.203 21.3251 214.088 22.5014C213.973 23.6777 213.561 24.8057 212.892 25.7805C212.223 26.7553 211.318 27.5451 210.261 28.0763C209.204 28.6075 208.03 28.8629 206.848 28.8187C205.289 28.7605 203.799 28.188 202.26 27.9416C196.754 27.0604 190.914 31.0483 189.737 36.4926C189.315 34.9182 188.642 33.4221 187.743 32.0621C187.287 31.3856 186.676 30.8278 185.96 30.435C185.244 30.0422 184.445 29.8258 183.629 29.8038C182.062 29.8623 180.685 30.8853 179.669 32.0774C178.653 33.2695 177.889 34.6603 176.866 35.8459C173.861 39.3249 169.798 47.438 165.517 46.8463C162.138 46.3794 156.603 37.6394 155.663 33.683Z" fill="#2F2E41"/>
<path d="M319.256 135.385C319.418 134.334 319.201 133.259 318.646 132.352C318.09 131.445 317.23 130.764 316.219 130.429L254.048 109.745C253.452 109.546 252.821 109.474 252.195 109.533L236.612 111.005L227.671 111.852L211.171 113.41C210.175 113.505 209.238 113.927 208.508 114.612C207.779 115.296 207.297 116.202 207.138 117.189L198.761 169.464C198.602 170.483 198.796 171.526 199.311 172.421C199.826 173.315 200.631 174.008 201.594 174.383L264.414 198.606C264.708 198.72 265.015 198.802 265.327 198.851C265.782 198.924 266.246 198.928 266.702 198.861L307.294 192.851C308.252 192.713 309.139 192.27 309.824 191.588C310.51 190.906 310.957 190.021 311.099 189.066L319.256 135.385Z" fill="white"/>
<path d="M203.018 170.7L265.837 194.921C265.929 194.957 266.029 194.969 266.126 194.955L306.713 188.946C306.834 188.93 306.945 188.874 307.031 188.789C307.117 188.703 307.173 188.592 307.19 188.472L315.352 134.791C315.371 134.66 315.343 134.526 315.274 134.413C315.205 134.3 315.099 134.215 314.973 134.171L314.555 134.03L252.798 113.492C252.77 113.482 252.741 113.475 252.712 113.471C252.664 113.462 252.615 113.46 252.566 113.464L214.558 117.056L211.542 117.339C211.419 117.352 211.303 117.405 211.212 117.491C211.121 117.576 211.061 117.688 211.04 117.811L202.664 170.083C202.644 170.211 202.668 170.342 202.732 170.454C202.796 170.566 202.897 170.653 203.018 170.7Z" fill="#016FB9"/>
<path d="M214.559 117.056L252.566 113.464C252.615 113.46 252.664 113.462 252.712 113.471C252.741 113.475 252.77 113.482 252.799 113.492L314.555 134.03L298.265 135.753L292.169 136.394L274.821 138.225C274.77 138.227 274.719 138.227 274.669 138.223C274.638 138.214 274.607 138.204 274.57 138.195L214.559 117.056Z" fill="#2F2E41"/>
<path d="M201.592 174.387L264.412 198.608C264.708 198.721 265.015 198.802 265.329 198.847C265.784 198.922 266.247 198.928 266.704 198.864L307.291 192.855C308.249 192.716 309.137 192.272 309.822 191.59C310.508 190.908 310.956 190.023 311.099 189.067L319.255 135.385C319.376 134.594 319.284 133.784 318.991 133.04C318.949 132.941 318.908 132.842 318.86 132.748C318.536 132.068 318.044 131.482 317.43 131.046C317.06 130.781 316.652 130.573 316.22 130.43L316.146 130.404L254.052 109.745C253.798 109.664 253.539 109.601 253.276 109.557C252.917 109.506 252.554 109.499 252.193 109.536L236.613 111.003L227.672 111.855L211.169 113.411C210.494 113.474 209.842 113.689 209.262 114.04C209.217 114.062 209.175 114.088 209.134 114.117C209.106 114.136 209.078 114.156 209.052 114.179C208.546 114.524 208.115 114.969 207.787 115.485C207.458 116.002 207.238 116.58 207.14 117.185L198.757 169.463C198.599 170.483 198.793 171.527 199.309 172.422C199.824 173.318 200.63 174.01 201.592 174.387ZM208.252 117.367C208.354 116.741 208.632 116.156 209.055 115.681C209.182 115.529 209.325 115.39 209.481 115.266C209.908 114.922 210.411 114.687 210.949 114.582C211.055 114.56 211.163 114.545 211.271 114.536L239.058 111.914L252.302 110.655C252.392 110.645 252.474 110.646 252.557 110.642C252.757 110.637 252.958 110.652 253.156 110.686C253.337 110.71 253.516 110.752 253.689 110.813L315.857 131.498C315.906 131.515 315.949 131.532 315.998 131.55C316.563 131.76 317.06 132.121 317.434 132.593C317.73 132.955 317.946 133.375 318.068 133.826C318.19 134.276 318.215 134.748 318.142 135.209L309.98 188.896C309.873 189.612 309.538 190.275 309.025 190.787C308.512 191.298 307.848 191.631 307.132 191.737L266.538 197.746C265.957 197.829 265.365 197.761 264.818 197.55L201.998 173.335C201.278 173.051 200.675 172.532 200.29 171.862C199.904 171.191 199.758 170.41 199.876 169.646L208.252 117.367Z" fill="#3F3D56"/>
<path d="M208.917 114.464C208.95 114.369 209.009 114.285 209.087 114.22C209.112 114.2 209.14 114.181 209.168 114.165C209.194 114.154 209.221 114.138 209.248 114.128C209.374 114.077 209.514 114.075 209.642 114.121L210.949 114.582L274.828 137.091L289.778 135.513L298.144 134.632L315.851 132.759L317.434 132.593L317.742 132.559C317.875 132.547 318.008 132.582 318.117 132.657C318.227 132.732 318.307 132.844 318.344 132.972C318.352 133.001 318.358 133.031 318.36 133.062C318.374 133.183 318.347 133.306 318.284 133.411C318.221 133.516 318.126 133.597 318.013 133.644C317.963 133.664 317.91 133.679 317.857 133.686L315.703 133.911L298.265 135.753L292.169 136.394L274.821 138.225C274.77 138.227 274.719 138.227 274.669 138.223C274.638 138.214 274.607 138.204 274.57 138.195L209.482 115.266L209.261 115.188C209.21 115.171 209.163 115.145 209.122 115.111C209.023 115.039 208.95 114.937 208.914 114.821C208.877 114.705 208.878 114.579 208.917 114.464Z" fill="#3F3D56"/>
<path d="M265.5 199.012C265.353 198.988 265.221 198.908 265.133 198.788C265.045 198.667 265.009 198.518 265.031 198.371L274.202 137.579C274.224 137.431 274.304 137.298 274.425 137.21C274.545 137.121 274.696 137.083 274.844 137.106L274.849 137.106C274.996 137.13 275.128 137.211 275.216 137.331C275.304 137.451 275.34 137.6 275.318 137.747L266.147 198.539C266.125 198.687 266.045 198.82 265.924 198.908C265.804 198.997 265.653 199.035 265.505 199.012L265.5 199.012Z" fill="#3F3D56"/>
<path d="M288.746 195.155L282.646 195.798L289.781 135.511C289.781 135.511 297.927 134.038 298.145 134.629C298.279 134.982 288.804 194.769 288.746 195.155Z" fill="#3F3D56"/>
<path d="M209.262 115.187L209.098 142.68L257.821 161.225L275.319 137.747L209.262 115.187Z" fill="#3F3D56"/>
<path d="M317.436 132.594C317.029 132.083 316.481 131.702 315.859 131.498L253.692 110.814C253.518 110.755 253.339 110.712 253.157 110.683C252.958 110.649 252.757 110.634 252.556 110.639L252.657 110.009L253.279 109.559L268.042 98.8826L317.343 113.975L317.428 131.046L317.436 132.594Z" fill="#3F3D56"/>
<path d="M211.745 159.322C211.816 159.329 211.885 159.343 211.951 159.365L231.026 165.623C231.265 165.701 231.463 165.871 231.576 166.095C231.689 166.319 231.709 166.579 231.631 166.818C231.552 167.056 231.382 167.254 231.158 167.367C230.934 167.481 230.674 167.5 230.435 167.422L211.36 161.164C211.139 161.091 210.952 160.94 210.836 160.738C210.719 160.536 210.681 160.299 210.729 160.071C210.776 159.843 210.906 159.641 211.094 159.503C211.281 159.364 211.513 159.3 211.745 159.322Z" fill="white"/>
<path d="M288.705 274.654C292.892 274.654 296.286 271.264 296.286 267.082C296.286 262.899 292.892 259.509 288.705 259.509C284.518 259.509 281.124 262.899 281.124 267.082C281.124 271.264 284.518 274.654 288.705 274.654Z" fill="#F2F2F2"/>
<path d="M95.3941 302.42C99.5808 302.42 102.975 299.03 102.975 294.848C102.975 290.665 99.5808 287.275 95.3941 287.275C91.2073 287.275 87.8132 290.665 87.8132 294.848C87.8132 299.03 91.2073 302.42 95.3941 302.42Z" fill="#F2F2F2"/>
<path d="M253.328 51.8947C257.515 51.8947 260.909 48.5043 260.909 44.3221C260.909 40.1399 257.515 36.7496 253.328 36.7496C249.141 36.7496 245.747 40.1399 245.747 44.3221C245.747 48.5043 249.141 51.8947 253.328 51.8947Z" fill="#F2F2F2"/>
<path d="M265.766 170.459C264.783 170.886 263.719 171.092 262.648 171.063C261.577 171.034 260.526 170.771 259.568 170.292C258.61 169.813 257.768 169.131 257.103 168.292C256.438 167.453 255.964 166.479 255.717 165.438L229.808 162.823L238.356 152.344L261.649 156.433C263.427 156.134 265.254 156.496 266.783 157.452C268.312 158.408 269.436 159.891 269.944 161.62C270.451 163.348 270.306 165.203 269.536 166.832C268.766 168.462 267.425 169.752 265.766 170.459Z" fill="#FFB8B8"/>
<path d="M249.83 166.302L189.368 160.737L189.285 160.642L145.158 110.135C142.254 105.691 141.16 100.306 142.101 95.0826C143.042 89.8593 145.947 85.1929 150.22 82.0389C152.584 80.2982 155.291 79.0775 158.161 78.457C161.032 77.8365 164.002 77.8303 166.875 78.4389C169.748 79.0476 172.46 80.2571 174.831 81.988C177.203 83.7189 179.18 85.9319 180.634 88.4813L207.813 136.153L250.496 153.284L249.83 166.302Z" fill="#E6E6E6"/>
<path d="M401.588 69.1733C400.086 58.1717 398.203 46.3599 390.435 38.418C387.97 35.8981 385.02 33.9028 381.763 32.5526C378.505 31.2023 375.007 30.525 371.481 30.5615C367.954 30.5979 364.471 31.3474 361.242 32.7647C358.013 34.1821 355.105 36.2379 352.693 38.8082C347.038 44.8339 344.541 53.295 344.313 61.5511C344.084 69.8071 345.925 77.9714 347.967 85.9747C358.773 86.1904 369.5 84.0814 379.418 79.7909C381.899 78.7155 384.339 77.4998 386.959 76.8336C389.58 76.1674 391.448 77.8438 393.885 79.0128L395.223 76.4536C396.318 78.4898 399.71 77.8862 400.94 75.9284C402.17 73.9707 401.901 71.4635 401.588 69.1733Z" fill="#2F2E41"/>
<path d="M358.752 130.58L314.609 131.523C313.931 130.352 312.927 129.404 311.72 128.793C310.512 128.181 309.152 127.934 307.807 128.081C306.461 128.227 305.187 128.762 304.139 129.618C303.092 130.475 302.316 131.618 301.907 132.907C301.498 134.196 301.472 135.576 301.834 136.879C302.196 138.182 302.929 139.352 303.944 140.247C304.959 141.141 306.212 141.722 307.552 141.918C308.891 142.114 310.259 141.917 311.488 141.35C317.343 141.683 363.146 148.177 365.879 143.992C368.653 139.744 383.457 124.754 383.457 124.754L372.077 108.571L358.752 130.58Z" fill="#FFB8B8"/>
<path d="M369.509 80.058C380.963 80.058 390.249 70.7825 390.249 59.3406C390.249 47.8988 380.963 38.6233 369.509 38.6233C358.054 38.6233 348.769 47.8988 348.769 59.3406C348.769 70.7825 358.054 80.058 369.509 80.058Z" fill="#FFB8B8"/>
<path d="M402.727 99.2029C400.283 94.3439 399.095 88.3413 393.885 86.7661C390.366 85.7023 376.135 87.2964 372.928 89.092C367.594 92.0789 372.428 97.6757 369.281 102.913C365.86 108.607 356.563 120.033 353.142 125.727C350.79 129.641 358.712 141.131 357.44 145.516C356.169 149.9 356.108 154.822 358.274 158.841C360.213 162.439 357.408 165.622 359.358 169.214C361.385 172.95 363.873 186.917 361.986 190.725L360.723 194.511C373.261 195.247 383.803 180.285 396.263 178.709C399.358 178.317 402.571 177.806 405.122 176.011C408.878 173.368 410.363 168.572 411.291 164.077C415.758 142.103 412.744 119.269 402.727 99.2029Z" fill="#3F3D56"/>
<path d="M421.525 150.508C419.779 145.746 416.617 124.928 416.617 124.928L396.828 124.348L406.503 148.184L380.103 185.102C380.103 185.102 380.152 185.183 380.24 185.328C378.852 185.105 377.429 185.306 376.158 185.905C374.886 186.504 373.825 187.472 373.113 188.683C372.402 189.894 372.072 191.291 372.169 192.692C372.265 194.093 372.783 195.432 373.654 196.535C374.525 197.637 375.708 198.451 377.05 198.87C378.392 199.289 379.829 199.294 381.173 198.884C382.518 198.474 383.707 197.668 384.586 196.572C385.464 195.475 385.991 194.139 386.096 192.739C386.194 192.795 386.307 192.815 386.418 192.796C386.528 192.777 386.629 192.72 386.702 192.635C389.639 188.953 423.271 155.27 421.525 150.508Z" fill="#FFB8B8"/>
<path d="M423.537 137.36C421.721 129.703 419.891 122.003 416.829 114.752C413.766 107.502 409.383 100.653 403.217 95.7545C401.245 94.1884 399.042 92.8061 396.57 92.3192C394.099 91.8322 391.315 92.3772 389.579 94.2006C386.802 97.1183 387.638 101.802 388.656 105.697C391.66 117.182 394.663 128.667 397.666 140.153C406.34 139.234 415.013 138.316 423.686 137.398L423.537 137.36Z" fill="#3F3D56"/>
<path d="M394.922 62.2142C394.158 57.2024 393.361 52.1487 391.566 47.4297C389.772 42.7106 386.88 38.2905 382.731 35.6172C376.161 31.3847 367.656 32.201 360.291 34.6357C354.595 36.5185 349.035 39.3803 345.018 43.981C341.001 48.5818 338.745 55.1466 340.239 61.1623C348.096 59.3081 355.952 57.4539 363.809 55.5997L362.949 56.2068C365.528 57.4917 367.781 59.3468 369.536 61.6312C371.291 63.9157 372.501 66.5694 373.076 69.3911C373.638 72.247 373.557 75.192 372.84 78.0129C372.123 80.8339 370.786 83.4603 368.928 85.7022C374.287 83.8035 379.645 81.9048 385.003 80.0062C388.31 78.8342 391.85 77.4839 393.811 74.4779C396.085 70.9927 395.556 66.3734 394.922 62.2142Z" fill="#2F2E41"/>
</g>
<defs>
<clipPath id="clip0_477_10975">
<rect width="545" height="406.89" fill="white"/>
</clipPath>
</defs>
</svg>
